<?xml version="1.0" encoding="utf-8"?>
<!-- Generator: Adobe Illustrator 19.0.0, SVG Export Plug-In . SVG Version: 6.00 Build 0)  -->
<svg version="1.1" id="Layer_3" xmlns="http://www.w3.org/2000/svg" xmlns:xlink="http://www.w3.org/1999/xlink" x="0px" y="0px"
	 viewBox="0 0 121 115" style="enable-background:new 0 0 121 115;" xml:space="preserve">
<style type="text/css">
	.st0{fill:#4C3B66;}
	.st1{fill:#FCFCFC;}
</style>
<g>
	<rect class="st0" width="121" height="115"/>
	<g>
		<path class="st1" d="M51,16.3c-1.8-1.3-2.8-3.1-3-4.5c-0.3-2.2,0.2-3.5,0.9-4.7c0.8-1.3,2-2.2,3.6-2.1c1.6,0.1,2.6,0.9,2.9,1.9
			c0.3,0.7,0.3,2.2-0.5,2.8c-0.8,0.5-1.7,0.4-2.2-0.2C52.3,8.9,52.5,8,53,7.6c0.6-0.4,1.2-0.2,1.5,0.2c-0.1-0.6-0.6-1.2-1.8-1.4
			c-1-0.2-1.7,0.3-2.4,1c-0.7,0.8-1.2,2.6-1.1,3.8C49.2,12.6,49.5,14.2,51,16.3z"/>
		<path class="st1" d="M71.1,16.3c1.8-1.3,2.8-3.1,3-4.5c0.3-2.2-0.2-3.5-0.9-4.7c-0.8-1.3-2-2.2-3.6-2.1C68,5.1,67,5.9,66.7,6.9
			c-0.3,0.7-0.3,2.2,0.5,2.8c0.8,0.5,1.7,0.4,2.2-0.2c0.4-0.5,0.2-1.4-0.3-1.8c-0.6-0.4-1.2-0.2-1.5,0.2c0.1-0.6,0.6-1.2,1.8-1.4
			c1-0.2,1.7,0.3,2.4,1c0.7,0.8,1.2,2.6,1.1,3.8C72.9,12.6,72.7,14.2,71.1,16.3z"/>
		<g>
			<circle class="st1" cx="54.6" cy="12.6" r="0.3"/>
			<path class="st1" d="M69.7,12.8c-0.5-0.3-1-0.4-1.2-0.6c-0.3-0.2-0.9-0.7-0.9-0.7l-0.1-0.7L67.1,11l-1.4-1.4c0,0,0.2-0.2,0.1-0.4
				c-0.1-0.3-0.6,0-0.6,0s-0.5-0.3-0.5,0c0,0.3,0.3,0.4,0.3,0.4s-0.8,0.5-0.9,0.8c-0.1,0.3-0.1,0.6,0.2,0.6c0.3,0,0.3-0.5,0.3-0.5
				l0.5-0.3c0,0,0.6,0.4,0.9,0.8c0.3,0.3,0.1,0.6,0.1,0.6l-4.6,4.6c0,0,0,0.3,0,0.7c0,0.3-0.5,0.3-0.5,0.3v-2c0,0,0.3,0.2,0.5,0.1
				c0.2-0.1,0.3-0.4,0.1-0.6c-0.1-0.2,0-0.3,0.2-0.3c0.1,0,0.7,0.1,0.8-0.3c0.1-0.3-0.1-0.4-0.4-0.6c-0.3-0.1-0.1-0.3,0.1-0.5
				c0.2-0.1,0.6-0.1,0.5-0.5c-0.1-0.4-0.5-0.3-0.8-0.3c-0.3,0-0.5,0-0.4-0.2c0.1-0.2,0.4-0.6,0-0.7c-0.4-0.1-0.9,0.4-0.9,0.5
				c0,0-0.5-0.6-0.9-0.5c-0.4,0.2-0.1,0.5,0,0.7c0.1,0.2-0.1,0.2-0.4,0.2c-0.3,0-0.8-0.1-0.8,0.3C58.5,13,58.8,13,59,13.1
				c0.2,0.1,0.4,0.3,0.1,0.5c-0.3,0.1-0.4,0.2-0.4,0.6c0.1,0.4,0.6,0.3,0.8,0.3c0.1,0,0.3,0.1,0.2,0.3c-0.1,0.2-0.1,0.5,0.1,0.6
				c0.2,0.1,0.5-0.1,0.5-0.1v2c0,0-0.5,0.1-0.5-0.3c0-0.3,0-0.7,0-0.7l-4.6-4.6c0,0-0.2-0.3,0.1-0.6c0.3-0.3,0.9-0.8,0.9-0.8
				l0.5,0.3c0,0,0,0.5,0.3,0.5c0.2,0,0.2-0.3,0.2-0.6c-0.1-0.3-0.9-0.8-0.9-0.8s0.3-0.1,0.3-0.4c0-0.3-0.5,0-0.5,0s-0.5-0.3-0.6,0
				c-0.1,0.3,0.1,0.4,0.1,0.4L54.3,11l-0.4-0.2l-0.1,0.7c0,0-0.6,0.5-0.9,0.7c-0.3,0.2-0.8,0.3-1.2,0.6c-0.5,0.3-0.6,0.6-0.5,0.9
				c0.1,0.3,0.6,0.2,0.6,0.2s0.5-0.8,0.9-0.7c0,0.3-0.5,0.7-0.5,0.7s0,0.4,0.5,0.5c0.5,0.1,0.7-0.4,0.7-0.4s0.6-0.6,1-0.1
				c0.5,0.5,2.6,2.7,2.8,2.9c0.2,0.2,0,0.4-0.2,0.4c-0.2,0-3.1,0.2-3.1,0.2V18h6.7h0h6.7v-0.5c0,0-2.9-0.2-3.1-0.2
				c-0.2,0-0.4-0.2-0.2-0.4c0.2-0.2,2.3-2.4,2.8-2.9c0.5-0.5,1,0.1,1,0.1s0.2,0.5,0.7,0.4c0.5-0.1,0.5-0.5,0.5-0.5s-0.5-0.4-0.5-0.7
				c0.5-0.1,0.9,0.7,0.9,0.7s0.5,0.1,0.6-0.2C70.3,13.4,70.2,13.1,69.7,12.8z M54,13.1l-0.2-1l1.3,0l0.3,1H54z M56.4,14.6
				c-0.2,0-0.4-0.2-0.4-0.4c0-0.2,0.2-0.4,0.4-0.4c0.2,0,0.4,0.2,0.4,0.4C56.8,14.4,56.7,14.6,56.4,14.6z M57.5,15.7
				c-0.2,0-0.3-0.1-0.3-0.3c0-0.2,0.1-0.3,0.3-0.3c0.2,0,0.3,0.1,0.3,0.3C57.8,15.5,57.7,15.7,57.5,15.7z M58.7,17
				c-0.3,0-0.5-0.2-0.5-0.5c0-0.3,0.2-0.5,0.5-0.5c0.3,0,0.5,0.2,0.5,0.5C59.2,16.8,58.9,17,58.7,17z M60.7,13.8
				c0,0.1-0.3,0.4-0.6,0.1c-0.3-0.3,0.1-0.7,0.1-0.7s-0.5-0.3-0.2-0.6c0.3-0.3,0.6,0.1,0.6,0.1s0.4-0.5,0.6-0.1
				c0.3,0.4-0.2,0.6-0.2,0.6s0.4,0.3,0.1,0.7C61,14.2,60.7,13.8,60.7,13.8z M62.7,17c-0.3,0-0.5-0.2-0.5-0.5c0-0.3,0.2-0.5,0.5-0.5
				c0.3,0,0.5,0.2,0.5,0.5C63.2,16.8,63,17,62.7,17z M63.9,15.7c-0.2,0-0.3-0.1-0.3-0.3c0-0.2,0.1-0.3,0.3-0.3
				c0.2,0,0.3,0.1,0.3,0.3C64.2,15.5,64,15.7,63.9,15.7z M65,14.6c-0.2,0-0.4-0.2-0.4-0.4c0-0.2,0.2-0.4,0.4-0.4
				c0.2,0,0.4,0.2,0.4,0.4C65.4,14.4,65.2,14.6,65,14.6z M67.4,13.1h-1.3l0.3-1l1.3,0L67.4,13.1z"/>
			<circle class="st1" cx="66.8" cy="12.6" r="0.3"/>
		</g>
		<path class="st1" d="M67.2,18.3c0,0,0,0.2,0,0.4c0,0.2-0.1,0.4-0.3,0.4c-0.2,0-0.3-0.1-0.4-0.2c0-0.1,0.1-0.4-0.1-0.5
			c-0.2-0.1-0.4-0.1-0.6-0.1c-0.2,0-0.4,0.3-0.2,0.5c0.2,0.2,0.4,0.1,0.6,0.3c0.2,0.2,0.1,0.6,0.3,0.7c0.2,0.1,0.5,0,0.7,0
			c0.1,0,0.2,0.2-0.1,0.7c-0.3,0.5-0.5,0.4-0.6,0.3c-0.1-0.1-0.1-0.6-0.3-0.8c-0.2-0.2-0.5-0.1-0.6-0.2c-0.2-0.2,0-0.5-0.2-0.7
			c-0.1-0.2-0.5-0.1-0.6-0.2c-0.1-0.1,0-0.5,0-0.5h-4.2h-4.2c0,0,0,0.3,0,0.5c-0.1,0.1-0.4,0-0.6,0.2c-0.1,0.2,0,0.5-0.2,0.7
			c-0.2,0.2-0.5,0-0.6,0.2c-0.2,0.2-0.1,0.8-0.3,0.8c-0.1,0.1-0.3,0.2-0.6-0.3c-0.3-0.5-0.2-0.6-0.1-0.7c0.1,0,0.5,0.1,0.7,0
			c0.2-0.1,0.1-0.5,0.3-0.7c0.2-0.2,0.4-0.1,0.6-0.3c0.2-0.2-0.1-0.5-0.2-0.5c-0.2,0-0.3,0-0.6,0.1c-0.2,0.1,0,0.4-0.1,0.5
			c0,0.1-0.2,0.2-0.4,0.2c-0.3,0-0.3-0.1-0.3-0.4c0-0.2,0-0.4,0-0.4l-0.7,0V22c0,0,0.1,0.4,0.6,0.1c0.3-0.4,3-3.2,3.2-3.4
			c0.2-0.2,0.5,0,0.3,0.3c0,0.3,0,3.5,0,3.5s-1.3,1-1.4,1c-0.1,0.1-0.3,0.2-0.3-0.1c0-0.2,0-0.4-0.3-0.3c-0.2,0.1-0.4,0-0.3-0.1
			c0.1-0.2-0.1-0.3-0.2-0.3c-0.1,0.1-0.5,0.3-0.7,0.5c-0.2,0.2,0,0.5,0.2,0.4c0.3-0.2,0.4-0.3,0.5-0.3c0.1,0,0.1,0.1,0.1,0.1
			s0,0.2,0,0.3c0.1,0.1,0.2,0.1,0.2,0.1s-0.6,0.6-0.9,0.9c-0.3,0.2,0,0.6,0.4,0.4c0.3-0.3,1-1,1-1l0.4,0.2c0,0-0.5,0.3-0.7,0.5
			c-0.2,0.1-0.1,0.3,0,0.4c0.1,0.1,0.3,0.3,0.5,0c0.2-0.3,0.4-0.7,0.5-0.8c0.1-0.1,1.2-1.1,1.7-1.5c0.5-0.4,0.4-0.8,0.4-0.8v-2.4
			h0.5v2.5h0.3v-2.5h0.2V22l0.4,0.2l-0.7,1.1h1.3H62l-0.7-1.1l0.4-0.2v-2.3h0.2v2.5h0.3v-2.5h0.5v2.4c0,0,0,0.4,0.4,0.8
			c0.5,0.4,1.6,1.3,1.7,1.5c0.1,0.1,0.3,0.6,0.5,0.8c0.2,0.3,0.4,0.1,0.5,0c0.1-0.1,0.2-0.3,0-0.4c-0.2-0.1-0.7-0.5-0.7-0.5l0.4-0.2
			c0,0,0.7,0.7,1,1c0.3,0.3,0.6-0.1,0.4-0.4c-0.3-0.2-0.9-0.9-0.9-0.9s0.1,0,0.2-0.1c0.1-0.1,0-0.3,0-0.3s0-0.1,0.1-0.1
			c0.1,0,0.2,0.1,0.5,0.3c0.3,0.2,0.4-0.2,0.2-0.4c-0.2-0.2-0.6-0.4-0.7-0.5c-0.1-0.1-0.3,0-0.2,0.3c0.1,0.2-0.1,0.2-0.3,0.1
			c-0.2-0.1-0.3,0.1-0.3,0.3c0,0.2-0.2,0.1-0.3,0.1c-0.1-0.1-1.4-1-1.4-1s0-3.3,0-3.5c-0.2-0.3,0.2-0.4,0.3-0.3
			c0.2,0.2,2.9,3,3.2,3.4c0.5,0.2,0.6-0.1,0.6-0.1v-3.7L67.2,18.3z M60.4,22.2l0.3-0.6h0l0.3,0.6H60.4z M61,20.5h-0.3h-0.3v-0.9h0.3
			H61V20.5z M62.5,19.4h-1.8h-1.8v-0.6h1.8h1.8V19.4z"/>
		<g>
			<path class="st1" d="M62.5,23.8c0,0.1-0.1,0.3-0.3,0.3h-3.5c-0.1,0-0.3-0.1-0.3-0.3l0,0c0-0.1,0.1-0.3,0.3-0.3h3.5
				C62.4,23.6,62.5,23.7,62.5,23.8L62.5,23.8z"/>
			<path class="st1" d="M63.3,24.6c0,0.1-0.1,0.3-0.3,0.3h-4.8c-0.1,0-0.3-0.1-0.3-0.3l0,0c0-0.1,0.1-0.3,0.3-0.3h4.8
				C63.2,24.4,63.3,24.5,63.3,24.6L63.3,24.6z"/>
			<path class="st1" d="M64.1,25.4c0,0.2-0.1,0.3-0.3,0.3h-6.2c-0.2,0-0.3-0.1-0.3-0.3l0,0c0-0.1,0.1-0.3,0.3-0.3h6.2
				C63.9,25.1,64.1,25.2,64.1,25.4L64.1,25.4z"/>
			<path class="st1" d="M64.6,26c-0.4,0-7.5,0-7.9,0c-0.3,0-0.5,0.2-0.5,0.2s-0.3,0.5-0.6,0.9c-0.2,0.3,0.1,0.6,0.4,0.6
				c0.4,0,8.5,0,9,0c0.7,0,0.9-0.3,0.7-0.6c-0.4-0.5-0.7-0.9-0.7-0.9S65,26,64.6,26z"/>
		</g>
		<path class="st1" d="M58.5,42.5c-3,0.6-5-1.4-5.1-3.2c-0.1-1.8,0.2-3.4,2-4.8c2.4-1.7,4.1-2.1,4.5-3.2c0.5-1.1-0.8-2.1-0.8-2.1
			s-0.5-0.4-1.3-0.3c-1.5,0.2-1.2,1.8-1.2,1.8s0.2-0.8,1-0.7c0.5,0.1,0.9,0.4,0.9,1c0,0.7-0.3,1.3-1,1.4c-0.6,0.1-1.5-0.4-1.8-1.1
			c-0.3-0.7-0.4-1.5,0.4-2.4c0.8-1,2.1-1.1,3.4-0.6c1.2,0.5,1.5,1.5,1.7,2.2c0.5,2.3-1.2,3.1-1.5,3.4c-0.3,0.3-1.4,0.8-2.6,1.7
			c-1.6,1.1-1.6,3.5-0.9,4.9C56.5,41.1,56.8,41.8,58.5,42.5z"/>
		<path class="st1" d="M64.1,42.5c3,0.6,5-1.4,5.1-3.2c0.1-1.8-0.2-3.4-2-4.8c-2.4-1.7-4.1-2.1-4.5-3.2c-0.5-1.1,0.8-2.1,0.8-2.1
			s0.5-0.4,1.3-0.3c1.5,0.2,1.2,1.8,1.2,1.8s-0.2-0.8-1-0.7c-0.5,0.1-0.9,0.4-0.9,1c0,0.7,0.3,1.3,1,1.4c0.6,0.1,1.5-0.4,1.8-1.1
			c0.3-0.7,0.4-1.5-0.4-2.4c-0.8-1-2.1-1.1-3.4-0.6c-1.2,0.5-1.5,1.5-1.7,2.2c-0.5,2.3,1.2,3.1,1.5,3.4c0.3,0.3,1.4,0.8,2.6,1.7
			c1.6,1.1,1.6,3.5,0.9,4.9C66.1,41.1,65.7,41.8,64.1,42.5z"/>
		<path class="st1" d="M63.9,38.9c0.3,0,0.5-0.1,0.8-0.2c-0.2-0.2-0.4-0.3-0.7-0.5c0.2-0.1,0.5-0.3,0.7-0.4
			c-0.2-0.1-0.5-0.2-0.8-0.3c0.2-0.2,0.4-0.4,0.6-0.6c-0.2-0.1-0.5-0.1-0.9-0.1c0.2-0.2,0.3-0.5,0.4-0.7c-0.3,0-0.6,0.1-0.8,0.2
			c0.1-0.3,0.2-0.5,0.2-0.8c-0.2,0.1-0.5,0.2-0.8,0.4c0-0.3,0-0.5,0-0.8c-0.2,0.1-0.4,0.3-0.7,0.6c0-0.3-0.1-0.5-0.2-0.8
			c-0.2,0.2-0.3,0.4-0.5,0.7c-0.1-0.2-0.2-0.5-0.4-0.7c-0.1,0.2-0.2,0.5-0.3,0.8c-0.2-0.2-0.4-0.4-0.6-0.6c-0.1,0.2-0.1,0.5-0.1,0.9
			c-0.2-0.2-0.5-0.3-0.7-0.4c0,0.3,0.1,0.6,0.2,0.8c-0.3-0.1-0.5-0.2-0.8-0.2c0.1,0.2,0.2,0.5,0.4,0.8c-0.3,0-0.5,0-0.8,0
			c0.1,0.2,0.3,0.5,0.6,0.7c-0.3,0-0.5,0.1-0.8,0.2c0.2,0.2,0.4,0.4,0.7,0.5c-0.3,0.1-0.5,0.2-0.7,0.4c0.2,0.1,0.5,0.2,0.8,0.3
			c-0.2,0.2-0.4,0.4-0.6,0.6c0.2,0.1,0.5,0.1,0.9,0.1c-0.2,0.2-0.3,0.5-0.4,0.7c0.3,0,0.6,0,0.9-0.1c-0.1,0.3-0.2,0.5-0.2,0.8
			c0.3-0.1,0.6-0.2,0.9-0.4c0,0.3,0,0.6,0,0.9c0.2-0.1,0.4-0.3,0.6-0.6c0,0.3,0.1,0.5,0.2,0.8c0.2-0.2,0.3-0.4,0.5-0.7
			c0.1,0.2,0.3,0.5,0.4,0.7c0.1-0.2,0.2-0.5,0.3-0.8c0.2,0.2,0.4,0.4,0.6,0.6c0.1-0.2,0.1-0.5,0.1-0.9c0.2,0.2,0.5,0.3,0.7,0.4
			c0-0.3-0.1-0.6-0.2-0.8c0.3,0.1,0.5,0.2,0.8,0.2c-0.1-0.2-0.2-0.5-0.4-0.8c0.3,0,0.5,0,0.8,0C64.4,39.3,64.2,39.1,63.9,38.9z
			 M60.5,37.6c-0.5,0-0.9-0.6-1-1C60,36.7,60.5,37.1,60.5,37.6z M58.8,38.3c0.4-0.3,1.1-0.4,1.4,0C59.9,38.7,59.2,38.6,58.8,38.3z
			 M59.6,40c0.1-0.5,0.5-1,1-1C60.6,39.5,60,39.9,59.6,40z M61.2,35.8c0.3,0.4,0.4,1.1,0,1.4C60.8,36.9,60.9,36.2,61.2,35.8z
			 M61.3,40.7c-0.3-0.4-0.4-1.1,0-1.4C61.7,39.6,61.6,40.3,61.3,40.7z M61.3,38.8c-0.3,0-0.6-0.3-0.6-0.6c0-0.3,0.3-0.6,0.6-0.6
			c0.3,0,0.6,0.3,0.6,0.6C61.8,38.6,61.6,38.8,61.3,38.8z M62.9,36.5c-0.1,0.5-0.5,1-1,1C61.9,37,62.5,36.6,62.9,36.5z M62,38.9
			c0.5,0,0.9,0.6,1,1C62.5,39.8,62,39.4,62,38.9z M62.3,38.2c0.3-0.4,1-0.2,1.4,0C63.2,38.5,62.6,38.5,62.3,38.2z"/>
		<path class="st1" d="M64.4,60.4c0.3,0,0.5-0.1,0.8-0.2c-0.2-0.2-0.4-0.3-0.7-0.5c0.2-0.1,0.5-0.3,0.7-0.4
			c-0.2-0.1-0.5-0.2-0.8-0.3c0.2-0.2,0.4-0.4,0.6-0.6c-0.2-0.1-0.5-0.1-0.9-0.1c0.2-0.2,0.3-0.5,0.4-0.7c-0.3,0-0.6,0.1-0.8,0.2
			c0.1-0.3,0.2-0.5,0.2-0.8c-0.2,0.1-0.5,0.2-0.8,0.4c0-0.3,0-0.5,0-0.8c-0.2,0.1-0.4,0.3-0.7,0.6c0-0.3-0.1-0.5-0.2-0.8
			c-0.2,0.2-0.3,0.4-0.5,0.7c-0.1-0.2-0.2-0.5-0.4-0.7c-0.1,0.2-0.2,0.5-0.3,0.8c-0.2-0.2-0.4-0.4-0.6-0.6c-0.1,0.2-0.1,0.5-0.1,0.9
			c-0.2-0.2-0.5-0.3-0.7-0.4c0,0.3,0.1,0.5,0.2,0.8c-0.3-0.1-0.5-0.2-0.8-0.2c0.1,0.2,0.2,0.5,0.4,0.8c-0.3,0-0.5,0-0.8,0
			c0.1,0.2,0.3,0.4,0.6,0.7c-0.3,0-0.5,0.1-0.8,0.2c0.2,0.2,0.4,0.4,0.7,0.5c-0.3,0.1-0.5,0.2-0.7,0.4c0.2,0.1,0.5,0.2,0.8,0.3
			c-0.2,0.2-0.4,0.4-0.6,0.6c0.2,0.1,0.5,0.1,0.9,0.1c-0.2,0.2-0.3,0.5-0.4,0.7c0.3,0,0.6,0,0.9-0.1c-0.1,0.3-0.2,0.5-0.2,0.8
			c0.3-0.1,0.6-0.2,0.9-0.4c0,0.3,0,0.6,0,0.9c0.2-0.1,0.4-0.3,0.6-0.6c0,0.3,0.1,0.5,0.2,0.8c0.2-0.2,0.3-0.4,0.5-0.7
			c0.1,0.2,0.3,0.5,0.4,0.7c0.1-0.2,0.2-0.5,0.3-0.8c0.2,0.2,0.4,0.4,0.6,0.6c0.1-0.2,0.1-0.5,0.1-0.9c0.2,0.2,0.5,0.3,0.7,0.4
			c0-0.3-0.1-0.6-0.2-0.8c0.3,0.1,0.5,0.2,0.8,0.2c-0.1-0.2-0.2-0.5-0.4-0.8c0.3,0,0.5,0,0.8,0C64.8,60.9,64.6,60.6,64.4,60.4z
			 M61,59.2c-0.5,0-0.9-0.6-1-1C60.5,58.3,61,58.7,61,59.2z M59.3,59.9c0.4-0.3,1.1-0.4,1.4,0C60.4,60.3,59.7,60.1,59.3,59.9z
			 M60.1,61.6c0.1-0.5,0.5-1,1-1C61.1,61.1,60.5,61.5,60.1,61.6z M61.6,57.4c0.3,0.4,0.4,1.1,0,1.4C61.3,58.5,61.4,57.8,61.6,57.4z
			 M61.8,62.2c-0.3-0.4-0.4-1.1,0-1.4C62.2,61.1,62.1,61.9,61.8,62.2z M61.7,60.4c-0.3,0-0.6-0.3-0.6-0.6c0-0.3,0.3-0.6,0.6-0.6
			c0.3,0,0.6,0.3,0.6,0.6C62.3,60.1,62,60.4,61.7,60.4z M63.4,58c-0.1,0.5-0.5,1-1,1C62.3,58.6,62.9,58.1,63.4,58z M62.5,60.5
			c0.5,0,0.9,0.6,1,1C63,61.4,62.5,61,62.5,60.5z M62.7,59.7c0.3-0.4,1-0.2,1.4,0C63.7,60,63.1,60.1,62.7,59.7z"/>
		<path class="st1" d="M60.5,44.9c0,0-2,0.3-2.9-0.1c-0.9-0.4-1.6-0.8-3-0.8c-1.3,0-2.9,0.6-2.9,0.6s0.8,0,1.7,0.9
			c0.8,0.8,3,1.1,4.5,0.7C59.7,45.8,60.5,44.9,60.5,44.9z"/>
		<path class="st1" d="M62.1,44.9c0,0,2,0.3,2.9-0.1c0.9-0.4,1.6-0.8,3-0.8c1.3,0,3,0.6,3,0.6s-0.8,0-1.7,0.9
			c-0.8,0.8-3,1.1-4.5,0.7C62.9,45.8,62.1,44.9,62.1,44.9z"/>
		<path class="st1" d="M72.3,64.9c0.1-0.4,0.8-1.1,1.6-1.6c0.9-0.7,1.7-2.4,1.9-3.7c0.3-2.1-0.4-3.5-0.4-3.5s0,1.4-0.9,2.6
			c-0.9,1-1.6,1.9-2,3.5C72.1,63.8,72.3,64.4,72.3,64.9z"/>
		<path class="st1" d="M48.8,41.8"/>
		<path class="st1" d="M48.8,33c-2,0.1-2.7,2.3-2.7,3.3c0,1,0.4,3.2,2.7,5.9c2.5-2.9,2.7-5.2,2.7-6C51.5,35.4,50.8,32.9,48.8,33z
			 M50.2,37.5c0,0.7-0.2,2.5-1.4,4.4c-1.1-2.1-1.4-3.7-1.4-4.4c0-0.7,0.3-1.7,1.3-1.8C49.9,35.7,50.3,36.8,50.2,37.5z"/>
		<path class="st1" d="M48.4,30.4c0,0-2.2-2.6-1.4-5c0.4-1.4,1.7-2.2,2.5-2.2c1.3,0,1.4,1.2,1.1,2c-0.4,1-1.6,1.9-1.9,2.7
			C48.1,29.4,48.4,30.4,48.4,30.4z"/>
		<path class="st1" d="M47.4,31.3c0,0-2.6-2.1-5.1-1.3c-1.3,0.4-2.2,1.7-2.2,2.5c0,1.3,1.2,1.4,2,1.1c1-0.4,1.9-1.6,2.7-2
			C46.4,31,47.4,31.3,47.4,31.3z"/>
		<g>
			<path class="st1" d="M45,28.7c-0.7-0.1-2.8-0.9-5,0c-1.2,0.5-3,2.1-4.8,2c-1.1-0.1-2.8-0.5-3.2-2.5c-0.3-1.9,1-3,1.8-3.3
				c0.9-0.3,1.8-0.1,2.3,0.4c0.4,0.4,0.9,1.4,0.4,2c-0.3,0.5-1.4,0.9-1.9,0.2c-0.7-0.8-0.1-1.5,0.5-1.6c-0.2-0.2-1-0.4-1.6,0.2
				c-0.8,0.7-0.4,1.9,0.2,2.4c1.8,1.4,4.1-0.1,5.1-0.6C41.7,26.5,44.2,27.7,45,28.7z"/>
			<path class="st1" d="M45,28.7c-0.7-0.1-2.8-0.9-5,0c-1.2,0.5-3,2.1-4.8,2c-1.1-0.1-2.8-0.5-3.2-2.5c-0.3-1.9,1-3,1.8-3.3
				c0.9-0.3,1.8-0.1,2.3,0.4c0.4,0.4,0.9,1.4,0.4,2c-0.3,0.5-1.4,0.9-1.9,0.2c-0.7-0.8-0.1-1.5,0.5-1.6c-0.2-0.2-1-0.4-1.6,0.2
				c-0.8,0.7-0.4,1.9,0.2,2.4c1.8,1.4,4.1-0.1,5.1-0.6C41.7,26.5,44.2,27.7,45,28.7z"/>
		</g>
		<g>
			<path class="st1" d="M45.7,28.4c-0.1-0.7-0.9-2.8,0-5c0.5-1.2,2.1-3,2-4.8c-0.1-1.1-0.4-2.8-2.5-3.2c-1.9-0.3-3,1-3.3,1.8
				c-0.3,0.9-0.1,1.8,0.3,2.3c0.4,0.4,1.4,0.9,2,0.5c0.5-0.3,0.9-1.3,0.2-1.9c-0.8-0.7-1.5-0.1-1.6,0.4c-0.2-0.2-0.3-1,0.2-1.6
				c0.8-0.8,1.9-0.4,2.4,0.2c1.4,1.8-0.2,4.1-0.6,5.1C43.5,25.1,44.7,27.6,45.7,28.4z"/>
			<path class="st1" d="M45.7,28.4c-0.1-0.7-0.9-2.8,0-5c0.5-1.2,2.1-3,2-4.8c-0.1-1.1-0.4-2.8-2.5-3.2c-1.9-0.3-3,1-3.3,1.8
				c-0.3,0.9-0.1,1.8,0.3,2.3c0.4,0.4,1.4,0.9,2,0.5c0.5-0.3,0.9-1.3,0.2-1.9c-0.8-0.7-1.5-0.1-1.6,0.4c-0.2-0.2-0.3-1,0.2-1.6
				c0.8-0.8,1.9-0.4,2.4,0.2c1.4,1.8-0.2,4.1-0.6,5.1C43.5,25.1,44.7,27.6,45.7,28.4z"/>
		</g>
		<g>
			<path class="st1" d="M45.3,64.2c-0.7-0.1-2.8-0.8-5,0.1c-1.2,0.5-3,2.1-4.7,2c-1.1-0.1-2.8-0.4-3.2-2.5c-0.3-1.9,1-3,1.7-3.3
				c0.9-0.3,1.8-0.1,2.3,0.3c0.4,0.4,0.9,1.4,0.5,2c-0.3,0.5-1.3,0.9-1.9,0.2c-0.7-0.8-0.2-1.5,0.4-1.6c-0.2-0.2-1.1-0.3-1.6,0.2
				c-0.8,0.8-0.4,2,0.2,2.4c1.8,1.4,4.1-0.2,5.1-0.7C42,62.1,44.5,63.2,45.3,64.2z"/>
			<path class="st1" d="M45.3,64.2c-0.7-0.1-2.8-0.8-5,0.1c-1.2,0.5-3,2.1-4.7,2c-1.1-0.1-2.8-0.4-3.2-2.5c-0.3-1.9,1-3,1.7-3.3
				c0.9-0.3,1.8-0.1,2.3,0.3c0.4,0.4,0.9,1.4,0.5,2c-0.3,0.5-1.3,0.9-1.9,0.2c-0.7-0.8-0.2-1.5,0.4-1.6c-0.2-0.2-1.1-0.3-1.6,0.2
				c-0.8,0.8-0.4,2,0.2,2.4c1.8,1.4,4.1-0.2,5.1-0.7C42,62.1,44.5,63.2,45.3,64.2z"/>
		</g>
		<g>
			<path class="st1" d="M46,63.9c-0.1-0.7-0.9-2.8-0.1-5c0.5-1.2,2.1-3,1.9-4.8c-0.1-1.1-0.5-2.8-2.5-3.1c-1.9-0.3-3,1-3.3,1.8
				c-0.3,0.9-0.1,1.8,0.4,2.3c0.4,0.4,1.4,0.8,2,0.4c0.5-0.3,0.9-1.4,0.2-1.9c-0.8-0.7-1.5-0.1-1.6,0.5c-0.2-0.2-0.4-1,0.2-1.6
				c0.7-0.8,1.9-0.5,2.4,0.2c1.4,1.7-0.1,4.1-0.5,5.1C43.8,60.6,45,63.1,46,63.9z"/>
			<path class="st1" d="M46,63.9c-0.1-0.7-0.9-2.8-0.1-5c0.5-1.2,2.1-3,1.9-4.8c-0.1-1.1-0.5-2.8-2.5-3.1c-1.9-0.3-3,1-3.3,1.8
				c-0.3,0.9-0.1,1.8,0.4,2.3c0.4,0.4,1.4,0.8,2,0.4c0.5-0.3,0.9-1.4,0.2-1.9c-0.8-0.7-1.5-0.1-1.6,0.5c-0.2-0.2-0.4-1,0.2-1.6
				c0.7-0.8,1.9-0.5,2.4,0.2c1.4,1.7-0.1,4.1-0.5,5.1C43.8,60.6,45,63.1,46,63.9z"/>
		</g>
		<path class="st1" d="M39,21.5c0,0-1.2,0.7-1.7,0.2c-0.1-0.1-0.3-0.4-0.4-0.5c-0.4-0.2-0.5,0.3-0.5,0.4c0.3,0.6,0.7,0.6,1,0.6
			c0.6,0,2.1-0.4,2.7-0.4c2.2,0.1,2.9-0.3,4.1-0.5c0.6-0.1,0.7,0.3,0.6,0.5c-0.1,0.2-0.2,0.5-0.9,0.6c-1.2,0.1-4.2,0.1-5,0.2
			c-0.2,0-0.1,0.2,0.1,0.2c1.2,0,4.7,0,4.7,0l-0.5,0.8c0,0-3.3-0.3-4.2-0.4c-0.2,0-0.3,0.2,0,0.2c1,0.2,3.7,0.5,3.7,0.5l-0.7,0.5
			c0,0-2.9-0.1-4.1-0.4c-0.9-0.3-1.8-1-2.1-1.5c-0.4-0.9-0.1-1.7,0.4-1.9c0.6-0.3,1.2,0,1.5,0.1C38.3,20.9,39,21.5,39,21.5z"/>
		<g>
			<path class="st1" d="M37.7,24.4c-0.7-0.2-2.2-0.9-2.4-1.8c-0.2-1.1,0.1-1.9,0.5-2.3c0.4-0.4,0.9-0.3,1.1-0.2
				c0.4,0.2,1.2,0.1,1.5-0.3c0.4-0.6,0.3-1.2,0.1-1.5c-0.3-0.3-0.9-0.6-1.4-0.6c-0.4,0-1.1,0.1-1.5-0.1c-2-1.4-2.9-1.4-2.9-1.4
				s1.9,1.8,2.2,2.3c0.2,0.5,0.4,1-0.1,1.7c-0.5,0.7-0.7,1.8-0.2,2.9c0.5,1.1,2.1,1.9,3.2,2.2c1.1,0.3,3,0.3,3,0.3l0.4-0.8
				C41.3,24.7,38.9,24.8,37.7,24.4z M37,18.3c0.3,0,0.5,0.2,0.5,0.5c0,0.3-0.2,0.5-0.5,0.5c-0.3,0-0.5-0.2-0.5-0.5
				C36.5,18.6,36.7,18.3,37,18.3z"/>
			<circle class="st1" cx="37" cy="18.9" r="0.3"/>
		</g>
		<path class="st1" d="M39.9,20.8c0,0-0.5-0.2-0.5-0.4c0-0.5,0.5-1,1-1c0.7,0,1,0.4,1,1.1c0,0.8-0.8,1.2-0.8,1.2s0.3-0.5,0.3-1.1
			c0-0.2-0.2-0.5-0.5-0.5C39.8,20.1,39.9,20.8,39.9,20.8z"/>
		<path class="st1" d="M38.1,17.3c-0.5,0-0.5-0.6,0-0.6c1,0,2.8,0.8,3.2,1.6c0.2,0.4-0.3,0.7-0.6,0.3C40.4,18.1,39.1,17.3,38.1,17.3
			z"/>
		<path class="st1" d="M34.8,16.5c0.2-0.2,0.9-0.7,1.2-0.9c0.1-0.1,0.2-0.3,0-0.5c-0.2-0.2-0.4-0.1-0.5,0c-0.1,0.1-0.2,0.2-0.2,0.3
			c-0.2,0.3-0.6,0.2-0.7,0.1c-0.1-0.1-0.2-0.3-0.3-0.4c-0.2-0.3,0-0.6,0.1-0.8c0.2-0.2,0.5-0.6,0.8-0.7c0.5-0.4,1,0,1.1,0.2
			c1.1-0.1,1,0.7,0.9,1.1c0.6,0.5,0.3,0.8-0.3,1.2c0.1,0.8-0.5,1-1,1c-0.3,0-0.7-0.2-0.7-0.2s0.9-0.6,1.2-0.9c0.3-0.3,0.4-0.6,0.3-1
			c-0.1-0.4-0.5-0.7-0.5-0.7s-0.6-0.4-1.1,0c-0.1,0.1-0.3,0.3-0.3,0.4C34.7,15,34.9,15.1,35,15c0.1-0.1,0.2-0.3,0.4-0.4
			c0.4-0.2,0.8,0.1,1,0.3c0.2,0.3,0.2,0.8-0.2,1.1c-0.3,0.2-0.8,0.6-1.1,0.8C34.9,17,34.6,16.7,34.8,16.5z"/>
		<path class="st1" d="M39.5,15c-0.8,0.1-1.9-0.1-1.9-1.3c0-1.6,2-2.1,2.9-2.1c2.7,0,4.4,3,4.4,3s-1.3-0.6-2.1-0.6
			C41.6,14,40.7,14.8,39.5,15z"/>
		<path class="st1" d="M32.5,21.7c0.4-0.7,0.5-1.9-0.6-2.2c-1.5-0.5-2.6,1.2-2.9,2.1c-0.9,2.6,1.3,5.2,1.3,5.2s-0.1-1.5,0.2-2.2
			C30.9,23.4,32,22.8,32.5,21.7z"/>
		<path class="st1" d="M45.9,41c-0.4-0.1-3.5-0.1-3.6-3.3c1.5-0.5,1-2.1,0.1-2.4c-0.9-0.3-2.3,0.2-2.4,1.8C39.9,38.6,41,40,42,40.6
			C43,41.2,44.2,41.4,45.9,41z"/>
		<path class="st1" d="M45.8,41.9c-0.4,0.1-3.5,0-3.6,3.2c1.5,0.5,1,2.1,0.1,2.4c-0.9,0.3-2.3-0.2-2.4-1.8c-0.1-1.4,0.9-2.9,1.9-3.4
			C43,41.7,44.1,41.5,45.8,41.9z"/>
		<path class="st1" d="M45.5,45.5c-1-1.6,0.5-2.7,1.6-1.8c1.2,0.9,1.5,2.5,3.7,2.5C48.2,47.6,46.2,46.7,45.5,45.5z"/>
		<path class="st1" d="M70,36.2c0,0.8,0.2,3.1,2.7,6c2.3-2.7,2.7-5,2.7-5.9c0-1-0.7-3.2-2.7-3.3C70.7,32.9,70,35.4,70,36.2z
			 M72.7,35.7c1.1,0,1.3,1,1.3,1.8c0,0.6-0.2,2.3-1.4,4.4c-1.2-1.9-1.4-3.7-1.4-4.4C71.2,36.8,71.6,35.7,72.7,35.7z"/>
		<path class="st1" d="M71,30.4c0,0,2.2-2.6,1.4-5c-0.4-1.4-1.7-2.2-2.5-2.2c-1.3,0-1.4,1.2-1.1,2c0.4,1,1.6,1.9,1.9,2.7
			C71.4,29.4,71,30.4,71,30.4z"/>
		<path class="st1" d="M74.5,14.6c0,0,1.7-2.9,4.3-3c1.4-0.1,2.7,0.8,2.9,1.6c0.4,1.2-0.6,1.8-1.5,1.7c-1.1,0-2.3-0.8-3.2-0.9
			C75.4,13.9,74.5,14.6,74.5,14.6z"/>
		<path class="st1" d="M88.1,27.8c0,0,2.9-1.7,3-4.3c0.1-1.4-0.8-2.7-1.6-2.9c-1.2-0.4-1.8,0.6-1.7,1.5c0,1.1,0.8,2.3,0.9,3.2
			C88.7,27,88.1,27.8,88.1,27.8z"/>
		<path class="st1" d="M72,31.4c0,0,2.6-2.1,5.1-1.3c1.3,0.4,2.2,1.7,2.2,2.5c0,1.3-1.2,1.4-2,1.1c-1-0.4-1.9-1.6-2.7-2
			C73.1,31.1,72,31.4,72,31.4z"/>
		<g>
			<path class="st1" d="M74.5,28.7c0.7-0.1,2.8-0.9,5.1,0c1.2,0.5,3,2.1,4.8,2c1.1-0.1,2.8-0.5,3.2-2.5c0.3-1.9-1-3-1.8-3.3
				c-0.9-0.3-1.8-0.1-2.3,0.4c-0.4,0.4-0.9,1.4-0.4,2c0.3,0.5,1.4,0.9,1.9,0.2c0.7-0.8,0.1-1.5-0.5-1.6c0.2-0.2,1-0.4,1.6,0.2
				c0.8,0.7,0.4,1.9-0.2,2.4c-1.8,1.4-4.1-0.1-5.1-0.6C77.8,26.6,75.3,27.7,74.5,28.7z"/>
			<path class="st1" d="M74.5,28.7c0.7-0.1,2.8-0.9,5.1,0c1.2,0.5,3,2.1,4.8,2c1.1-0.1,2.8-0.5,3.2-2.5c0.3-1.9-1-3-1.8-3.3
				c-0.9-0.3-1.8-0.1-2.3,0.4c-0.4,0.4-0.9,1.4-0.4,2c0.3,0.5,1.4,0.9,1.9,0.2c0.7-0.8,0.1-1.5-0.5-1.6c0.2-0.2,1-0.4,1.6,0.2
				c0.8,0.7,0.4,1.9-0.2,2.4c-1.8,1.4-4.1-0.1-5.1-0.6C77.8,26.6,75.3,27.7,74.5,28.7z"/>
		</g>
		<g>
			<path class="st1" d="M73.8,28.4c0.1-0.7,0.9-2.8,0-5c-0.5-1.2-2.1-3-2-4.8c0.1-1.1,0.4-2.8,2.5-3.2c1.9-0.3,3,1,3.3,1.8
				c0.3,0.9,0.1,1.8-0.3,2.3c-0.4,0.4-1.4,0.9-2,0.5c-0.5-0.3-0.9-1.3-0.2-1.9c0.8-0.7,1.5-0.1,1.6,0.4c0.2-0.2,0.3-1-0.2-1.6
				c-0.8-0.8-1.9-0.4-2.4,0.2c-1.4,1.8,0.2,4.1,0.6,5.1C75.9,25.1,74.8,27.6,73.8,28.4z"/>
			<path class="st1" d="M73.8,28.4c0.1-0.7,0.9-2.8,0-5c-0.5-1.2-2.1-3-2-4.8c0.1-1.1,0.4-2.8,2.5-3.2c1.9-0.3,3,1,3.3,1.8
				c0.3,0.9,0.1,1.8-0.3,2.3c-0.4,0.4-1.4,0.9-2,0.5c-0.5-0.3-0.9-1.3-0.2-1.9c0.8-0.7,1.5-0.1,1.6,0.4c0.2-0.2,0.3-1-0.2-1.6
				c-0.8-0.8-1.9-0.4-2.4,0.2c-1.4,1.8,0.2,4.1,0.6,5.1C75.9,25.1,74.8,27.6,73.8,28.4z"/>
		</g>
		<path class="st1" d="M74.8,41c0.4-0.1,3.5-0.1,3.6-3.3c-1.5-0.5-1-2.1-0.1-2.4c0.9-0.3,2.3,0.2,2.4,1.8c0.1,1.4-0.9,2.9-1.9,3.4
			C77.7,41.2,76.6,41.4,74.8,41z"/>
		<path class="st1" d="M74.9,41.9c0.4,0.1,3.5,0,3.6,3.2c-1.5,0.5-1,2.1-0.1,2.4c0.9,0.3,2.3-0.2,2.4-1.8c0.1-1.4-0.9-2.9-1.9-3.4
			C77.8,41.7,76.6,41.5,74.9,41.9z"/>
		<path class="st1" d="M74.8,45.5c1-1.6-0.5-2.7-1.6-1.8c-1.2,0.9-1.5,2.5-3.7,2.5C72.1,47.6,74.1,46.7,74.8,45.5z"/>
		<path class="st1" d="M41.1,54.3c-1.4-0.1-4-2.2-2.2-4.9c1.7-2.7,4.9-1,5.3,0c-0.6-0.1-2.5-0.5-3.5,1
			C39.4,52.4,40.7,53.9,41.1,54.3z"/>
		<path class="st1" d="M77.4,54c-0.8-1.6,0-4.9,3.3-4.7c3.2,0.1,3.6,3.5,2.9,4.7c-0.2-0.6-1-2.4-2.8-2.4
			C78.4,51.4,77.6,53.4,77.4,54z"/>
		<path class="st1" d="M30.2,61.8c-1-0.9-2-4,1-5.3c3-1.2,4.6,2,4.4,3.1c-0.4-0.4-1.8-1.9-3.4-1.2C29.9,59.3,30.1,61.2,30.2,61.8z"
			/>
		<path class="st1" d="M34.8,50.8c-2,1.6-4.2,2-5.7,1.9c-1.5-0.1-3.8-1.1-4.1-2.8c-0.1-0.7,0.2-2.2,1.4-2.6c-0.4,0.3-0.7,1-0.2,1.6
			c0.4,0.6,1.6,0.5,2,0c0.5-0.5,0.4-1.5,0.1-1.8c-0.3-0.5-1.2-1.1-2.3-0.9c-1.4,0.3-2.1,1.4-2.3,2.4c-0.2,1-0.1,2.7,1.3,3.8
			c1,0.8,2.5,1.7,4.7,1.5C31.4,53.8,34.1,52.2,34.8,50.8z"/>
		<path class="st1" d="M58.2,76.7c-1.9,1.2-4.9,0.9-6.4,0.1c-1.2-0.6-3.1-1.9-3.1-3.5c0-0.7,0.5-1.6,1.6-1.7
			c-0.4,0.2-0.7,0.8-0.4,1.4c0.3,0.6,1.1,0.7,1.7,0.3c0.6-0.3,0.7-1,0.6-1.5c-0.1-0.7-1-1.4-1.9-1.4c-1.3-0.1-2.4,0.7-2.8,1.5
			c-0.4,0.8-0.5,2.4,0.4,3.7c0.7,0.9,2.1,2,3.9,2.6C53.5,78.7,55.9,78.7,58.2,76.7z"/>
		<path class="st1" d="M65.9,76.7c1.9,1.2,4.9,0.9,6.4,0.1c1.2-0.6,3.1-1.9,3.1-3.5c0-0.7-0.5-1.6-1.6-1.7c0.4,0.2,0.7,0.8,0.4,1.4
			c-0.3,0.6-1.1,0.7-1.7,0.3c-0.6-0.3-0.7-1-0.6-1.5c0.1-0.7,1-1.4,1.9-1.4c1.3-0.1,2.4,0.7,2.8,1.5c0.4,0.8,0.5,2.4-0.4,3.7
			c-0.7,0.9-2.1,2-3.9,2.6C70.6,78.7,68.2,78.7,65.9,76.7z"/>
		<path class="st1" d="M71.5,66.3c-0.5-0.7-1.8-1.5-3.4-1.3c-1.1,0.2-2.7,0.9-4,2.2c-1.1,1.2-2.1,3.1-1.7,5.7c-0.1,0-0.3,0-0.4,0
			c-2,0.1-2.7,2.3-2.7,3.3c0,0.9,0.4,3.2,2.7,5.9c2.5-2.9,2.7-5.2,2.7-6c0-0.7-0.6-2.8-2.1-3.1c0.1-2.1,1.5-4.3,2.8-5.2
			c1.1-0.8,3.1-1.8,4.5-1.1c0.6,0.3,1.2,1.2,0.8,2.2c0-0.4-0.4-1-1-1c-0.6,0-1.1,0.7-1.1,1.4c0,0.6,0.5,1.1,1,1.2
			c0.7,0.2,1.6-0.2,2.1-1.1C72.3,68.3,72.1,67,71.5,66.3z M63.4,77.4c0,0.7-0.2,2.5-1.4,4.4c-1.1-2.1-1.4-3.7-1.4-4.4
			c0-0.7,0.3-1.7,1.3-1.8C63.1,75.6,63.4,76.8,63.4,77.4z"/>
		<path class="st1" d="M86.1,51.3c1.7,1.6,4.7,1.8,6.3,1.6c1.4-0.2,3.2-1.2,3.5-2.8c0.1-0.7-0.2-2.1-1.3-2.4c0.4,0.3,0.5,1,0.1,1.5
			c-0.4,0.5-1.2,0.5-1.8,0c-0.5-0.4-0.5-1.1-0.3-1.7c0.2-0.7,1.2-1.2,2.1-1.1c1.3,0.2,2.2,1.2,2.5,2.1c0.3,0.9,0.2,2.7-0.9,3.8
			c-0.8,0.8-2.2,1.6-4.1,1.8C90.5,54.4,88,53.8,86.1,51.3z"/>
		<path class="st1" d="M86.2,30.9c1.7-1.6,4.7-1.8,6.3-1.6c1.4,0.2,3.2,1.2,3.5,2.8c0.1,0.7-0.2,2.1-1.3,2.4c0.4-0.3,0.5-1,0.1-1.5
			c-0.4-0.5-1.2-0.5-1.8,0c-0.5,0.4-0.5,1.1-0.3,1.7c0.2,0.7,1.2,1.2,2.1,1.1c1.3-0.2,2.2-1.2,2.5-2.1c0.3-0.9,0.2-2.7-0.9-3.8
			c-0.8-0.8-2.2-1.6-4.1-1.8C90.5,27.8,88.1,28.4,86.2,30.9z"/>
		<path class="st1" d="M34.8,33.2c-2-1.6-4.2-2-5.7-1.9c-1.5,0.1-3.8,1.1-4.1,2.8c-0.1,0.7,0.2,2.2,1.4,2.6
			c-0.4-0.3-0.7-1.1-0.2-1.6c0.4-0.6,1.6-0.5,2,0c0.5,0.5,0.4,1.5,0.1,1.8c-0.3,0.5-1.2,1.1-2.3,0.9c-1.4-0.3-2.1-1.4-2.3-2.4
			c-0.2-1-0.1-2.7,1.3-3.8c1-0.8,2.5-1.7,4.7-1.5C31.4,30.2,34.1,31.8,34.8,33.2z"/>
		<path class="st1" d="M27.7,40.7c-0.6-0.4-0.3-1.3,0.3-1.7c1-0.5,2.1-0.4,2.6-0.1c0.5,0.3,0.8,0.8,0.7,1.5c0,0.4-0.2,0.9-0.9,1.4
			c-0.4,0.3-1.1,0.6-1.8,0.6c-0.8,0-0.9-0.5-0.8-0.8C28,41.1,27.9,40.8,27.7,40.7z"/>
		<path class="st1" d="M38.9,40.7c0.6-0.4,0.3-1.3-0.3-1.7c-1-0.5-2.1-0.4-2.6-0.1c-0.5,0.3-0.8,0.8-0.7,1.5c0,0.4,0.2,0.9,0.9,1.4
			c0.4,0.3,1.1,0.6,1.8,0.6c0.8,0,0.9-0.5,0.8-0.8C38.6,41.1,38.7,40.8,38.9,40.7z"/>
		<g>
			<path class="st1" d="M34.6,36.6c0.2,0.3,0.3,0.9-0.4,1c-0.8,0.1-1-1.6-1-1.9c0-0.3,0.2-2,1-1.9c0.6,0.1,0.6,0.8,0.4,1
				c0.4-0.1,0.7-0.8,0.2-1.3c-0.2-0.3-0.7-0.4-1.1-0.1c-0.4,0.2-0.5,0.8-0.5,1.3c0-0.5-0.2-1.1-0.5-1.3c-0.4-0.2-0.8-0.1-1.1,0.1
				c-0.5,0.5-0.2,1.1,0.2,1.3c-0.2-0.3-0.3-0.9,0.4-1c0.8-0.1,1,1.6,1,1.9c0,0.3-0.2,2-1,1.9c-0.6-0.1-0.6-0.8-0.4-1
				c-0.4,0.1-0.7,0.8-0.2,1.3c0.2,0.3,0.7,0.4,1.1,0.1c0.4-0.2,0.5-0.8,0.5-1.3c0,0.5,0.2,1.1,0.5,1.3c0.4,0.2,0.8,0.1,1.1-0.1
				C35.2,37.4,34.9,36.8,34.6,36.6z M33.2,35.8C33.2,35.8,33.2,35.8,33.2,35.8C33.2,35.8,33.2,35.8,33.2,35.8z"/>
			<path class="st1" d="M32,36.6c0.1,0.2,0.4,0.3,0.6,0.2c0.3-0.2,0.4-0.7,0.5-0.9c0,0,0-0.1,0-0.1c0-0.2-0.2-0.8-0.5-0.9
				c-0.2-0.1-0.5,0-0.5,0.2c-0.2,0.4,0.2,0.8,0.2,0.8s-0.1-0.6,0.2-0.6c0.5-0.1,0.6,0.6,0.6,0.6s-0.2,0.7-0.6,0.7
				c-0.4,0-0.2-0.6-0.2-0.6S31.8,36.2,32,36.6z"/>
			<path class="st1" d="M34.4,35c-0.1-0.3-0.4-0.3-0.5-0.2c-0.3,0.2-0.5,0.7-0.5,0.9c0,0,0,0.1,0,0.1c0.1,0.2,0.1,0.7,0.5,0.9
				c0.3,0.1,0.5,0,0.6-0.2c0.2-0.4-0.2-0.7-0.2-0.7s0.2,0.6-0.2,0.6c-0.4,0-0.6-0.7-0.6-0.7s0.2-0.7,0.6-0.6c0.3,0,0.2,0.6,0.2,0.6
				S34.5,35.5,34.4,35z"/>
		</g>
		<path class="st1" d="M31.8,43c0-0.7,0.4-2.3,0.9-2.8c0.3-0.3,0.9-0.3,1.1,0c0.5,0.6,0.9,2,1,2.7c0,0.3,0.1,0.8,0,1
			c-0.1,0.2-0.2,0.6-0.6,0.6c-0.5,0-0.6-0.4-0.6-0.6c-0.1-0.3,0.2-1,0.1-1.3c0-0.2-0.3-0.4-0.3-0.6c0-0.1,0.2-0.4,0.2-0.5
			c0-0.1,0-0.2-0.2-0.2c-0.2,0-0.3,0.1-0.3,0.2c0,0.1,0.1,0.4,0.1,0.5c0,0.2-0.2,0.5-0.2,0.6c0,0.3,0.2,1,0.1,1.3
			c-0.1,0.2,0,0.6-0.6,0.6c-0.4,0-0.5-0.5-0.6-0.7C31.8,43.6,31.8,43.2,31.8,43z"/>
		<polygon class="st1" points="29.7,46.7 29.9,46.4 30,46.4 29.9,46.8 		"/>
		<polygon class="st1" points="30.1,46.5 30.2,46.5 30.3,46.4 30.3,47 30.1,46.9 		"/>
		<polygon class="st1" points="30.4,47.1 30.4,46.5 30.6,46.6 30.7,46.4 30.7,47.2 30.5,47.2 		"/>
		<polygon class="st1" points="30.9,46.2 30.8,47.3 31,47.3 31,47.4 31.3,47.4 31.4,46.6 31.3,46.5 31.2,46.3 		"/>
		<polygon class="st1" points="31.6,46.4 31.6,46.9 31.5,47.4 31.7,47.5 32.1,47.5 32.2,46.7 31.9,46.3 		"/>
		<polygon class="st1" points="32.3,46.4 32.7,46.2 32.9,46.2 33.1,46.5 33.3,47.3 33.2,47.5 32.3,47.4 32.3,46.7 		"/>
		<polygon class="st1" points="33.6,46.3 33.4,47.3 33.5,47.5 34.4,47.4 34.3,46.7 34.4,46.5 34.3,46.3 33.9,46.2 		"/>
		<polygon class="st1" points="34.7,46.4 34.4,46.7 34.6,47.5 35.2,47.4 35.1,46.7 35.1,46.4 		"/>
		<polygon class="st1" points="35.5,46.2 35.2,46.6 35.3,47.4 35.8,47.3 35.8,46.3 		"/>
		<polygon class="st1" points="35.9,46.3 35.9,47.1 36.1,47.2 36.2,47.1 36.2,46.5 36,46.7 		"/>
		<polygon class="st1" points="36.3,46.5 36.4,47 36.6,46.9 36.6,46.4 36.4,46.6 		"/>
		<polygon class="st1" points="36.7,46.4 36.7,46.9 36.8,46.9 36.9,46.6 36.8,46.4 		"/>
		<polygon class="st1" points="29.7,46.9 29.6,47.5 29.8,47.6 29.9,47 29.9,46.9 		"/>
		<polygon class="st1" points="30,47.1 29.9,47.7 29.7,47.7 29.7,47.9 30.1,48.2 30.2,47.2 		"/>
		<polygon class="st1" points="30.3,47.4 30.4,47.3 30.7,47.5 30.5,48.5 30.2,48.3 		"/>
		<polygon class="st1" points="30.8,47.6 30.6,48.5 30.8,48.6 30.8,48.8 31.2,48.8 31.2,47.5 		"/>
		<polygon class="st1" points="31.3,47.9 31.6,47.7 32.1,47.7 32,48.7 31.9,48.9 31.5,48.9 31.3,48.7 		"/>
		<polygon class="st1" points="32.2,47.9 32.4,47.8 32.8,47.7 32.9,47.9 32.9,48.8 32.7,48.9 32.2,48.9 		"/>
		<polygon class="st1" points="33,47.9 33.4,47.8 33.6,48 33.7,48.7 33.3,48.8 33,48.7 		"/>
		<polygon class="st1" points="33.8,47.7 33.8,48.7 34,48.9 34.5,48.9 34.5,48.6 34.4,47.9 34.2,47.8 		"/>
		<polygon class="st1" points="34.6,47.7 34.6,48.7 34.8,48.9 35.2,48.9 35.3,48.7 35.3,47.9 35,47.7 		"/>
		<polygon class="st1" points="35.5,47.5 35.5,48 35.5,48.8 35.7,48.8 35.9,48.5 36.1,48.5 35.8,47.6 		"/>
		<polygon class="st1" points="36.1,47.3 36,47.6 36.2,48.6 36.3,48.5 36.4,48.3 36.3,47.3 		"/>
		<polygon class="st1" points="36.5,47.1 36.5,48.1 36.8,48.1 36.9,47.9 36.9,47.7 36.8,47.6 36.6,47.1 		"/>
		<path class="st1" d="M36.8,46.9c0,0,0,0.3,0,0.3l0.1,0.2l0.1,0l-0.1-0.6L36.8,46.9z"/>
		<path class="st1" d="M43.2,62c-3.4,0.8-5.3-1.9-5.8-3.6c-1-3.2-1.1-3.5-1.5-4.2c0.6,0.5,1.9,0.8,4.6,1.7c1.6,0.5,3.9,2.1,3.2,5.7
			c-1.1-2.6-4.5-4-4.5-4S40.9,61,43.2,62z"/>
		<path class="st1" d="M49,67.7c-1-0.8-2.2-2.2-5.5-2.2c-2.7,0.1-3.9,1.5-5.4,1.7c0.8,0.4,2,1.1,3.7,1.1
			C44.7,68.3,46.7,66.8,49,67.7z"/>
		<path class="st1" d="M49.2,67.3c-0.8-1-2.3-2.1-2.2-5.4c0-2.7,1.5-4,1.7-5.4c0.4,0.8,1.1,2,1.1,3.7C49.7,63,48.3,65.1,49.2,67.3z"
			/>
		<path class="st1" d="M49.3,68.8c0,0-2.6-1.2-3.8,0.2c-0.4,0.4-0.6,1.5,0.3,1.7c0.8,0.1,1.1-0.5,1.7-1.1
			C48.3,68.7,49.3,68.8,49.3,68.8z"/>
		<path class="st1" d="M50.4,67.8c0,0-1.2-2.5,0.1-3.8c0.4-0.4,1.5-0.6,1.7,0.3c0.2,0.8-0.4,1.1-1.1,1.7
			C50.3,66.8,50.4,67.8,50.4,67.8z"/>
		<path class="st1" d="M76.1,70.1c0,0,2.6-1.1,3.8,0.3c0.4,0.4,0.6,1.5-0.4,1.6c-0.8,0.1-1.1-0.5-1.7-1.2
			C77.1,70,76.1,70.1,76.1,70.1z"/>
		<path class="st1" d="M53.7,49c-0.8-0.4-2.5,0-3.3,0.8c-1,1.1-1.3,2.8-0.5,4.4c0.7,1.3,2.6,2.3,4,3.1c1.2,0.7,1.1,1.9,0.4,2.6
			c-0.3,0.3-1.1,0.4-1.6,0.2c-0.4-0.2-0.8-0.7-0.6-1.4c0.1,0.4,0.6,0.6,0.8,0.6c0.5,0,0.8-0.6,0.7-1c0-0.6-0.4-1-0.9-1
			c-0.5-0.1-1.2,0.4-1.4,0.9c-0.3,0.7-0.2,1.6,0.5,2.2c0.7,0.6,1.7,0.7,2.6,0.4c1-0.4,1.5-1.5,1.4-2.4c0-1.5-0.9-2.1-2-2.7
			c-1.1-0.6-2.4-1.5-2.5-2.7c-0.1-1.4,0.3-2.2,0.8-2.9C52.6,49.7,53.3,49.2,53.7,49z"/>
		<path class="st1" d="M69.9,49c0.8-0.4,2.5,0,3.3,0.8c1,1.1,1.3,2.8,0.5,4.4c-0.7,1.3-2.6,2.3-4,3.1c-1.2,0.7-1.1,1.9-0.4,2.6
			c0.3,0.3,1.1,0.4,1.6,0.2c0.4-0.2,0.8-0.7,0.6-1.4c-0.1,0.4-0.6,0.6-0.8,0.6c-0.5,0-0.8-0.6-0.7-1c0-0.6,0.4-1,0.9-1
			c0.5-0.1,1.2,0.4,1.4,0.9c0.3,0.7,0.2,1.6-0.5,2.2c-0.6,0.6-1.7,0.7-2.6,0.4c-1-0.4-1.5-1.5-1.4-2.4c0-1.5,0.9-2.1,2-2.7
			c1.1-0.6,2.4-1.5,2.5-2.7c0.1-1.4-0.3-2.2-0.8-2.9C71,49.7,70.3,49.2,69.9,49z"/>
		<path class="st1" d="M62.4,65.1c-0.2-0.4-0.6-0.3-0.7-0.2c-0.9,0.5-3,1.8-4,2.4c-0.1-0.1-0.3-0.4-0.3-0.4l0.3-0.6l-0.4-0.2
			l0.1-0.5l-0.2-0.1l0-0.2l-0.2-0.1c0.1-0.3,0.5-1.2,0.7-1.7c0.1-0.3,0.3-0.3,0.6-0.3c0.1,0,0.3,0.1,0.3,0.3c0,0.1,0,0.2-0.1,0.3
			c-0.1,0.1-0.1,0.1-0.2,0.1c-0.1,0-0.1-0.1-0.1-0.1c0-0.1-0.1-0.1-0.2,0c-0.1,0-0.1,0.1,0,0.2c0.1,0.1,0.2,0.2,0.3,0.2
			c0.1,0,0.2,0,0.4-0.1c0.2-0.1,0.2-0.4,0.2-0.5c-0.1-0.3-0.3-0.5-0.6-0.5c-0.1,0-0.6-0.1-0.8,0.5c-0.2,0.4-0.6,1.4-0.7,1.7
			l-0.9-0.4c0.1-0.2,0.5-1.2,0.7-1.7c0.2-0.5-0.1-0.8-0.3-0.9c-0.2-0.1-0.5-0.2-0.8,0c-0.2,0.1-0.3,0.3-0.3,0.5
			c0,0.2,0.1,0.3,0.2,0.4c0.1,0.1,0.2,0.1,0.4,0.1c0.1,0,0.1-0.1,0.1-0.2c0-0.1-0.1-0.1-0.2-0.1c-0.1,0-0.1,0-0.2,0
			c-0.1,0-0.1-0.1-0.1-0.2c0-0.1,0.1-0.2,0.1-0.3c0.1-0.1,0.4-0.1,0.5,0c0.2,0.2,0.3,0.3,0.2,0.6c-0.2,0.5-0.6,1.4-0.7,1.7l-0.3-0.1
			l-0.1,0.2l-0.3-0.1L54.6,65l-0.4-0.1L54,65.5c0,0,0.4,0.2,0.7,0.3c-0.2,0.1-0.7,0.1-1.1,0.4c-0.2,0.1-0.3,0.6-0.2,0.7
			c0.2,0.3,0.6,0.2,0.8,0.1c0.3-0.2,0.6-0.1,0.8-0.2c0.2-0.6,0.3-0.7,0.6-0.6c0.1,0,0.5,0.2,0.6,0.3c0.2,0.2,0.1,0.3-0.1,0.7
			c0.3,0.2,0.6,0.4,0.8,0.7c0.2,0.4,0.3,1,0.2,1.4c0.2,0.1,0.4,0.1,0.3,0.5c0,0.1-0.2,0.4-0.2,0.5c-0.1,0.3-0.4,0.1-0.5,0.1
			c-0.3,0.4-1,0.9-1.9,0.8c-0.8-0.1-1.2-0.5-1.5-0.9c-0.2-0.5-0.2-1,0.2-1.4c0.1-0.1,0.6-0.3,0.8-0.1C54.1,68.7,54,69,54,69.2
			c0,0.2,0.3,0.5,0.7,0.5c0.6-0.1,0.8-0.5,0.8-1c-0.1-0.7-0.8-1-1.4-1.1c-0.8,0-1.4,0.4-1.8,0.9c-0.2-0.1-0.4-0.2-0.5,0.1
			c-0.1,0.1-0.1,0.3-0.2,0.5c-0.1,0.2,0.1,0.4,0.4,0.5c0,0.3,0,0.7,0.3,1c0.2,0.3,0.5,0.7,0.7,0.9c-0.1,0.2-0.3,0.6-0.1,0.7
			c0.1,0.1,0.4,0.2,0.6,0.3c0.3,0.1,0.4-0.3,0.5-0.6c0.2,0.2,0.6,0.2,0.9,0.2c0.5,0,0.7-0.1,1-0.1c0.3,1.2,0.7,3.2,1,4.3
			c0,0.2,0.3,0.4,0.6,0.3c0.4-0.1,0.4-0.4,0.3-0.5c-0.3-1-1.1-2.9-1.5-4.2c0.1-0.1,0.2-0.1,0.3-0.2c0.1,0,0.3,0.1,0.3,0.1l0.3-0.4
			l0.4,0.2l0.2-0.3l0.1,0.1l0.1-0.2c0.2,0.1,1.3,0.5,1.7,0.7C60,72,60,72.2,60,72.4c0,0.1-0.1,0.3-0.3,0.3c-0.1,0-0.2,0-0.3-0.1
			c-0.1-0.1-0.1-0.1-0.1-0.2c0-0.1,0.1-0.1,0.1-0.1c0.1,0,0.1-0.1,0-0.2c0-0.1-0.1-0.1-0.2,0c-0.1,0.1-0.2,0.2-0.2,0.3
			c0,0.1,0,0.2,0.1,0.4c0.1,0.2,0.4,0.2,0.6,0.2c0.3-0.1,0.5-0.3,0.5-0.6c0-0.1,0.1-0.6-0.5-0.8c-0.5-0.2-1.5-0.6-1.7-0.7l0.4-0.9
			c0.2,0.1,1.2,0.5,1.7,0.7c0.6,0.2,0.8-0.2,0.9-0.3c0.1-0.2,0.2-0.5,0-0.8c-0.1-0.2-0.3-0.3-0.5-0.2c-0.2,0-0.3,0.1-0.4,0.2
			c-0.1,0.1-0.1,0.2-0.1,0.4c0,0.1,0.1,0.1,0.2,0.1c0.1,0,0.1-0.1,0.1-0.2c0-0.1,0-0.1,0-0.2c0-0.1,0.1-0.1,0.2-0.1
			c0.1,0,0.2,0,0.3,0.1c0.1,0.1,0.1,0.4,0,0.5c-0.2,0.2-0.3,0.3-0.6,0.2c-0.5-0.2-1.5-0.6-1.7-0.7l0.2-0.3l-0.1-0.1l0.1-0.2
			l-0.4-0.2l0.1-0.4c0,0-0.1-0.1-0.3-0.1c0-0.3,0-0.5-0.2-0.8c0.9-0.5,3.2-1.3,4.1-1.8C62.4,65.7,62.6,65.5,62.4,65.1z"/>
		<circle class="st1" cx="67.6" cy="73.5" r="2"/>
		<polygon class="st1" points="54.8,55.2 54.8,47.7 63.1,47.7 62.5,48.2 63.1,48.7 62.5,49.2 63.1,49.7 62.5,50.2 63.1,50.6 
			62.5,51.1 63.1,51.6 62.5,52 63.1,52.5 62.5,53 63.1,53.5 62.5,53.9 63.1,54.2 67.9,54.2 67.9,50.1 64.9,50.1 64.9,52.4 
			66.1,52.4 66.1,51.3 66.9,51.3 66.9,53.2 64,53.2 64,47.8 64.5,48.6 65,47.7 65.5,48.6 66,47.7 66.5,48.6 66.9,47.7 67.5,48.6 
			67.9,47.8 68.5,48.6 68.9,47.7 68.9,55.2 60.6,55.2 61.2,54.7 60.6,54.2 61.2,53.7 60.6,53.3 61.2,52.8 60.6,52.3 61.2,51.8 
			60.6,51.4 61.2,50.9 60.6,50.4 61.2,49.9 60.6,49.4 61.2,48.9 60.5,48.7 55.8,48.7 55.8,52.8 58.8,52.8 58.8,50.5 57.6,50.5 
			57.6,51.7 56.8,51.7 56.8,49.7 59.6,49.7 59.6,55.1 59.2,54.3 58.7,55.2 58.2,54.3 57.7,55.2 57.2,54.3 56.8,55.2 56.2,54.3 
			55.8,55.2 55.2,54.2 		"/>
		<path class="st1" d="M84.7,61.1c-0.1-0.4-0.5-2.3,0.9-3.4c1.9-1.5,4.1-1.3,5-2.2c-1,1.1-2.5,2.5-2.5,2.5S85.6,59.2,84.7,61.1z"/>
		<path class="st1" d="M85.2,61.7c0.4,0.1,2.3,0.5,3.4-0.9c1.5-1.9,1.4-4.1,2.3-4.9c-1.1,1-2.6,2.5-2.6,2.5S87.1,60.9,85.2,61.7z"/>
		<rect x="79.3" y="58.1" class="st1" width="0" height="0"/>
		<g>
			<rect x="80.3" y="59.1" class="st1" width="0.4" height="0.1"/>
			<rect x="80.1" y="58.5" class="st1" width="0.3" height="0.1"/>
			<rect x="80.7" y="58.5" class="st1" width="0.3" height="0.1"/>
			<path class="st1" d="M80.6,56c0.4,0,0.8,0.2,1,0.5c0.3,0.4,0.3,0.8,0.4,1h0.2c0-1-0.7-1.8-1.6-1.8c-0.9,0-1.6,0.8-1.6,1.8h0.3
				c0-0.1,0.1-0.7,0.4-1.1C79.9,56.1,80.2,56,80.6,56z"/>
			<path class="st1" d="M80.6,56.6c-0.9,0-1.1,0.8-1.1,0.8h0v0.3h1h0.3h1v-0.3C81.7,57.4,81.5,56.6,80.6,56.6z"/>
			<path class="st1" d="M80.6,55.4c1,0,1.8,0.9,1.8,2h0.5c0-0.1,0-0.1,0-0.2c0-1.3-1-2.3-2.3-2.3s-2.3,1-2.3,2.3c0,0.1,0,0.1,0,0.2
				h0.5C78.8,56.3,79.6,55.4,80.6,55.4z"/>
			<path class="st1" d="M93,63.8c-0.2-0.8-0.7-1.4-1.5-1.6c-0.7-0.2-1.5,0-1.9,0.5c-0.3,0.4-0.4,1.1-0.1,1.5
				c0.3,0.4,0.8,0.5,1.2,0.3c0.3-0.2,0.6-0.6,0.4-1c-0.1-0.2-0.4-0.5-0.8-0.4c0.5-0.3,1.1-0.3,1.4,0c0.4,0.3,0.6,0.9,0.5,1.2
				c-0.2,0.8-1.4,1.6-3,1c-1.4-0.6-2.7-1.2-4-1.2c0,0,0,0,0,0c-0.3-0.5-0.6-0.9-0.8-1.1c0.1-0.1,0.1-0.5,0.1-0.5l-1.4-2l0-1.3
				c0.4-0.6,0.7-1.1,0.7-1.9c0-0.5-0.1-1.1-0.4-1.5l-0.1,0.4l-0.4-0.1l0.1-0.4l0.4,0.1c-0.2-0.4-0.4-0.7-0.7-1l0,0.5l-0.5,0l0-0.5
				l0.5,0c-0.6-0.5-1.3-0.8-2.1-0.8c-1.8,0-3.2,1.5-3.2,3.3c0,0.7,0.2,1.4,0.6,2v1.2l-1.4,2c0,0,0.1,0.4,0.3,0.5
				c-0.9,1-3.2,5.1-3.2,5.1h13.8c0,0-0.9-1.7-1.7-3.2c1,0.1,2.1,0.7,2.9,1.2c1,0.6,1.8,0.9,3,0.4C92.4,66.3,93.3,65.1,93,63.8z
				 M83.4,56.6l0.3,0.3l-0.3,0.3l-0.3-0.3L83.4,56.6z M81.7,54.2l0.2,0.4l-0.4,0.3l-0.2-0.4L81.7,54.2z M80.5,54l0.3,0.3l-0.3,0.3
				l-0.3-0.3L80.5,54z M79.3,54.3l0.4,0.2l-0.2,0.4l-0.4-0.2L79.3,54.3z M78.3,55h0.5v0.5h-0.5V55z M78.1,55.8l0.2,0.4l-0.4,0.2
				L77.7,56L78.1,55.8z M77.4,57.2l0.3-0.4l0.4,0.3l-0.3,0.4L77.4,57.2z M78,57.8v-0.4h0.1c0-0.1,0-0.1,0-0.2c0-1.4,1.1-2.5,2.5-2.5
				c1.4,0,2.5,1.1,2.5,2.5c0,0.1,0,0.1,0,0.2h0.1v0.4H82c0,0,0,0.1,0,0.1c0,0.1,0.8,0.5,0.8,1.3c0,0.2,0,0.9,0,0.9s-0.1,0-0.1,0
				c0-1.3,0-1.4-0.6-1.9c-0.1,0-0.1,0-0.2,0c0.7,0.4,0.7,1.6,0.7,1.6s-0.3-0.5-0.9-0.6c0.3-0.7-0.1-1-0.1-1l-0.2,0l-0.2,0
				c0.2,0.1,0.3,0.3,0.3,0.6c0,0.4-0.3,0.7-0.6,0.8v3.8h-0.2v-3.8c-0.3,0-0.6-0.4-0.6-0.8c0-0.2,0.1-0.4,0.2-0.5l0,0l-0.2,0
				c0,0-0.4,0.4-0.1,1c-0.6,0.1-0.9,0.6-0.9,0.6s0-1.3,0.7-1.6c-0.1,0-0.1,0-0.2,0c-0.6,0.5-0.6,0.6-0.6,1.9c-0.1,0-0.1,0-0.1,0
				s0-0.7,0-0.9c0-0.8,0.8-1.2,0.8-1.3c0,0,0-0.1,0-0.1H78z M76.8,62.8c0,0-0.2-0.2-0.1-0.4c0.3-0.4,1.3-2.1,2.3-2.6
				c0-0.4,0.7-0.5,0.7-0.5L76.8,62.8z M81.7,63l-0.4,1.2v1.4h-1.7v-1.5l-0.3-1.2l0-2.9l0.4-0.6V63l0.6,0.5v1.2h0.3v-1.2l0.5-0.6
				v-3.5l0.5,0.5V63z M84.2,62.8l-2.9-3.4c0,0,0.6,0.1,0.7,0.5c1,0.4,2,2.1,2.3,2.6C84.3,62.6,84.2,62.8,84.2,62.8z"/>
			<polygon class="st1" points="82.7,54.8 82.7,54.8 82.7,54.8 			"/>
			<polygon class="st1" points="83.4,55.8 83.4,55.8 83.4,55.8 			"/>
		</g>
		<path class="st1" d="M81.1,40c1.2-1.2,2-4.6,3.8-6.2c3.2-3,6.8-1.4,6.8-1.4s-1.2,0.8-2,3c-0.5,1.3-1.3,3.3-2.6,4.5
			c-1.2,1-3.4,1.8-6.2,1.1c3.1-0.6,4.1-1.8,4.9-2.9c0.8-1.1,1.6-3.3,2.8-4.2c-0.8,0.1-1.5,1-2,1.4c-0.9,0.8-1.8,2.5-3.1,3.7
			C83,39.3,82.1,39.9,81.1,40z"/>
		<path class="st1" d="M81.1,42.5c1.2,1.2,2,4.6,3.8,6.2c3.2,3,6.8,1.4,6.8,1.4s-1.2-0.8-2-3c-0.5-1.3-1.3-3.3-2.6-4.5
			c-1.2-1-3.4-1.8-6.2-1.1c3.1,0.6,4.1,1.8,4.9,2.9c0.8,1.1,1.6,3.3,2.8,4.2c-0.8-0.1-1.5-1-2-1.4c-0.9-0.8-1.8-2.5-3.1-3.7
			C83,43.2,82.1,42.6,81.1,42.5z"/>
		<path class="st1" d="M100.2,44.5c-0.2-0.4-1.2-1-1.5-1.3c0.1-0.5-0.9-1-0.9-1s0.6-0.1,0.6-0.3c0-0.2-0.7-0.6-0.7-0.6
			s0.2-0.4,0.2-0.6c0.5,0.3,1.1-0.1,1.1-0.1s-0.5-0.9-1.3-1.1c-0.8-0.2-2.5-0.1-2.5-0.1s1.1-1,1.5-1.3c0.3-0.3,0.3-0.8-0.3-0.8
			c-0.2-0.3,0.1-0.9,0.1-0.9s-0.8,0.1-1.4,0.5c0.1-0.8-0.5-0.7-0.7-0.6c-0.6,0.5-1.5,1.5-2,2.6c-0.3,0.1-0.6,0.6-0.6,0.6
			s-0.4-1.7-1.5-1.6c-1.1,0.1-1.2,1.4-1.2,1.4s-0.5,0.1-0.6,0.6c0.6,0.2,1-0.2,1-0.2s0.9,0.1,1.1,1.1c0.4,1.6,1.8,2.3,1.8,2.3
			s0,0,0,0c0,0.2-0.1,0.5-0.1,0.6c-0.2,0.7-0.7,1.1-0.7,1.1s0.5,0.1,0.8-0.2c0.1,0.1,0.1,0.4,0.1,0.4s0.7-1.1,0.6-1.6c0,0,0,0,0,0
			c0.3,0.1,0.6,0.3,0.9,0.4c0,0.2-0.1,0.3-0.1,0.4c-0.2,0.7-0.7,1.1-0.7,1.1s0.5,0.1,0.8-0.2c0.1,0.1,0.1,0.4,0.1,0.4
			s0.5-0.8,0.6-1.4c0,0,0,0,0,0c1.6,0.7,3.9,3.2,3.9,3.2s0.3-0.4,0.1-1.3c0.6-0.3,1-0.8,0.5-1.6c0.2,0.2,0.4,0.3,0.5,0.4
			C100,45.3,100.4,44.9,100.2,44.5z"/>
		<path class="st1" d="M90.7,15.8c0,0-0.1-0.1-0.1,0c0,0-1,0.5-1.7,1.1c-0.3,0.3-0.5,0.5-0.6,0.7c-0.2,0-0.3,0-0.5,0.1
			c0.1-0.2,0.3-0.5,0.7-1c0.6-0.6,1.6-1.1,1.6-1.1c0,0,0.1-0.1,0-0.1c0,0-0.1-0.1-0.1,0c0,0-1,0.5-1.7,1.1c-0.6,0.6-0.8,1-0.8,1.2
			c-0.2,0.1-0.3,0.3-0.4,0.4c-0.4,0.9-1.4,1.8-1.9,2.3c-0.2,0.2-0.4,0.3-0.7,0.5c0.4-0.3,0.8-0.7,1.2-1.2c0.4-0.6,0.4-2,0.8-2.6
			c0.4-0.6,0.9-2.9,0.9-2.9s-0.4,0.5-1.4,0.5c-0.8,0.1-1.7,0.2-2.6,0.8c-0.4,0.3-2.1,0.3-2.5,0.1c-0.5-0.1-1.4,0-1.6,1.2
			c-0.2,1.2-1.1,3.6-1.7,4.9C77.4,22,77,22.6,76.9,23c1.1-0.7,4.6-0.3,6.6-1.3c-1,0.6-2,1.3-2.5,1.7c-0.5,0.5-0.9,1.4-1.4,1.8
			c0.8-0.2,1.6-0.3,2.1-0.5c0.5-0.1,1.2-0.3,1.8-0.7c1.2-0.8,3.4-2.5,4.3-3.5c0.4-0.4,0.8-1.5,1.2-2c0.2-0.2,0.2-0.9-0.3-1
			c0.1-0.2,0.3-0.4,0.5-0.6c0.7-0.6,1.7-1,1.7-1C90.7,15.9,90.7,15.9,90.7,15.8z M80.1,20.9c-0.4,0.4-0.9,0.7-1.1,0.5
			c-0.2-0.2,0-0.7,0.5-1.1c0.4-0.4,0.9-0.7,1.1-0.5C80.8,20,80.5,20.5,80.1,20.9z M81.3,17.9c-0.4,0.4-0.9,0.7-1.1,0.5
			c-0.2-0.2,0-0.7,0.5-1.1c0.4-0.4,0.9-0.7,1.1-0.5C81.9,16.9,81.7,17.4,81.3,17.9z M83.3,19.9c-0.4,0.4-0.9,0.7-1.1,0.5
			c-0.2-0.2,0-0.7,0.5-1.1c0.4-0.4,0.9-0.7,1.1-0.5C84,19,83.8,19.5,83.3,19.9z M83.9,17.4c-0.2-0.2,0-0.7,0.5-1.1
			c0.4-0.4,0.9-0.7,1.1-0.5c0.2,0.2,0,0.7-0.5,1.1C84.6,17.4,84.1,17.6,83.9,17.4z M88,18.6c-0.2,0.2-0.5,0.3-0.6,0.2
			c-0.1-0.1,0-0.3,0.2-0.6c0.2-0.2,0.5-0.3,0.6-0.2C88.3,18.1,88.2,18.4,88,18.6z"/>
		<path class="st1" d="M18.9,88c-0.1-0.8-0.1-1.8-0.1-2.4c0-0.2-0.3-0.1-0.5,0c-0.1,0.1-0.5,0-0.6-0.1c-1-0.2-3.1-0.6-4.1-0.5
			c-1.9,0.2-4.4,0.4-6.6,3.8c-1,1.6-1.7,4.4-0.2,7.5c0.9,1.9,2.9,3.2,4.2,3.7c1.7,0.6,4.2,0.5,6,0c0.6-0.1,1.6-0.5,2-1.2
			c0.3-0.5,0.5-1,0.6-1.3c0.1-0.3,0.1-0.5-0.2-0.2c-0.5,0.6-0.7,1.2-2.9,1.8c-1.3,0.3-3.1,0.8-5.2-0.4c-2.2-1.3-3.2-3.7-3.4-5.2
			c-0.3-2,0.2-3.7,0.8-4.8c0.8-1.3,2.3-2.3,3.3-2.6c1.7-0.6,4.1-0.2,5.2,0.3c0.8,0.4,1.2,1,1.5,1.4C18.7,88.1,19,88.2,18.9,88z"/>
		<path class="st1" d="M32,100.2c-0.4-0.1-1.1-0.8-1.3-1.2c-1-2.2-4.2-9.2-4.2-9.2l-2.1-0.1v0.1c0,0,0.7,0.5,0.9,0.7
			c0.4,0.5,0.4,0.7,0.3,0.9c-0.9,2-3.6,7.6-3.6,7.6s-0.4,0.8-1.6,1.3c1.3-0.1,2.5,0,2.5,0s-0.5-0.4-0.3-0.8c0.2-0.6,1-2.3,1.4-3.3
			c1.6-0.1,4,0,4,0s0.9,2.1,1.2,2.7c0.3,0.7-0.4,1.3-0.4,1.3s0.1,0.1,0.1,0.1c1.7-0.3,3.2,0,3.2,0S32,100.2,32,100.2z M24.3,95.6
			c0.3-0.8,1.7-3.7,1.7-3.7l1.6,3.7C27.6,95.6,26,95.7,24.3,95.6z"/>
		<path class="st1" d="M116.2,100.2c-0.4-0.1-1.1-0.8-1.3-1.2c-1-2.2-4.2-9.2-4.2-9.2l-2.1-0.1v0.1c0,0,0.7,0.5,0.9,0.7
			c0.4,0.5,0.4,0.7,0.3,0.9c-0.9,2-3.6,7.6-3.6,7.6s-0.4,0.8-1.6,1.3c1.3-0.1,2.5,0,2.5,0s-0.5-0.4-0.3-0.8c0.2-0.6,1-2.3,1.4-3.3
			c1.6-0.1,4,0,4,0s0.9,2.1,1.2,2.7c0.3,0.7-0.4,1.3-0.4,1.3s0.1,0.1,0.1,0.1c1.7-0.3,3.2,0,3.2,0S116.2,100.2,116.2,100.2z
			 M108.5,95.6c0.3-0.8,1.7-3.7,1.7-3.7l1.6,3.7C111.8,95.6,110.2,95.7,108.5,95.6z"/>
		<path class="st1" d="M117.3,112.1c-0.2-0.1-0.7-0.5-0.8-0.7c-0.6-1.3-2.5-5.5-2.5-5.5l-1.3-0.1v0.1c0,0,0.4,0.3,0.5,0.4
			c0.2,0.3,0.2,0.4,0.2,0.5c-0.5,1.2-2.2,4.5-2.2,4.5s-0.2,0.5-0.9,0.8c0.8-0.1,1.5,0,1.5,0s-0.3-0.2-0.2-0.5
			c0.1-0.3,0.6-1.4,0.8-1.9c1-0.1,2.4,0,2.4,0s0.5,1.2,0.7,1.6c0.2,0.4-0.2,0.8-0.2,0.8s0,0,0.1,0.1
			C116.3,112,117.3,112.1,117.3,112.1C117.3,112.1,117.3,112.1,117.3,112.1z M112.7,109.3c0.2-0.5,1-2.2,1-2.2l1,2.2
			C114.6,109.3,113.7,109.4,112.7,109.3z"/>
		<path class="st1" d="M51.6,100.2c-0.4-0.1-1.1-0.8-1.3-1.2c-1-2.2-4.2-9.2-4.2-9.2L44,89.7v0.1c0,0,0.7,0.5,0.9,0.7
			c0.4,0.5,0.4,0.7,0.3,0.9c-0.9,2-3.6,7.6-3.6,7.6s-0.4,0.8-1.6,1.3c1.3-0.1,2.5,0,2.5,0s-0.5-0.4-0.3-0.8c0.2-0.6,1-2.3,1.4-3.3
			c1.6-0.1,4,0,4,0s0.9,2.1,1.2,2.7c0.3,0.7-0.4,1.3-0.4,1.3s0.1,0.1,0.1,0.1c1.7-0.3,3.2,0,3.2,0S51.7,100.2,51.6,100.2z
			 M43.9,95.6c0.3-0.8,1.7-3.7,1.7-3.7l1.6,3.7C47.3,95.6,45.6,95.7,43.9,95.6z"/>
		<path class="st1" d="M39,91.7c-0.1-0.4-0.2-1.3-0.1-1.7c0-0.2-0.3-0.2-0.6-0.1c-0.3,0.1-0.8,0-1-0.1c-0.4-0.1-1.2-0.2-1.8-0.1
			c-0.7,0.1-1.7,0.4-2.2,1.5c-0.6,1.2,0,2.2,0.5,2.8c0.8,0.7,2.7,1.7,3.6,2.5c0.9,0.8,0.8,1.6,0.3,2.4c-0.3,0.5-1.1,0.9-2,0.9
			c-0.8,0-1.8-0.5-2.2-0.9c-0.2-0.2-0.4-0.6-0.5-0.9c-0.1-0.2-0.3-0.2-0.4,0.1c0,0.3,0.1,1,0.1,1.3c0,0.2,0.1,0.5,0.4,0.6
			c0.5,0.1,1.2,0.4,2.1,0.4c1.6,0.1,2.6-0.5,3.3-1c0.5-0.5,0.9-1.3,0.8-2.2c-0.2-1.1-1-1.7-1.4-2.1c-0.7-0.6-2.1-1.4-2.8-1.9
			c-0.6-0.5-1.1-0.9-0.9-1.7c0.1-0.6,0.7-0.9,1.1-1c0.5-0.2,1.8-0.1,2.3,0.1c0.3,0.2,0.9,0.8,1,1.1C38.7,92,39,91.9,39,91.7z"/>
		<path class="st1" d="M105.4,106.9c-0.1-0.2-0.1-0.8-0.1-1c0-0.1-0.2-0.1-0.3,0c-0.2,0.1-0.4,0-0.6,0c-0.2,0-0.7-0.1-1.1,0
			c-0.4,0.1-1,0.3-1.3,0.9c-0.4,0.7,0,1.3,0.3,1.6c0.5,0.4,1.6,1,2.1,1.5c0.5,0.5,0.5,1,0.2,1.5c-0.2,0.3-0.7,0.5-1.2,0.5
			c-0.5,0-1.1-0.3-1.3-0.6c-0.1-0.1-0.3-0.4-0.3-0.5c0-0.1-0.2-0.1-0.2,0.1c0,0.2,0.1,0.6,0.1,0.8c0,0.1,0.1,0.3,0.2,0.4
			c0.3,0.1,0.7,0.2,1.2,0.3c0.9,0,1.6-0.3,1.9-0.6c0.3-0.3,0.6-0.8,0.5-1.3c-0.1-0.6-0.6-1-0.9-1.2c-0.4-0.3-1.3-0.8-1.7-1.1
			c-0.4-0.3-0.6-0.5-0.5-1c0.1-0.4,0.4-0.5,0.7-0.6c0.3-0.1,1.1-0.1,1.4,0.1c0.2,0.1,0.5,0.5,0.6,0.7
			C105.3,107.1,105.5,107,105.4,106.9z"/>
		<path class="st1" d="M66.1,93.1c-0.5-0.4-2.4-1-2.4-1s2-0.8,2.1-3.5c0.1-1.8-1.8-3.2-3.1-3.2c-1.4,0-3.6,0-4.4,0
			c-0.8,0-1.1-0.1-1.1-0.1L57,85.6c0,0,1.1,0.2,1.1,1.8c0.1,1.5,0.2,9.2,0.1,10.6c-0.2,1.6-1.2,2.1-1.2,2.1s0,0.1,0,0.2
			c1.8-0.2,5.7,0.1,7.5-0.2c2.1-0.3,3-2.5,3.1-3.6C67.7,95.4,67.4,94.1,66.1,93.1z M60,86.4c0.1-0.5,0.4-0.3,1.8-0.3
			c1.5,0,2.3,1.3,2.3,3.1c-0.1,1.7-1.3,2.7-2,2.7c-1.7,0-2.1,0.1-2.1-0.4C59.9,90.3,59.8,87.9,60,86.4z M65.5,98.3
			c-0.7,0.8-1.6,1.4-4,1.2c-1.2-0.1-1.6-0.6-1.6-1.7c0-1.2,0-5,0-5s1.6,0.1,2.1,0.1c1.5,0.1,2.5,0.7,3.1,1.4
			C65.8,95,66.2,97.5,65.5,98.3z"/>
		<path class="st1" d="M74.5,89.7c-3.4,0-6.2,2.4-6.2,5.4c0,3,2.8,5.4,6.2,5.4c3.4,0,6.2-2.4,6.2-5.4C80.6,92.1,77.9,89.7,74.5,89.7
			z M74.5,99.8c-2.6,0-4.7-2.1-4.7-4.7c0-3.2,2.1-4.7,4.7-4.7c2.6,0,4.7,2.1,4.7,4.7C79.2,98.2,77.1,99.8,74.5,99.8z"/>
		<path class="st1" d="M46.1,109.1c-0.2-0.2-1.1-0.4-1.1-0.4s0.9-0.3,1-1.5c0-0.8-0.8-1.3-1.5-1.3c-0.7,0-1.8,0-2.1,0
			c-0.4,0-0.5-0.1-0.5-0.1l-0.1,0.1c0,0,0.5,0.1,0.5,0.7c0,0.6,0.1,3.8,0,4.4c-0.1,0.7-0.6,0.9-0.6,0.9s0,0.1,0,0.1
			c0.8-0.1,2.7,0,3.6-0.1c1-0.1,1.4-1,1.5-1.5C46.8,110.1,46.7,109.5,46.1,109.1z M43.1,106.4c0-0.2,0.2-0.1,0.9-0.1
			c0.7,0,1.1,0.5,1.1,1.3c0,0.7-0.6,1.1-1,1.1c-0.8,0-1,0-1-0.2C43.1,108,43,107,43.1,106.4z M45.8,111.3c-0.3,0.3-0.8,0.6-1.9,0.5
			c-0.6-0.1-0.8-0.2-0.8-0.7c0-0.5,0-2.1,0-2.1s0.8,0,1,0c0.7,0,1.2,0.3,1.5,0.6C45.9,110,46.1,111,45.8,111.3z"/>
		<path class="st1" d="M50.8,105.9c-2,0-3.6,1.4-3.6,3.2c0,1.8,1.6,3.2,3.6,3.2c2,0,3.6-1.4,3.6-3.2
			C54.4,107.3,52.8,105.9,50.8,105.9z M50.8,111.9c-1.5,0-2.8-1.3-2.8-2.8c0-1.9,1.2-2.8,2.8-2.8c1.5,0,2.8,1.3,2.8,2.8
			C53.6,110.9,52.3,111.9,50.8,111.9z"/>
		<path class="st1" d="M16.9,105.8c-2,0-3.6,1.4-3.6,3.2c0,1.8,1.6,3.2,3.6,3.2c2,0,3.6-1.4,3.6-3.2
			C20.5,107.3,18.9,105.8,16.9,105.8z M16.9,111.9c-1.5,0-2.7-1.3-2.7-2.8c0-1.9,1.2-2.8,2.7-2.8c1.5,0,2.7,1.3,2.7,2.8
			C19.7,110.9,18.5,111.9,16.9,111.9z"/>
		<path class="st1" d="M82.1,99c0.1-1.9,0-5.6,0-7.4c0-0.5,0.1-1.4-0.9-1.7c0,0,0-0.1,0-0.1l1.5,0.1l8.2,8.4c0,0-0.1-4.7-0.1-6.3
			c0-1.8-0.8-1.9-0.8-1.9v-0.2c0,0,0.9,0.1,1.2,0.1c0.3,0,1.3-0.1,1.3-0.1v0.1c0,0-0.8,0.3-0.8,2c0,2.2,0,8.5,0,8.5l-0.3,0.1
			l-8.4-8.4c0,0,0.1,5.4,0.1,7c0,0.3,0.3,1,0.9,1.1c0,0,0,0.2,0,0.2l-1.4-0.1l-1.3,0.1c0,0,0-0.1,0-0.1C82.1,99.8,82.1,99.3,82.1,99
			z"/>
		<path class="st1" d="M92.9,89.7c0,0,0.7,0.1,1.6,0.1c0.8,0,1.6-0.1,1.6-0.1s-0.8,0.5-0.8,1.6c0,1.8,0,6,0.1,7.7
			c0,0.8,0.9,1.3,0.9,1.3s-1-0.1-1.7-0.1c-0.7,0-1.5,0.1-1.5,0.1s0.9-0.4,0.9-1.3c0-1.8-0.1-6-0.1-7.8
			C93.9,90.3,92.9,89.7,92.9,89.7z"/>
		<path class="st1" d="M97.1,91c0.4-0.4,0.8-1.4,0.8-1.4l0.2,0c0,0,0.1,0.3,0.8,0.3c0.7,0,6.2,0,7,0c0.7,0,1.4-0.3,1.4-0.3h0.2
			c0,0-0.8,1.6-0.8,1.8c0,0.2-0.3,0-0.2-0.3c0.1-0.7-0.6-0.6-0.6-0.6h-2.8c0,0-0.1,2.7-0.1,3.7c0,1.3,0,4.1,0.2,5.4
			c0.1,0.5,0.8,0.7,0.8,0.7v0.1h-3.2l0-0.2c0,0,0.8-0.2,0.8-1.1c0-2.1,0-8.7,0-8.7s-0.8-0.1-2.3,0.1c-1.4,0.1-1.9,0.8-2.1,0.9
			C96.9,91.5,96.6,91.4,97.1,91z"/>
		<path class="st1" d="M67.8,105.9c0,0,0.4,0.1,0.9,0.1c0.5,0,0.9-0.1,0.9-0.1s-0.5,0.3-0.5,1c0,1.1,0,3.6,0.1,4.6
			c0,0.5,0.5,0.8,0.5,0.8s-0.6-0.1-1-0.1c-0.4,0-0.9,0.1-0.9,0.1s0.5-0.3,0.5-0.8c0-1,0-3.5,0-4.6C68.3,106.2,67.8,105.9,67.8,105.9
			z"/>
		<path class="st1" d="M61.3,106.6c0.2-0.3,0.5-0.8,0.5-0.8l0.1,0c0,0,0.1,0.2,0.5,0.2c0.4,0,3.7,0,4.1,0c0.4,0,0.8-0.2,0.8-0.2h0.1
			c0,0-0.5,0.9-0.5,1.1c0,0.1-0.2,0-0.1-0.2c0.1-0.4-0.3-0.4-0.3-0.4h-1.7c0,0-0.1,1.6-0.1,2.2c0,0.8,0,2.4,0.1,3.2
			c0.1,0.3,0.5,0.4,0.5,0.4v0.1h-1.9l0-0.1c0,0,0.5-0.1,0.5-0.6c0-1.2,0-5.1,0-5.1s-0.5,0-1.4,0c-0.9,0.1-1.1,0.5-1.3,0.5
			C61.2,106.9,61.1,106.9,61.3,106.6z"/>
		<path class="st1" d="M21,106.6c0.3-0.3,0.5-0.8,0.5-0.8l0.1,0c0,0,0.1,0.2,0.5,0.2c0.4,0,3.7,0,4.2,0c0.4,0,0.8-0.2,0.8-0.2h0.1
			c0,0-0.5,0.9-0.5,1.1c0,0.1-0.2,0-0.1-0.2c0.1-0.4-0.3-0.4-0.3-0.4h-1.7c0,0-0.1,1.6-0.1,2.2c0,0.8,0,2.4,0.1,3.2
			c0.1,0.3,0.5,0.4,0.5,0.4v0.1h-1.9l0-0.1c0,0,0.5-0.1,0.5-0.6c0-1.2,0-5.1,0-5.1s-0.5,0-1.4,0c-0.9,0.1-1.1,0.5-1.3,0.5
			C20.9,106.9,20.8,106.9,21,106.6z"/>
		<path class="st1" d="M12.4,111.5c-0.1-1.1-0.1-3.6,0-4.8c0-0.6,0.4-0.7,0.4-0.7v-0.1c0,0-0.3,0.1-0.9,0.1c-0.5,0-0.9-0.1-0.9-0.1
			v0.1c0,0,0.5,0.1,0.5,0.7c0,0.5,0,1.2,0,2c-1.1,0.1-3.1,0.1-4.2,0c0-0.8,0-1.5,0.1-2c0-0.6,0.4-0.7,0.4-0.7v-0.1
			c0,0-0.3,0.1-0.9,0.1c-0.5,0-0.9-0.1-0.9-0.1v0.1c0,0,0.5,0.1,0.5,0.7c0.1,1.2,0.1,3.8,0.1,4.9c0,0.3-0.5,0.5-0.5,0.5v0.1
			c0,0,0.4-0.1,0.9-0.1c0.6,0,0.9,0.1,0.9,0.1V112c0,0-0.5-0.2-0.5-0.5c-0.1-0.5-0.1-1.5-0.1-2.4c0.7-0.1,3.2,0,4.2,0c0,1,0,2,0,2.5
			c0,0.3-0.5,0.5-0.5,0.5v0.1c0,0,0.4-0.1,0.9-0.1c0.6,0,0.9,0.1,0.9,0.1V112C12.9,112,12.5,111.9,12.4,111.5z"/>
		<path class="st1" d="M32.5,110.9c-0.3,0.4-0.7,0.9-1.6,0.9c-0.5,0-1.7,0.1-1.8-0.5c-0.1-0.4-0.1-1.3-0.2-2.2c0.4,0,1.2,0,1.5,0
			c0.7,0,0.9,0.4,0.9,0.4l0.1,0l0-1.2h-0.1c0,0-0.1,0.4-0.6,0.4c-0.4,0-1.4,0-1.8,0c0-1,0-2,0.2-2.5c0.3,0,1.3,0,1.7,0
			c0.3,0,0.7,0,0.9,0.5c0,0.1,0.2,0,0.1-0.1c0-0.2-0.1-0.5-0.1-0.6c0-0.2-0.5-0.2-0.7-0.2c-0.5,0-1.4,0.1-2,0.1
			c-0.9,0-1.7-0.1-1.7-0.1v0.1c0,0,0.7,0.2,0.7,0.8c0.1,1.1,0.1,3.4,0.1,4.3c0,0.6-0.6,0.8-0.6,0.8s0,0.1,0,0.2
			c0.7-0.2,3.1-0.1,4.1-0.1c0.3,0,0.5-0.2,0.5-0.4c0.1-0.2,0.3-0.5,0.4-0.6C32.7,110.9,32.6,110.8,32.5,110.9z"/>
		<path class="st1" d="M89.3,110.9c-0.3,0.4-0.7,0.9-1.6,0.9c-0.5,0-1.7,0.1-1.8-0.5c-0.1-0.4-0.1-1.3-0.2-2.2c0.4,0,1.2,0,1.5,0
			c0.7,0,0.9,0.4,0.9,0.4l0.1,0l0-1.2h-0.1c0,0-0.1,0.4-0.6,0.4c-0.4,0-1.4,0-1.8,0c0-1,0-2,0.2-2.5c0.3,0,1.3,0,1.7,0
			c0.3,0,0.7,0,0.9,0.5c0,0.1,0.2,0,0.1-0.1c0-0.2-0.1-0.5-0.1-0.6c0-0.2-0.5-0.2-0.7-0.2c-0.5,0-1.4,0.1-2,0.1
			c-0.9,0-1.7-0.1-1.7-0.1v0.1c0,0,0.7,0.2,0.7,0.8c0.1,1.1,0.1,3.4,0.1,4.3c0,0.6-0.6,0.8-0.6,0.8s0,0.1,0,0.2
			c0.7-0.2,3.1-0.1,4.1-0.1c0.3,0,0.5-0.2,0.5-0.4c0.1-0.2,0.3-0.5,0.4-0.6C89.5,110.9,89.3,110.8,89.3,110.9z"/>
		<path class="st1" d="M37.6,110.8c-0.3,0.4-0.4,1-2,1c-0.6,0-1.1-0.2-1.2-0.6c-0.1-1-0.2-3.8,0-5c0-0.1,0.3-0.4,0.3-0.4l0-0.1
			c0,0-0.5,0.1-0.9,0.1c-0.5,0-0.9-0.1-0.9-0.1v0.1c0,0,0.5,0.2,0.5,0.9c0.1,1.1,0.1,3.4,0.1,4.3c0,0.6-0.6,0.9-0.6,0.9s0,0,0,0.1
			c0.7-0.2,2.9,0.1,3.9-0.1c0.3,0,0.4-0.1,0.4-0.3c0.1-0.2,0.3-0.7,0.4-0.8C37.9,110.8,37.7,110.7,37.6,110.8z"/>
		<path class="st1" d="M54.8,105.9l0,0.1c0,0,0.6,0.3,0.5,0.9c0,0.9-0.1,2.6,0,3.4c0,0.6,0.3,1.7,1.5,1.8c0.3,0,0.9,0,1.2,0
			c0.3,0,0.8,0,1.1-0.1c0.8-0.2,1.3-1,1.3-2.1c0-0.9,0-2.6,0.1-3.5c0-0.4,0.4-0.5,0.4-0.5l0-0.1c0,0-0.2,0.1-0.8,0.1
			c-0.7,0-0.8-0.1-0.8-0.1l0,0.2c0,0,0.6,0.1,0.6,0.6c0,0.8,0,2.8,0,3.6c0,0.5-0.1,1.4-1.2,1.6c-0.4,0.1-1.3,0.1-1.8,0
			c-0.8-0.3-0.9-1.4-0.9-1.9c0-0.8,0-2.4,0.1-3.3c0-0.4,0.5-0.6,0.5-0.6l0-0.1c0,0-0.5,0.1-1,0.1C55.1,105.9,54.8,105.9,54.8,105.9z
			"/>
		<path class="st1" d="M78,105.9l0,0.1c0,0,0.6,0.3,0.5,0.9c0,0.9-0.1,2.6,0,3.4c0,0.6,0.3,1.7,1.5,1.8c0.3,0,0.9,0,1.2,0
			c0.3,0,0.8,0,1.1-0.1c0.8-0.2,1.3-1,1.3-2.1c0-0.9,0-2.6,0.1-3.5c0-0.4,0.4-0.5,0.4-0.5l0-0.1c0,0-0.2,0.1-0.8,0.1
			c-0.7,0-0.8-0.1-0.8-0.1l0,0.2c0,0,0.6,0.1,0.6,0.6c0,0.8,0,2.8,0,3.6c0,0.5-0.1,1.4-1.2,1.6c-0.4,0.1-1.3,0.1-1.8,0
			c-0.8-0.3-0.9-1.4-0.9-1.9c0-0.8,0-2.4,0.1-3.3c0-0.4,0.5-0.6,0.5-0.6l0-0.1c0,0-0.5,0.1-1,0.1C78.3,105.9,78,105.9,78,105.9z"/>
		<path class="st1" d="M82.4,113c0,0-0.6,0.6-2.2,0.5c-1.2-0.1-4.5-1.2-5.2-1.4c1.4-0.5,2.4-1.6,2.4-3c0-1.8-1.7-3.2-3.8-3.2
			c-2.1,0-3.8,1.4-3.8,3.2c0,1.8,1.7,3.2,3.8,3.2c0.2,0,0.3,0,0.5,0c0.3,0.1,0.7,0.2,0.9,0.3c1.2,0.5,3.1,1.5,4.8,1.5
			c1.4,0,2.6-1,2.6-1L82.4,113z M71,109c0-1.9,1.3-2.8,2.8-2.8c1.6,0,2.8,1.3,2.8,2.8c0,1.8-1.3,2.8-2.8,2.8
			C72.3,111.9,71,110.6,71,109z"/>
		<g>
			<path class="st1" d="M94,108.3c-0.3-0.4-0.5-0.7-0.6-0.9c-0.1-0.2-0.1-0.4-0.1-0.6c0-0.3,0.1-0.6,0.4-0.8
				c0.3-0.2,0.6-0.4,1.1-0.4c0.4,0,0.8,0.1,1,0.3c0.2,0.2,0.4,0.5,0.4,0.8c0,0.3-0.1,0.6-0.2,0.8c-0.2,0.2-0.4,0.4-0.8,0.6
				c0.1,0.2,0.3,0.4,0.6,0.7c0.1,0.1,0.2,0.2,0.2,0.2l0.9,1.1c0.3-0.3,0.5-0.7,0.7-0.9c0.1-0.3,0.2-0.5,0.2-0.6c0-0.1,0-0.2-0.1-0.3
				c-0.1-0.1-0.2-0.1-0.3-0.2c0,0,0-0.1,0-0.1l0,0l0.6-0.1c0.1,0,0.3,0,0.5,0c0.2,0,0.5,0,1-0.1l0,0.1c0,0,0,0.1,0,0.1
				c-0.3,0.1-0.5,0.2-0.6,0.4c-0.2,0.1-0.4,0.4-0.8,0.8c-0.4,0.4-0.7,0.8-0.9,1.2c0.5,0.5,0.8,0.9,1,1c0.2,0.1,0.4,0.2,0.6,0.2
				c0.2,0,0.4-0.1,0.6-0.2c0.1-0.1,0.2-0.1,0.2-0.1c0,0,0,0,0.1,0c-0.1,0.3-0.2,0.5-0.2,0.6c-0.3,0.2-0.6,0.3-0.9,0.3
				c-0.2,0-0.4,0-0.6-0.1c-0.2-0.1-0.4-0.2-0.5-0.3c-0.1-0.1-0.3-0.2-0.5-0.5c-0.2-0.2-0.3-0.3-0.3-0.3c-0.3,0.3-0.5,0.5-0.6,0.6
				c-0.2,0.2-0.5,0.3-0.8,0.4c-0.3,0.1-0.6,0.2-1,0.2c-0.5,0-0.8-0.1-1.1-0.3c-0.3-0.2-0.5-0.4-0.7-0.7c-0.1-0.3-0.2-0.6-0.2-0.9
				c0-0.2,0-0.4,0.1-0.6c0.1-0.2,0.2-0.4,0.3-0.5c0.1-0.1,0.3-0.3,0.5-0.4c0.1,0,0.3-0.1,0.5-0.3C93.6,108.4,93.8,108.3,94,108.3z
				 M96.3,110.8L96.3,110.8L96.3,110.8l-1.2-1.5c-0.1-0.2-0.4-0.5-0.8-0.9c-0.4,0.2-0.8,0.4-1,0.7c-0.2,0.3-0.3,0.6-0.3,1
				c0,0.1,0,0.2,0.1,0.4c0.1,0.2,0.2,0.3,0.3,0.5c0.2,0.2,0.3,0.3,0.6,0.4c0.2,0.1,0.5,0.1,0.8,0.1c0.3,0,0.7-0.1,0.9-0.2
				C95.9,111.2,96.1,111,96.3,110.8z M94.9,107.9c0.2-0.1,0.4-0.2,0.5-0.4c0.1-0.2,0.2-0.4,0.2-0.6c0-0.3-0.1-0.6-0.2-0.8
				c-0.2-0.2-0.4-0.3-0.6-0.3c-0.2,0-0.4,0.1-0.5,0.2c-0.1,0.1-0.2,0.3-0.2,0.5c0,0.2,0.1,0.4,0.2,0.6
				C94.4,107.4,94.6,107.7,94.9,107.9z"/>
		</g>
		<g>
			<path class="st1" d="M106.4,105.9c0.1,0,0.1,0,0.1,0c0.1,0,0.3,0,0.5,0c0.1,0,0.2,0,0.3,0c0.1,0,0.2,0,0.5,0l0.8,0
				c0.2,0,0.5,0,0.8,0c0.5,0,0.9,0.1,1.2,0.2c0.3,0.1,0.5,0.4,0.7,0.7c0.2,0.3,0.2,0.6,0.2,0.9c0,0.5-0.2,0.9-0.5,1.3
				c-0.4,0.4-0.8,0.6-1.4,0.6c-0.2,0-0.3,0-0.4-0.1c-0.1,0-0.2-0.1-0.4-0.2c-0.1,0-0.1-0.1-0.1-0.1c0,0,0,0,0.1-0.1c0,0,0.1,0,0.1,0
				c0.1,0,0.2,0.1,0.4,0.1c0.3,0,0.5-0.1,0.7-0.2c0.2-0.1,0.4-0.3,0.5-0.5c0.1-0.2,0.2-0.5,0.2-0.7c0-0.3-0.1-0.5-0.2-0.7
				c-0.1-0.2-0.3-0.4-0.5-0.6c-0.1-0.1-0.3-0.1-0.5-0.2c-0.2-0.1-0.4-0.1-0.5-0.1c-0.4,0-0.6,0-0.7,0.1l0,0.1l0,0.5l0,0.1
				c0,0.1,0,0.2,0,0.4c0,0.7,0,1.1,0,1.2v0.3l0.1,2.2c0,0,0,0.1,0,0.2c0,0.1,0,0.2,0,0.2c0,0.2,0,0.3,0,0.4c0.1,0,0.3,0.1,0.7,0.2
				c0.2,0,0.3,0.1,0.3,0.1c0,0,0,0,0.1,0.1c0,0,0,0.1-0.1,0.1c0,0-0.1,0-0.1,0c0,0-0.1,0-0.3,0c-0.3,0-0.5,0-0.7,0l-0.9,0l-0.5,0
				c0,0-0.1,0-0.3,0l0-0.1l0.6-0.1c0.1,0,0.2-0.1,0.2-0.1c0,0,0-0.1,0-0.3c0,0,0-0.1,0-0.2c0-0.1,0-0.2,0-0.3c0-0.4,0-1.2,0-2.4
				c0-0.6,0-1.2,0-1.8v-0.1c0-0.2,0-0.4-0.1-0.4c-0.1-0.1-0.4-0.2-0.9-0.3C106.4,106.1,106.4,106.1,106.4,105.9
				C106.4,106,106.4,106,106.4,105.9z"/>
		</g>
	</g>
</g>
</svg>
