<?xml version="1.0" encoding="utf-8"?>
<!-- Generator: Adobe Illustrator 24.0.1, SVG Export Plug-In . SVG Version: 6.00 Build 0)  -->
<svg version="1.1" id="Layer_1" xmlns="http://www.w3.org/2000/svg" xmlns:xlink="http://www.w3.org/1999/xlink" x="0px" y="0px"
	 viewBox="0 0 289.1 308.1" style="enable-background:new 0 0 289.1 308.1;" xml:space="preserve">
<style type="text/css">
	.st0{fill:#644D77;}
	.st1{fill:#989898;}
</style>
<g>
	<g>
		<path class="st0" d="M126.2,42.1c-4-2.9-6.3-6.9-6.7-10.2c-0.7-5,0.4-7.9,2-10.5c1.8-2.9,4.6-5,8.1-4.8c3.5,0.2,5.8,2.1,6.6,4.2
			c0.6,1.6,0.7,4.9-1.2,6.2c-1.8,1.2-3.9,0.9-4.9-0.5c-0.9-1.2-0.4-3.2,0.6-4c1.3-1,2.8-0.5,3.5,0.5c-0.1-1.3-1.3-2.6-4.1-3.1
			c-2.2-0.4-3.9,0.6-5.4,2.3c-1.6,1.7-2.7,5.9-2.5,8.7C122.3,33.8,122.8,37.4,126.2,42.1z"/>
		<path class="st0" d="M171.5,42.1c4-2.9,6.3-6.9,6.7-10.2c0.7-5-0.4-7.9-2-10.5c-1.8-2.9-4.6-5-8.1-4.8c-3.5,0.2-5.8,2.1-6.6,4.2
			c-0.6,1.6-0.7,4.9,1.2,6.2c1.8,1.2,3.9,0.9,4.9-0.5c0.9-1.2,0.4-3.2-0.6-4c-1.3-1-2.8-0.5-3.5,0.5c0.1-1.3,1.3-2.6,4.1-3.1
			c2.2-0.4,3.9,0.6,5.4,2.3c1.6,1.7,2.7,5.9,2.5,8.7C175.4,33.8,174.9,37.4,171.5,42.1z"/>
		<g>
			<path class="st0" d="M134.3,33.2c-0.4,0-0.7,0.3-0.7,0.7c0,0.4,0.3,0.7,0.7,0.7c0.4,0,0.7-0.3,0.7-0.7
				C135,33.5,134.7,33.2,134.3,33.2z"/>
			<path class="st0" d="M168.3,34.3c-1.1-0.6-2.2-1-2.8-1.3c-0.6-0.4-2-1.5-2-1.5l-0.2-1.6l-0.9,0.4l-3.1-3.1c0,0,0.5-0.4,0.2-1
				c-0.3-0.6-1.3,0-1.3,0s-1.1-0.6-1,0c0,0.6,0.7,0.9,0.7,0.9s-1.8,1.1-2,1.8c-0.2,0.6-0.1,1.3,0.4,1.3c0.8,0,0.8-1,0.8-1l1-0.7
				c0,0,1.4,1,2.1,1.7c0.7,0.7,0.3,1.3,0.3,1.3l-10.4,10.4c0,0,0,0.7,0,1.5c0,0.8-1.1,0.6-1.1,0.6v-4.5c0,0,0.7,0.5,1.1,0.2
				c0.4-0.2,0.6-0.9,0.3-1.3c-0.2-0.4,0.1-0.7,0.4-0.6c0.3,0.1,1.6,0.2,1.7-0.6c0.1-0.8-0.3-0.9-0.9-1.3c-0.6-0.3-0.2-0.8,0.2-1.1
				c0.5-0.3,1.3-0.2,1.1-1.2c-0.2-0.9-1.2-0.6-1.9-0.7c-0.7,0-1.2,0-0.9-0.5c0.2-0.5,0.9-1.3,0-1.6c-0.9-0.3-2,1-2.1,1.1
				c-0.1-0.1-1.2-1.4-2.1-1.1c-1,0.4-0.3,1.1,0,1.6c0.2,0.5-0.3,0.5-0.9,0.5c-0.7,0-1.7-0.3-1.9,0.7c-0.2,0.9,0.7,0.9,1.1,1.2
				c0.4,0.3,0.8,0.7,0.2,1.1c-0.6,0.3-1,0.5-0.9,1.3c0.1,0.8,1.4,0.7,1.7,0.6c0.3-0.1,0.7,0.1,0.4,0.6c-0.2,0.4-0.1,1.1,0.3,1.3
				c0.4,0.2,1.1-0.2,1.1-0.2V44c0,0-1.1,0.2-1.1-0.6c0-0.8,0-1.5,0-1.5l-10.4-10.4c0,0-0.4-0.6,0.3-1.3c0.7-0.7,2.1-1.7,2.1-1.7
				l1,0.7c0,0,0,1,0.8,1c0.5,0,0.5-0.7,0.4-1.3c-0.2-0.6-2-1.8-2-1.8s0.6-0.3,0.7-0.9c0-0.6-1,0-1,0s-1-0.6-1.3,0
				c-0.3,0.6,0.2,1,0.2,1l-3.1,3.1l-0.9-0.4l-0.2,1.6c0,0-1.4,1.1-2,1.5c-0.6,0.4-1.7,0.8-2.8,1.3c-1.1,0.6-1.4,1.4-1.2,2
				c0.2,0.7,1.3,0.5,1.3,0.5s1-1.9,2.1-1.5c0,0.6-1.1,1.6-1.1,1.6s0,0.9,1.1,1.1c1.1,0.2,1.5-0.9,1.5-0.9s1.2-1.2,2.4-0.1
				c1.1,1.1,5.8,6,6.3,6.6c0.5,0.5,0,1-0.4,1c-0.4,0-6.9,0.5-6.9,0.5V46h15.2h0h15.2V45c0,0-6.5-0.5-6.9-0.5c-0.4,0-1-0.5-0.4-1
				c0.5-0.5,5.2-5.4,6.3-6.6c1.1-1.1,2.4,0.1,2.4,0.1s0.4,1.1,1.5,0.9c1.1-0.2,1.1-1.1,1.1-1.1s-1.1-1-1.1-1.6
				c1.1-0.3,2.1,1.5,2.1,1.5s1.1,0.2,1.3-0.5C169.7,35.7,169.3,34.9,168.3,34.3z M132.9,35l-0.5-2.2l2.9,0l0.7,2.3H132.9z
				 M138.4,38.3c-0.5,0-0.9-0.4-0.9-0.9c0-0.5,0.4-0.9,0.9-0.9c0.5,0,0.9,0.4,0.9,0.9C139.3,37.9,138.9,38.3,138.4,38.3z
				 M140.9,40.7c-0.4,0-0.7-0.3-0.7-0.7c0-0.4,0.3-0.7,0.7-0.7c0.4,0,0.7,0.3,0.7,0.7C141.6,40.4,141.3,40.7,140.9,40.7z
				 M143.5,43.8c-0.6,0-1.1-0.5-1.1-1.1c0-0.6,0.5-1.1,1.1-1.1c0.6,0,1.1,0.5,1.1,1.1C144.6,43.3,144.1,43.8,143.5,43.8z
				 M148.1,36.5c-0.1,0.2-0.6,1-1.2,0.3c-0.7-0.7,0.2-1.5,0.2-1.5s-1-0.6-0.4-1.4c0.6-0.8,1.4,0.3,1.4,0.3s0.8-1,1.4-0.3
				c0.7,0.8-0.4,1.4-0.4,1.4s0.9,0.8,0.2,1.5C148.7,37.5,148.1,36.5,148.1,36.5z M152.6,43.8c-0.6,0-1.1-0.5-1.1-1.1
				c0-0.6,0.5-1.1,1.1-1.1c0.6,0,1.1,0.5,1.1,1.1C153.7,43.3,153.2,43.8,152.6,43.8z M155.2,40.7c-0.4,0-0.7-0.3-0.7-0.7
				c0-0.4,0.3-0.7,0.7-0.7c0.4,0,0.7,0.3,0.7,0.7C155.8,40.4,155.6,40.7,155.2,40.7z M157.7,38.3c-0.5,0-0.9-0.4-0.9-0.9
				c0-0.5,0.4-0.9,0.9-0.9c0.5,0,0.9,0.4,0.9,0.9C158.6,37.9,158.2,38.3,157.7,38.3z M163.2,35h-3l0.7-2.3l2.9,0L163.2,35z"/>
			<path class="st0" d="M161.9,34.6c0.4,0,0.7-0.3,0.7-0.7c0-0.4-0.3-0.7-0.7-0.7c-0.4,0-0.7,0.3-0.7,0.7
				C161.1,34.3,161.5,34.6,161.9,34.6z"/>
		</g>
		<path class="st0" d="M162.8,46.7c0,0,0,0.4,0,0.9c0,0.5-0.2,0.9-0.8,0.8c-0.5,0-0.8-0.3-0.9-0.5c-0.1-0.2,0.3-0.9-0.2-1.1
			c-0.5-0.2-0.9-0.2-1.2-0.2c-0.4,0-1,0.6-0.5,1.1c0.4,0.5,1,0.3,1.4,0.7c0.4,0.4,0.2,1.3,0.7,1.6c0.5,0.3,1.2,0,1.6,0.1
			c0.3,0.1,0.5,0.4-0.1,1.5c-0.7,1.1-1,0.8-1.3,0.7c-0.3-0.2-0.2-1.4-0.6-1.9c-0.4-0.5-1.1-0.1-1.4-0.5c-0.4-0.3-0.1-1.1-0.4-1.5
			c-0.3-0.5-1.1-0.2-1.3-0.5c-0.1-0.3-0.1-1-0.1-1h-9.5h-9.5c0,0,0.1,0.7-0.1,1c-0.1,0.3-1,0-1.3,0.5c-0.3,0.5,0,1.2-0.4,1.5
			c-0.4,0.3-1,0-1.4,0.5c-0.4,0.5-0.3,1.7-0.6,1.9c-0.3,0.2-0.7,0.4-1.3-0.7c-0.7-1.1-0.4-1.4-0.1-1.5c0.3-0.1,1.1,0.2,1.5-0.1
			c0.5-0.3,0.2-1.2,0.7-1.6c0.4-0.4,0.9-0.2,1.4-0.7c0.4-0.5-0.1-1.1-0.5-1.1c-0.4,0-0.8,0-1.2,0.2c-0.5,0.2-0.1,0.8-0.2,1.1
			c-0.1,0.2-0.4,0.5-0.9,0.5c-0.6,0.1-0.8-0.3-0.8-0.8c0-0.5,0-0.9,0-0.9l-1.5,0v8.4c0,0,0.3,0.8,1.3,0.3c0.8-0.9,6.8-7.2,7.2-7.6
			c0.4-0.4,1.2-0.1,0.8,0.6c0,0.6,0,8,0,8s-2.9,2.1-3.2,2.3c-0.3,0.2-0.8,0.3-0.7-0.1c0.1-0.5-0.1-0.9-0.6-0.8
			c-0.5,0.1-0.8,0.1-0.7-0.3c0.2-0.6-0.2-0.8-0.5-0.6c-0.3,0.2-1.2,0.7-1.6,1c-0.5,0.3-0.1,1.2,0.5,0.9c0.6-0.4,0.8-0.7,1.1-0.7
			c0.3,0,0.3,0.3,0.3,0.3s-0.1,0.5,0.1,0.7c0.2,0.2,0.4,0.2,0.4,0.2s-1.4,1.4-2.1,1.9c-0.6,0.5,0.1,1.4,0.8,0.8
			c0.7-0.7,2.2-2.2,2.2-2.2l0.8,0.4c0,0-1,0.7-1.5,1c-0.5,0.3-0.3,0.8-0.1,1c0.2,0.2,0.7,0.6,1.1,0c0.4-0.6,1-1.6,1.2-1.9
			c0.2-0.3,2.8-2.4,3.8-3.3c1-0.9,0.9-1.8,0.9-1.8v-5.5h1.2v5.6h0.7v-5.6h0.5V55l0.9,0.4l-1.6,2.4h2.9h2.9l-1.6-2.4l0.9-0.4v-5.1
			h0.5v5.6h0.7v-5.6h1.2v5.5c0,0-0.1,0.9,0.9,1.8c1,0.9,3.5,3,3.8,3.3c0.2,0.3,0.8,1.3,1.2,1.9c0.4,0.6,0.9,0.3,1.1,0
			c0.2-0.2,0.4-0.7-0.1-1c-0.5-0.3-1.5-1-1.5-1l0.8-0.4c0,0,1.5,1.5,2.2,2.2c0.7,0.7,1.4-0.2,0.8-0.8c-0.6-0.5-2.1-1.9-2.1-1.9
			s0.3,0,0.4-0.2c0.2-0.2,0.1-0.7,0.1-0.7s0.1-0.3,0.3-0.3c0.3,0,0.4,0.3,1.1,0.7c0.6,0.4,1-0.5,0.5-0.9c-0.5-0.3-1.3-0.9-1.6-1
			c-0.3-0.2-0.7,0.1-0.5,0.6c0.2,0.4-0.2,0.4-0.7,0.3c-0.5-0.1-0.6,0.3-0.6,0.8c0.1,0.5-0.4,0.3-0.7,0.1c-0.3-0.2-3.2-2.3-3.2-2.3
			s0-7.4,0-8c-0.4-0.7,0.4-1,0.8-0.6c0.4,0.4,6.4,6.8,7.2,7.6c1.1,0.5,1.3-0.3,1.3-0.3v-8.4L162.8,46.7z M147.3,55.3l0.7-1.3h0
			l0.7,1.3H147.3z M148.8,51.7h-0.8h-0.8v-1.9h0.8h0.8V51.7z M152,49.2h-4h-4V48h4h4V49.2z"/>
		<g>
			<path class="st0" d="M152.1,59.1c0,0.3-0.3,0.6-0.6,0.6h-7.9c-0.3,0-0.6-0.3-0.6-0.6l0,0c0-0.3,0.3-0.6,0.6-0.6h7.9
				C151.8,58.5,152.1,58.8,152.1,59.1L152.1,59.1z"/>
			<path class="st0" d="M153.9,60.9c0,0.3-0.3,0.6-0.6,0.6h-10.7c-0.3,0-0.6-0.3-0.6-0.6l0,0c0-0.3,0.3-0.6,0.6-0.6h10.7
				C153.7,60.3,153.9,60.6,153.9,60.9L153.9,60.9z"/>
			<path class="st0" d="M155.6,62.6c0,0.3-0.3,0.6-0.6,0.6h-13.9c-0.3,0-0.6-0.3-0.6-0.6l0,0c0-0.3,0.3-0.6,0.6-0.6H155
				C155.3,62,155.6,62.3,155.6,62.6L155.6,62.6z"/>
			<path class="st0" d="M156.9,64c-0.9,0-16.9,0-17.7,0c-0.8,0-1.1,0.4-1.1,0.4s-0.7,1-1.4,2c-0.5,0.7,0.1,1.4,1,1.4
				c0.9,0,19.2,0,20.2,0c1.5,0,2.1-0.7,1.6-1.3c-0.8-1.1-1.5-2-1.5-2S157.8,64,156.9,64z"/>
		</g>
		<path class="st0" d="M143,101.2c-6.7,1.3-11.2-3.2-11.5-7.2c-0.3-4,0.4-7.6,4.5-10.8c5.4-3.9,9.1-4.7,10.1-7.2
			c1-2.5-1.7-4.8-1.7-4.8s-1.2-1-2.9-0.7c-3.4,0.5-2.6,4.2-2.6,4.2s0.4-1.7,2.2-1.5c1.2,0.1,2,0.9,2,2.4c0,1.5-0.7,2.9-2.3,3.1
			c-1.4,0.2-3.5-1-4.2-2.6c-0.6-1.5-0.9-3.4,0.9-5.4c1.9-2.2,4.8-2.5,7.6-1.4c2.8,1.1,3.4,3.4,3.8,4.9c1,5.3-2.7,7-3.5,7.6
			c-0.8,0.6-3,1.8-5.9,3.8c-3.6,2.6-3.7,7.8-2,10.9C138.6,98.1,139.4,99.6,143,101.2z"/>
		<path class="st0" d="M155.7,101.2c6.7,1.3,11.2-3.2,11.5-7.2c0.3-4-0.4-7.6-4.5-10.8c-5.4-3.9-9.1-4.7-10.1-7.2
			c-1-2.5,1.7-4.8,1.7-4.8s1.2-1,2.9-0.7c3.4,0.5,2.6,4.2,2.6,4.2s-0.4-1.7-2.2-1.5c-1.2,0.1-2,0.9-2,2.4c0,1.5,0.7,2.9,2.3,3.1
			c1.4,0.2,3.5-1,4.2-2.6c0.6-1.5,0.9-3.4-0.9-5.4c-1.9-2.2-4.8-2.5-7.6-1.4c-2.8,1.1-3.4,3.4-3.8,4.9c-1,5.3,2.7,7,3.5,7.6
			c0.8,0.6,3,1.8,5.9,3.8c3.6,2.6,3.7,7.8,2,10.9C160.1,98.1,159.3,99.6,155.7,101.2z"/>
		<path class="st0" d="M155.3,92.9c0.6-0.1,1.2-0.3,1.8-0.5c-0.4-0.4-1-0.8-1.6-1.1c0.6-0.2,1.1-0.6,1.6-1c-0.5-0.3-1.1-0.5-1.8-0.6
			c0.5-0.4,0.9-0.8,1.3-1.3c-0.6-0.1-1.2-0.2-1.9-0.1c0.4-0.5,0.7-1,0.9-1.6c-0.6,0-1.2,0.1-1.9,0.4c0.2-0.6,0.4-1.2,0.5-1.8
			c-0.5,0.2-1.2,0.4-1.8,0.8c0.1-0.6,0.1-1.2,0-1.9c-0.5,0.3-1,0.7-1.5,1.3c-0.1-0.6-0.3-1.2-0.5-1.8c-0.4,0.4-0.8,1-1.1,1.6
			c-0.2-0.6-0.6-1.1-0.9-1.6c-0.3,0.5-0.5,1.1-0.7,1.8c-0.4-0.5-0.8-0.9-1.3-1.3c-0.1,0.6-0.2,1.2-0.2,1.9c-0.5-0.4-1-0.7-1.6-0.9
			c0,0.6,0.1,1.2,0.4,1.9c-0.6-0.2-1.2-0.4-1.8-0.5c0.1,0.6,0.4,1.2,0.8,1.8c-0.6-0.1-1.2-0.1-1.9,0c0.3,0.5,0.7,1,1.3,1.5
			c-0.6,0.1-1.2,0.2-1.8,0.5c0.4,0.4,1,0.8,1.6,1.1c-0.6,0.2-1.1,0.5-1.6,0.9c0.5,0.3,1.1,0.5,1.8,0.7c-0.5,0.4-0.9,0.8-1.3,1.3
			c0.6,0.1,1.2,0.2,1.9,0.2c-0.4,0.5-0.7,1-0.9,1.6c0.6,0,1.2-0.1,1.9-0.3c-0.2,0.6-0.4,1.2-0.5,1.8c0.6-0.2,1.3-0.5,2-1
			c-0.1,0.7-0.1,1.4,0,2.1c0.5-0.3,1-0.8,1.5-1.3c0.1,0.6,0.3,1.2,0.5,1.8c0.4-0.4,0.8-1,1.1-1.6c0.3,0.6,0.6,1.1,1,1.6
			c0.3-0.5,0.5-1.1,0.6-1.8c0.4,0.5,0.8,0.9,1.3,1.3c0.1-0.6,0.2-1.2,0.1-1.9c0.5,0.4,1,0.7,1.6,0.9c0-0.6-0.1-1.2-0.4-1.9
			c0.6,0.2,1.2,0.4,1.8,0.4c-0.2-0.5-0.5-1.2-0.9-1.7c0.6,0.1,1.2,0.1,1.9,0C156.3,93.9,155.9,93.4,155.3,92.9z M147.6,90.1
			c-1.1,0.1-2.1-1.3-2.3-2.2C146.5,88,147.6,88.9,147.6,90.1z M143.9,91.7c1-0.7,2.4-0.8,3.2,0C146.3,92.5,144.7,92.3,143.9,91.7z
			 M145.6,95.5c0.2-1.2,1.1-2.3,2.2-2.3C147.9,94.3,146.6,95.3,145.6,95.5z M149.1,86.1c0.7,1,0.8,2.4,0,3.2
			C148.3,88.6,148.6,86.9,149.1,86.1z M149.5,97c-0.7-1-0.8-2.4,0-3.2C150.3,94.5,150,96.1,149.5,97z M149.3,92.8
			c-0.7,0-1.3-0.6-1.3-1.3c0-0.7,0.6-1.3,1.3-1.3c0.7,0,1.3,0.6,1.3,1.3C150.6,92.3,150,92.8,149.3,92.8z M153,87.5
			c-0.2,1.2-1.1,2.3-2.2,2.3C150.7,88.7,152,87.8,153,87.5z M151,93c1.1-0.1,2.1,1.3,2.3,2.2C152.1,95.1,151,94.1,151,93z
			 M151.5,91.4c0.7-0.8,2.4-0.6,3.2,0C153.8,92.1,152.3,92.2,151.5,91.4z"/>
		<path class="st0" d="M156.4,141.5c0.6-0.1,1.2-0.3,1.8-0.5c-0.4-0.4-1-0.8-1.6-1.1c0.6-0.2,1.1-0.6,1.6-1
			c-0.5-0.3-1.1-0.5-1.8-0.6c0.5-0.4,0.9-0.8,1.3-1.3c-0.6-0.1-1.2-0.2-1.9-0.1c0.4-0.5,0.7-1,0.9-1.6c-0.6,0-1.2,0.1-1.9,0.4
			c0.2-0.6,0.4-1.2,0.5-1.8c-0.6,0.2-1.2,0.4-1.8,0.8c0.1-0.6,0.1-1.2,0-1.9c-0.5,0.3-1,0.7-1.5,1.3c-0.1-0.6-0.3-1.2-0.5-1.8
			c-0.4,0.4-0.8,1-1.1,1.6c-0.2-0.6-0.6-1.1-0.9-1.6c-0.3,0.5-0.5,1.1-0.6,1.8c-0.4-0.5-0.8-0.9-1.3-1.3c-0.1,0.6-0.2,1.2-0.2,1.9
			c-0.5-0.4-1-0.7-1.6-0.9c0,0.6,0.1,1.2,0.4,1.9c-0.6-0.2-1.2-0.4-1.8-0.5c0.1,0.5,0.4,1.2,0.8,1.8c-0.6-0.1-1.2-0.1-1.9,0
			c0.3,0.5,0.7,1,1.3,1.5c-0.6,0.1-1.2,0.2-1.8,0.5c0.4,0.4,1,0.8,1.6,1.1c-0.6,0.2-1.1,0.5-1.6,0.9c0.5,0.3,1.1,0.5,1.8,0.7
			c-0.5,0.4-0.9,0.8-1.3,1.3c0.6,0.2,1.2,0.2,1.9,0.2c-0.4,0.5-0.7,1-0.9,1.6c0.6,0,1.2-0.1,1.9-0.3c-0.2,0.6-0.4,1.2-0.5,1.8
			c0.6-0.2,1.3-0.5,2-1c-0.1,0.7-0.1,1.4,0,2.1c0.5-0.3,1-0.7,1.5-1.3c0.1,0.6,0.3,1.2,0.5,1.8c0.4-0.4,0.8-1,1.1-1.6
			c0.3,0.6,0.6,1.1,1,1.6c0.3-0.5,0.5-1.1,0.6-1.8c0.4,0.5,0.8,0.9,1.4,1.3c0.1-0.6,0.2-1.2,0.1-1.9c0.5,0.4,1,0.7,1.6,0.9
			c0-0.6-0.1-1.2-0.4-1.9c0.6,0.2,1.2,0.4,1.8,0.4c-0.2-0.6-0.5-1.2-0.9-1.7c0.6,0.1,1.2,0.1,1.9,0
			C157.4,142.5,156.9,141.9,156.4,141.5z M148.7,138.6c-1.1,0.1-2.1-1.3-2.3-2.2C147.6,136.6,148.7,137.5,148.7,138.6z M144.9,140.3
			c1-0.7,2.4-0.8,3.2,0C147.4,141.1,145.8,140.8,144.9,140.3z M146.7,144.1c0.2-1.2,1.1-2.3,2.2-2.3
			C149,142.9,147.6,143.9,146.7,144.1z M150.2,134.6c0.7,1,0.8,2.4,0,3.2C149.4,137.1,149.6,135.5,150.2,134.6z M150.6,145.5
			c-0.7-1-0.8-2.4,0-3.2C151.4,143,151.1,144.7,150.6,145.5z M150.4,141.4c-0.7,0-1.3-0.6-1.3-1.3c0-0.7,0.6-1.3,1.3-1.3
			c0.7,0,1.3,0.6,1.3,1.3C151.7,140.8,151.1,141.4,150.4,141.4z M154.1,136.1c-0.2,1.2-1.1,2.3-2.2,2.3
			C151.7,137.3,153.1,136.3,154.1,136.1z M152.1,141.6c1.1-0.1,2.1,1.3,2.3,2.2C153.1,143.6,152.1,142.7,152.1,141.6z M152.6,139.9
			c0.7-0.8,2.4-0.6,3.2,0C154.8,140.6,153.4,140.7,152.6,139.9z"/>
		<path class="st0" d="M147.5,106.5c0,0-4.6,0.6-6.5-0.2c-1.9-0.9-3.7-1.8-6.7-1.8c-3,0-6.6,1.4-6.6,1.4s1.8,0,3.9,2.1
			c1.9,1.8,6.7,2.5,10.1,1.7C145.8,108.5,147.5,106.5,147.5,106.5z"/>
		<path class="st0" d="M151.2,106.5c0,0,4.6,0.6,6.5-0.2c1.9-0.9,3.7-1.8,6.7-1.8c3,0,6.6,1.4,6.6,1.4s-1.8,0-3.9,2.1
			c-1.9,1.8-6.7,2.5-10.1,1.7C153,108.5,151.2,106.5,151.2,106.5z"/>
		<path class="st0" d="M174.2,151.6c0.3-1,1.9-2.4,3.6-3.7c2-1.5,3.9-5.3,4.4-8.3c0.8-4.7-0.9-8-0.9-8s0.1,3.3-2.1,5.9
			c-1.9,2.3-3.7,4.4-4.6,7.8C173.6,149.2,174.1,150.3,174.2,151.6z"/>
		<path class="st0" d="M121.4,99.6"/>
		<path class="st0" d="M121.3,79.7c-4.5,0.1-6,5.2-6,7.3c0,2.1,0.8,7.3,6,13.3c5.6-6.5,6-11.7,6-13.5
			C127.3,85,125.8,79.6,121.3,79.7z M124.5,89.8c-0.1,1.5-0.5,5.6-3.1,9.8c-2.5-4.8-3.1-8.4-3.1-9.8c0.1-1.6,0.6-3.9,3-4
			C123.7,85.8,124.5,88.4,124.5,89.8z"/>
		<path class="st0" d="M120.4,73.9c0,0-4.9-5.7-3.2-11.3c0.9-3,3.7-5,5.6-5c2.9,0,3.2,2.7,2.6,4.5c-0.9,2.3-3.5,4.4-4.3,6.2
			C119.6,71.6,120.4,73.9,120.4,73.9z"/>
		<path class="st0" d="M118.1,75.9c0,0-5.9-4.8-11.4-2.9c-3,1-4.9,3.9-4.9,5.7c0.1,2.9,2.7,3.2,4.5,2.5c2.2-0.9,4.3-3.6,6.1-4.4
			C115.8,75.2,118.1,75.9,118.1,75.9z"/>
		<g>
			<path class="st0" d="M112.6,70c-1.5-0.3-6.4-2-11.4-0.1c-2.7,1.1-6.7,4.7-10.8,4.4c-2.5-0.2-6.4-1.1-7.1-5.7
				c-0.7-4.3,2.3-6.7,4.1-7.4c2-0.7,4-0.2,5.1,0.8c0.9,0.8,1.9,3.2,1,4.6c-0.8,1.2-3.1,2-4.3,0.5c-1.5-1.8-0.3-3.4,1-3.7
				C90,63.1,88,62.7,86.7,64c-1.7,1.7-1,4.4,0.4,5.5c4,3.2,9.3-0.3,11.4-1.3C105.2,65.1,110.8,67.7,112.6,70z"/>
		</g>
		<g>
			<path class="st0" d="M114.2,69.4c-0.3-1.5-2-6.4,0.1-11.4c1.1-2.7,4.8-6.7,4.5-10.7c-0.2-2.5-1-6.4-5.6-7.2
				c-4.3-0.7-6.8,2.2-7.4,4c-0.7,2-0.2,4,0.8,5.1c0.8,0.9,3.1,1.9,4.6,1c1.2-0.8,2-3,0.5-4.3c-1.8-1.5-3.4-0.3-3.7,1
				c-0.4-0.4-0.8-2.4,0.5-3.6c1.7-1.7,4.4-0.9,5.5,0.5c3.1,4-0.4,9.3-1.4,11.4C109.4,61.9,112,67.5,114.2,69.4z"/>
		</g>
		<g>
			<path class="st0" d="M113.4,149.9c-1.5-0.3-6.4-1.9-11.4,0.2c-2.7,1.1-6.7,4.8-10.7,4.6c-2.5-0.1-6.4-0.9-7.2-5.5
				c-0.8-4.3,2.2-6.8,3.9-7.4c2-0.7,4-0.2,5.1,0.7c1,0.8,2,3.1,1.1,4.6c-0.8,1.2-3,2-4.3,0.6c-1.5-1.8-0.3-3.4,1-3.7
				c-0.4-0.4-2.4-0.8-3.6,0.5c-1.7,1.7-0.9,4.4,0.5,5.5c4,3.1,9.3-0.4,11.4-1.5C105.9,145.2,111.5,147.6,113.4,149.9z"/>
		</g>
		<g>
			<path class="st0" d="M115,149.2c-0.3-1.5-2.1-6.4-0.2-11.4c1-2.7,4.6-6.8,4.3-10.8c-0.2-2.5-1.1-6.4-5.7-7.1
				c-4.3-0.6-6.7,2.3-7.3,4.1c-0.7,2-0.1,4,0.9,5.1c0.8,0.9,3.2,1.9,4.6,0.9c1.2-0.8,2-3.1,0.4-4.3c-1.8-1.5-3.4-0.2-3.7,1.1
				c-0.4-0.4-0.8-2.3,0.4-3.6c1.7-1.7,4.4-1,5.5,0.4c3.2,3.9-0.2,9.3-1.2,11.5C110.1,141.9,112.7,147.4,115,149.2z"/>
		</g>
		<path class="st0" d="M99.2,53.9c0,0-2.6,1.5-3.9,0.6c-0.3-0.2-0.6-0.8-1-1c-0.9-0.6-1.2,0.6-1,0.9c0.6,1.3,1.5,1.3,2.1,1.3
			c1.3-0.1,4.8-0.9,6.1-0.9c5,0.1,6.6-0.7,9.1-1.2c1.4-0.3,1.6,0.7,1.3,1.1c-0.3,0.5-0.5,1.1-2.1,1.3c-2.8,0.3-9.5,0.3-11.2,0.6
			c-0.4,0.1-0.3,0.4,0.1,0.4c2.7,0,10.6-0.1,10.6-0.1l-1.2,1.7c0,0-7.4-0.8-9.5-1c-0.5-0.1-0.7,0.4-0.1,0.6c2.2,0.4,8.4,1.2,8.4,1.2
			l-1.6,1.2c0,0-6.6-0.3-9.3-1c-2.1-0.6-4.2-2.3-4.6-3.5c-0.9-2-0.3-3.8,1-4.2c1.5-0.6,2.7,0,3.5,0.2C97.6,52.5,99.2,53.9,99.2,53.9
			z"/>
		<g>
			<path class="st0" d="M96.3,60.4c-1.6-0.5-5-1.9-5.5-4.2c-0.5-2.5,0.3-4.3,1-5.1c0.9-0.9,2-0.8,2.6-0.5c1,0.5,2.7,0.3,3.5-0.7
				c1-1.3,0.8-2.6,0.1-3.4c-0.7-0.8-2-1.4-3.2-1.4c-0.9,0-2.4,0.3-3.3-0.3c-4.6-3.2-6.4-3.2-6.4-3.2s4.3,4.2,4.9,5.3
				c0.5,1,0.9,2.2-0.2,3.8c-1,1.6-1.6,4.1-0.4,6.5c1.2,2.4,4.7,4.2,7.2,4.9c2.5,0.6,6.8,0.7,6.8,0.7l0.9-1.7
				C104.3,61,99,61.3,96.3,60.4z M94.7,46.8c0.7,0,1.2,0.5,1.2,1.2c0,0.7-0.5,1.2-1.2,1.2c-0.7,0-1.2-0.5-1.2-1.2
				C93.5,47.3,94,46.8,94.7,46.8z"/>
			<path class="st0" d="M94.7,48.7c0.4,0,0.7-0.3,0.7-0.7c0-0.4-0.3-0.7-0.7-0.7c-0.4,0-0.7,0.3-0.7,0.7
				C94,48.4,94.3,48.7,94.7,48.7z"/>
		</g>
		<path class="st0" d="M101.2,52.2c0,0-1.1-0.5-1.1-0.8c0-1,1.1-2.2,2.3-2.2c1.5,0,2.3,0.9,2.3,2.4c-0.1,1.7-1.8,2.7-1.8,2.7
			s0.7-1.2,0.6-2.5c0-0.5-0.4-1.1-1.1-1.1C101,50.7,101.2,52.2,101.2,52.2z"/>
		<path class="st0" d="M97.2,44.5c-1.2,0-1.2-1.4,0.1-1.4c2.2-0.1,6.4,1.8,7.3,3.6c0.5,1-0.6,1.5-1.3,0.7
			C102.3,46.1,99.4,44.5,97.2,44.5z"/>
		<path class="st0" d="M89.9,42.7c0.4-0.3,2-1.5,2.6-2c0.2-0.2,0.4-0.7,0-1c-0.5-0.4-0.8-0.2-1-0.1c-0.1,0.1-0.4,0.5-0.5,0.7
			c-0.4,0.7-1.3,0.5-1.6,0.2c-0.2-0.2-0.5-0.6-0.7-0.8C88.2,39,88.5,38.4,89,38c0.5-0.5,1.2-1.3,1.8-1.7c1.2-0.9,2.3,0.1,2.5,0.5
			c2.5-0.2,2.2,1.6,2.1,2.5c1.2,1.1,0.7,1.8-0.6,2.7c0.2,1.9-1.1,2.2-2.3,2.2c-0.8,0-1.6-0.4-1.6-0.4s2.1-1.4,2.6-2
			c0.7-0.7,1-1.3,0.8-2.3C94,38.6,93,37.9,93,37.9s-1.4-0.8-2.5,0c-0.2,0.2-0.6,0.6-0.8,0.9c-0.2,0.4,0.2,0.7,0.6,0.3
			c0.2-0.2,0.5-0.7,0.9-0.8c0.9-0.4,1.8,0.2,2.2,0.8c0.5,0.7,0.4,1.7-0.4,2.4c-0.6,0.5-1.8,1.4-2.4,1.9C90,43.8,89.4,43.1,89.9,42.7
			z"/>
		<path class="st0" d="M100.3,39.1c-1.9,0.2-4.3-0.3-4.3-3c0.1-3.6,4.6-4.7,6.6-4.6c6.1,0.1,10,6.7,10,6.7s-3-1.4-4.8-1.3
			C105.1,37.1,102.9,38.9,100.3,39.1z"/>
		<path class="st0" d="M84.6,54.3c0.8-1.7,1.2-4.2-1.4-5c-3.4-1.1-5.9,2.7-6.6,4.6c-2,5.8,3,11.6,3,11.6s-0.3-3.3,0.4-4.9
			C81,58.2,83.4,56.7,84.6,54.3z"/>
		<path class="st0" d="M114.8,97.8c-0.8-0.1-7.8-0.1-8-7.3c3.5-1,2.3-4.6,0.3-5.4c-2-0.7-5.1,0.5-5.4,4c-0.3,3.2,2.1,6.5,4.3,7.8
			C108.3,98.2,110.8,98.6,114.8,97.8z"/>
		<path class="st0" d="M114.6,99.7c-0.8,0.1-7.8,0.1-8.1,7.3c3.5,1.1,2.3,4.7,0.3,5.4c-2,0.7-5.1-0.5-5.4-4
			c-0.3-3.2,2.1-6.5,4.3-7.7C108.2,99.2,110.7,98.9,114.6,99.7z"/>
		<path class="st0" d="M113.8,108c-2.2-3.5,1-6.1,3.7-4.1c2.7,2.1,3.3,5.7,8.4,5.7C120,112.6,115.4,110.6,113.8,108z"/>
		<path class="st0" d="M169,86.9c0,1.8,0.4,7,6,13.5c5.3-6,6-11.2,6-13.3c0-2.1-1.5-7.2-6-7.3C170.5,79.6,169,85,169,86.9z
			 M175,85.8c2.4,0.1,2.9,2.3,3,4c0.1,1.4-0.5,5.1-3.1,9.8c-2.6-4.2-3.1-8.4-3.1-9.8C171.8,88.4,172.6,85.8,175,85.8z"/>
		<path class="st0" d="M171.3,74c0,0,4.9-5.7,3.2-11.3c-0.9-3-3.7-5-5.6-5c-2.9,0-3.2,2.7-2.6,4.5c0.9,2.3,3.5,4.4,4.3,6.2
			C172,71.7,171.3,74,171.3,74z"/>
		<path class="st0" d="M179.2,38.2c0,0,3.8-6.5,9.6-6.7c3.2-0.1,6,1.9,6.6,3.6c1,2.8-1.4,3.9-3.4,3.9c-2.4-0.1-5.3-1.9-7.2-2
			C181.1,36.8,179.2,38.2,179.2,38.2z"/>
		<path class="st0" d="M209.7,68.1c0,0,6.5-3.8,6.8-9.6c0.1-3.2-1.9-6-3.6-6.6c-2.8-1-3.9,1.4-3.9,3.4c0.1,2.4,1.9,5.3,2,7.2
			C211.1,66.3,209.7,68.1,209.7,68.1z"/>
		<path class="st0" d="M173.6,76.1c0,0,5.9-4.8,11.4-2.9c3,1,4.9,3.9,4.9,5.7c-0.1,2.9-2.7,3.2-4.5,2.5c-2.2-0.9-4.3-3.6-6.1-4.4
			C175.8,75.4,173.6,76.1,173.6,76.1z"/>
		<g>
			<path class="st0" d="M179,70.1c1.5-0.3,6.4-2,11.4-0.1c2.7,1.1,6.7,4.7,10.8,4.4c2.5-0.2,6.4-1.1,7.1-5.7
				c0.7-4.3-2.3-6.8-4.1-7.4c-2-0.7-4-0.2-5.1,0.8c-0.9,0.8-1.9,3.2-1,4.6c0.8,1.2,3.1,2,4.3,0.5c1.5-1.8,0.3-3.4-1-3.7
				c0.4-0.4,2.4-0.8,3.6,0.4c1.7,1.7,1,4.4-0.4,5.5c-4,3.2-9.3-0.3-11.4-1.3C186.4,65.3,180.9,67.8,179,70.1z"/>
		</g>
		<g>
			<path class="st0" d="M177.4,69.5c0.3-1.5,2-6.4-0.1-11.4c-1.1-2.7-4.8-6.7-4.5-10.7c0.2-2.5,1-6.4,5.6-7.2c4.3-0.7,6.8,2.2,7.4,4
				c0.7,2,0.2,4-0.8,5.1c-0.8,0.9-3.1,1.9-4.6,1c-1.2-0.8-2-3-0.5-4.3c1.8-1.5,3.4-0.3,3.7,1c0.4-0.4,0.8-2.4-0.5-3.6
				c-1.7-1.7-4.4-0.9-5.5,0.5c-3.1,4,0.4,9.3,1.4,11.4C182.2,62,179.7,67.7,177.4,69.5z"/>
		</g>
		<path class="st0" d="M179.8,97.8c0.8-0.1,7.8-0.1,8-7.3c-3.5-1-2.3-4.6-0.3-5.4c2-0.7,5.1,0.5,5.4,4c0.3,3.2-2.1,6.5-4.3,7.8
			C186.3,98.2,183.8,98.6,179.8,97.8z"/>
		<path class="st0" d="M180,99.7c0.8,0.1,7.8,0.1,8.1,7.3c-3.5,1.1-2.3,4.7-0.3,5.4c2,0.7,5.1-0.5,5.4-4c0.3-3.2-2.1-6.5-4.3-7.7
			C186.4,99.2,183.9,98.9,180,99.7z"/>
		<path class="st0" d="M179.8,108c2.2-3.5-1-6.1-3.7-4.1c-2.7,2.1-3.3,5.7-8.4,5.7C173.7,112.6,178.2,110.6,179.8,108z"/>
		<path class="st0" d="M103.9,127.8c-3.1-0.3-8.9-4.9-4.9-11.1c3.9-6.2,11-2.2,12,0c-1.3-0.3-5.7-1.2-7.9,2.2
			C100.2,123.5,102.9,126.8,103.9,127.8z"/>
		<path class="st0" d="M185.6,127c-1.8-3.5,0-10.9,7.4-10.6c7.3,0.3,8.1,7.8,6.6,10.5c-0.4-1.3-2.1-5.3-6.2-5.5
			C188,121,186,125.6,185.6,127z"/>
		<path class="st0" d="M79.4,144.6c-2.3-2-4.5-9.1,2.3-11.9c6.7-2.8,10.3,4.6,9.8,6.9c-0.9-1-3.9-4.2-7.7-2.7
			C78.8,138.9,79.2,143.2,79.4,144.6z"/>
		<path class="st0" d="M89.7,119.7c-4.5,3.5-9.4,4.4-12.9,4.3c-3.4-0.1-8.5-2.5-9.2-6.4c-0.3-1.6,0.4-4.9,3.1-5.7
			c-0.9,0.7-1.5,2.4-0.5,3.7c1,1.3,3.5,1.1,4.6-0.1c1.1-1.2,0.9-3.3,0.3-4.2c-0.8-1.2-2.8-2.4-5.2-2c-3.3,0.6-4.7,3.2-5.3,5.4
			c-0.5,2.2-0.2,6.1,2.9,8.6c2.2,1.7,5.7,3.7,10.5,3.5C82.2,126.5,88.2,122.9,89.7,119.7z"/>
		<path class="st0" d="M142.4,178.2c-4.3,2.6-11,2.1-14.4,0.3c-2.7-1.4-7-4.3-6.9-7.9c0-1.5,1.2-3.6,3.7-3.8
			c-0.9,0.4-1.6,1.7-0.9,3.1c0.6,1.3,2.5,1.6,3.9,0.8c1.3-0.7,1.6-2.2,1.3-3.4c-0.3-1.5-2.2-3-4.4-3.1c-3-0.1-5.4,1.6-6.3,3.4
			c-0.9,1.8-1.2,5.3,1,8.3c1.5,2,4.6,4.6,8.8,5.7C131.9,182.6,137.2,182.7,142.4,178.2z"/>
		<path class="st0" d="M159.8,178.2c4.3,2.6,11,2.1,14.4,0.3c2.7-1.4,7-4.3,6.9-7.9c0-1.5-1.2-3.6-3.7-3.8c0.9,0.4,1.6,1.7,0.9,3.1
			c-0.6,1.3-2.5,1.6-3.9,0.8c-1.3-0.7-1.6-2.2-1.3-3.4c0.3-1.5,2.2-3,4.4-3.1c3-0.1,5.4,1.6,6.3,3.4c0.9,1.8,1.2,5.3-1,8.3
			c-1.5,2-4.6,4.6-8.8,5.7C170.2,182.6,164.9,182.7,159.8,178.2z"/>
		<path class="st0" d="M172.4,154.7c-1.2-1.6-4.1-3.5-7.7-2.9c-2.4,0.4-6.2,2-9,5c-2.5,2.7-4.8,6.9-3.7,12.8c-0.3-0.1-0.6-0.1-1-0.1
			c-4.5,0.1-6,5.2-6,7.3c0,2.1,0.8,7.3,6,13.3c5.6-6.5,6-11.7,6-13.5c0-1.7-1.3-6.2-4.8-7c0.2-4.7,3.4-9.7,6.3-11.6
			c2.5-1.7,7-4.1,10.1-2.4c1.3,0.7,2.6,2.7,1.7,5c0-1-0.8-2.2-2.3-2.2c-1.4-0.1-2.5,1.5-2.5,3.1c0.1,1.4,1.2,2.4,2.4,2.7
			c1.5,0.4,3.7-0.5,4.7-2.4C174.1,159.2,173.6,156.3,172.4,154.7z M154.1,179.6c-0.1,1.5-0.5,5.6-3.1,9.8c-2.5-4.8-3.1-8.4-3.1-9.8
			c0.1-1.7,0.6-3.9,3-4C153.4,175.6,154.2,178.2,154.1,179.6z"/>
		<path class="st0" d="M205.3,120.9c3.7,3.5,10.5,4.1,14.2,3.7c3.2-0.4,7.3-2.6,7.8-6.3c0.2-1.5-0.5-4.6-2.9-5.3
			c0.8,0.6,1,2.2,0.2,3.5c-0.8,1.2-2.7,1.1-3.9,0c-1.1-1-1.2-2.6-0.8-3.7c0.6-1.5,2.6-2.7,4.8-2.4c2.9,0.4,5,2.7,5.6,4.7
			c0.6,2.1,0.5,6-2.1,8.6c-1.8,1.8-5,3.7-9.2,4C215.1,128,209.6,126.4,205.3,120.9z"/>
		<path class="st0" d="M205.4,75.1c3.7-3.5,10.5-4.1,14.2-3.7c3.2,0.4,7.3,2.6,7.8,6.3c0.2,1.5-0.5,4.6-2.9,5.3
			c0.8-0.6,1-2.2,0.2-3.5c-0.8-1.2-2.7-1.1-3.9,0c-1.1,1-1.2,2.6-0.8,3.7c0.6,1.5,2.6,2.7,4.8,2.4c2.9-0.4,5-2.7,5.6-4.7
			c0.6-2.1,0.5-6-2.1-8.6c-1.8-1.8-5-3.7-9.2-4C215.2,67.9,209.7,69.5,205.4,75.1z"/>
		<path class="st0" d="M89.7,80.2c-4.5-3.5-9.4-4.4-12.9-4.3c-3.4,0.1-8.5,2.5-9.2,6.4c-0.3,1.6,0.4,4.9,3.1,5.7
			c-0.9-0.7-1.5-2.4-0.5-3.7c1-1.3,3.5-1.1,4.6,0.1c1.1,1.2,0.9,3.3,0.3,4.2c-0.8,1.2-2.8,2.4-5.2,2c-3.3-0.6-4.7-3.2-5.3-5.4
			c-0.5-2.2-0.2-6.1,2.9-8.6c2.2-1.7,5.7-3.7,10.5-3.5C82.2,73.4,88.2,77,89.7,80.2z"/>
		<path class="st0" d="M73.8,97.1c-1.3-1-0.7-3,0.8-3.8c2.2-1.2,4.7-1,5.9-0.2c1.1,0.7,1.7,1.8,1.7,3.3c0,1-0.4,2-2,3.1
			c-0.9,0.6-2.5,1.2-4,1.3c-1.9,0.1-2-1.2-1.8-1.8C74.5,98.1,74.2,97.4,73.8,97.1z"/>
		<path class="st0" d="M99,97.1c1.3-1,0.7-3-0.8-3.8c-2.2-1.2-4.7-1-5.9-0.2c-1.1,0.7-1.7,1.8-1.7,3.3c0,1,0.4,2,2,3.1
			c0.9,0.6,2.5,1.2,4,1.3c1.9,0.1,2-1.2,1.8-1.8C98.3,98.1,98.6,97.4,99,97.1z"/>
		<g>
			<path class="st0" d="M89.3,87.9c0.5,0.6,0.6,2.1-0.8,2.3c-1.9,0.3-2.3-3.5-2.3-4.2c0-0.6,0.4-4.5,2.3-4.2
				c1.4,0.2,1.3,1.7,0.8,2.3c0.8-0.3,1.5-1.7,0.4-2.9c-0.5-0.6-1.5-0.8-2.4-0.3c-0.8,0.5-1.1,1.8-1.2,3c-0.1-1.2-0.4-2.5-1.2-3
				c-0.9-0.6-1.8-0.3-2.4,0.3c-1.1,1.1-0.4,2.6,0.4,2.9c-0.5-0.6-0.6-2.1,0.8-2.3c1.9-0.3,2.3,3.5,2.3,4.2c0,0.6-0.4,4.5-2.3,4.2
				c-1.4-0.2-1.3-1.7-0.8-2.3c-0.8,0.3-1.5,1.7-0.4,2.9c0.5,0.6,1.5,0.8,2.4,0.3c0.8-0.5,1.1-1.8,1.2-3c0.1,1.2,0.4,2.5,1.2,3
				c0.9,0.6,1.8,0.3,2.4-0.3C90.8,89.7,90.1,88.2,89.3,87.9z M86.1,86C86.1,86,86.1,86,86.1,86C86.1,86.1,86.1,86.1,86.1,86z"/>
			<path class="st0" d="M83.4,87.8c0.2,0.4,0.9,0.7,1.4,0.5c0.7-0.3,0.9-1.5,1-2c0-0.1,0-0.2,0-0.3c-0.1-0.6-0.4-1.7-1.2-2.1
				c-0.3-0.2-1-0.1-1.2,0.5c-0.3,0.9,0.4,1.7,0.4,1.7s-0.3-1.3,0.4-1.4c1-0.1,1.4,1.4,1.4,1.4s-0.4,1.6-1.4,1.6
				c-0.9-0.1-0.4-1.3-0.4-1.3S83,86.9,83.4,87.8z"/>
			<path class="st0" d="M88.8,84.3c-0.2-0.6-0.9-0.7-1.2-0.5c-0.8,0.4-1.1,1.5-1.2,2.1c0,0.1,0,0.2,0,0.3c0.2,0.5,0.3,1.7,1,2
				c0.6,0.3,1.2,0,1.4-0.5c0.4-0.9-0.5-1.5-0.5-1.5s0.5,1.3-0.4,1.3c-1,0.1-1.4-1.6-1.4-1.6s0.4-1.5,1.4-1.4
				c0.6,0.1,0.4,1.4,0.4,1.4S89.1,85.3,88.8,84.3z"/>
		</g>
		<path class="st0" d="M83.1,102.1c0.1-1.7,0.9-5.2,2.1-6.4c0.7-0.7,2-0.6,2.5,0c1,1.3,2,4.5,2.2,6.2c0.1,0.6,0.1,1.8-0.1,2.3
			c-0.2,0.5-0.4,1.4-1.4,1.4c-1,0-1.3-0.9-1.4-1.4c-0.3-0.7,0.4-2.3,0.2-3c-0.1-0.4-0.6-1-0.6-1.4c0-0.3,0.5-0.8,0.4-1.1
			c0-0.2-0.1-0.5-0.5-0.5c-0.4,0-0.6,0.3-0.7,0.5c-0.1,0.3,0.3,0.8,0.3,1.1c0,0.4-0.4,1.1-0.4,1.4c-0.1,0.7,0.4,2.3,0.1,3
			c-0.2,0.5-0.1,1.4-1.4,1.4c-1,0-1.2-1.1-1.3-1.6C83,103.6,83.1,102.6,83.1,102.1z"/>
		<polygon class="st0" points="78.4,110.7 78.6,109.9 78.9,109.9 78.8,110.9 		"/>
		<polygon class="st0" points="79.1,110.1 79.4,110.1 79.6,109.9 79.6,111.3 79.1,111.1 		"/>
		<polygon class="st0" points="79.9,111.4 80,110 80.3,110.4 80.6,109.8 80.6,111.6 80.1,111.6 		"/>
		<polygon class="st0" points="80.9,109.5 80.8,111.8 81.2,111.9 81.3,112.1 82,112.1 82.1,110.3 81.8,110.1 81.6,109.6 		"/>
		<polygon class="st0" points="82.5,109.8 82.5,110.9 82.2,112.1 82.8,112.4 83.7,112.4 83.9,110.6 83.3,109.8 		"/>
		<polygon class="st0" points="84.1,109.9 85,109.4 85.4,109.4 86,110 86.3,112 86.1,112.3 84.1,112.1 84.1,110.5 		"/>
		<polygon class="st0" points="87,109.7 86.6,111.9 86.8,112.3 88.9,112.2 88.7,110.6 88.9,110.1 88.7,109.7 87.8,109.3 		"/>
		<polygon class="st0" points="89.5,109.8 88.9,110.7 89.2,112.3 90.6,112.2 90.4,110.7 90.4,109.8 		"/>
		<polygon class="st0" points="91.3,109.6 90.7,110.3 91,112.2 92.1,111.8 92,109.6 		"/>
		<polygon class="st0" points="92.3,109.8 92.3,111.6 92.7,111.7 92.9,111.4 92.9,110 92.5,110.5 		"/>
		<polygon class="st0" points="93.2,110 93.3,111.3 93.8,111.1 93.7,109.9 93.4,110.3 		"/>
		<polygon class="st0" points="93.9,109.9 94,110.9 94.3,110.9 94.5,110.4 94.3,109.9 		"/>
		<polygon class="st0" points="78.4,111 78.1,112.4 78.4,112.7 78.8,111.3 78.8,111.1 		"/>
		<polygon class="st0" points="79,111.5 78.7,112.8 78.4,112.9 78.4,113.3 79.2,113.8 79.4,111.6 		"/>
		<polygon class="st0" points="79.5,112.1 79.8,112 80.4,112.4 80.1,114.7 79.5,114.3 		"/>
		<polygon class="st0" points="80.8,112.6 80.3,114.7 80.6,114.7 80.8,115.3 81.7,115.3 81.6,112.5 		"/>
		<polygon class="st0" points="82,113.3 82.7,112.8 83.7,112.8 83.5,115.1 83.3,115.6 82.3,115.5 82,115 		"/>
		<polygon class="st0" points="84,113.3 84.3,113 85.2,112.9 85.5,113.3 85.4,115.2 85,115.6 83.9,115.5 		"/>
		<polygon class="st0" points="85.8,113.4 86.5,113.1 87.2,113.4 87.2,115 86.4,115.2 85.7,115 		"/>
		<polygon class="st0" points="87.5,112.9 87.4,115.1 87.9,115.5 89,115.5 89,114.8 88.8,113.2 88.4,113 		"/>
		<polygon class="st0" points="89.2,112.9 89.3,115 89.7,115.6 90.5,115.5 91,115 91,113.2 90.2,112.8 		"/>
		<polygon class="st0" points="91.3,112.5 91.2,113.4 91.3,115.3 91.8,115.3 92.3,114.7 92.6,114.7 92.1,112.6 		"/>
		<polygon class="st0" points="92.7,111.9 92.4,112.6 92.9,114.8 93.2,114.7 93.4,114.2 93.2,111.9 		"/>
		<polygon class="st0" points="93.6,111.5 93.7,113.7 94.1,113.7 94.5,113.2 94.5,112.7 94.2,112.5 93.8,111.5 		"/>
		<path class="st0" d="M94.2,111.1c0,0.1,0.1,0.8,0.1,0.8l0.3,0.5l0.2-0.1l-0.3-1.3L94.2,111.1z"/>
		<path class="st0" d="M108.6,144.9c-7.6,1.8-11.9-4.4-13.1-8c-2.3-7.1-2.4-7.9-3.4-9.5c1.3,1.2,4.2,1.7,10.3,3.8
			c3.5,1.2,8.7,4.8,7.1,12.8c-2.4-5.7-10.1-8.9-10.1-8.9S103.5,142.7,108.6,144.9z"/>
		<path class="st0" d="M121.7,157.7c-2.3-1.8-4.9-5-12.3-4.9c-6.1,0.1-8.9,3.5-12.2,3.9c1.7,1,4.5,2.4,8.4,2.4
			C112,159.1,116.6,155.7,121.7,157.7z"/>
		<path class="st0" d="M122.2,156.9c-1.9-2.2-5.1-4.8-5-12.2c0.1-6.1,3.4-8.9,3.8-12.2c1,1.7,2.5,4.4,2.5,8.3
			C123.4,147.3,120.1,151.9,122.2,156.9z"/>
		<path class="st0" d="M122.4,160.4c0,0-5.8-2.6-8.6,0.4c-0.9,1-1.3,3.3,0.8,3.7c1.8,0.3,2.5-1,3.8-2.5
			C120.1,160.1,122.4,160.4,122.4,160.4z"/>
		<path class="st0" d="M124.9,158.1c0,0-2.7-5.7,0.3-8.6c1-0.9,3.3-1.4,3.7,0.7c0.4,1.8-1,2.5-2.5,3.9
			C124.6,155.8,124.9,158.1,124.9,158.1z"/>
		<path class="st0" d="M182.7,163.3c0,0,5.8-2.5,8.5,0.6c0.9,1,1.3,3.4-0.8,3.7c-1.8,0.3-2.5-1.1-3.8-2.6
			C185,163.1,182.7,163.3,182.7,163.3z"/>
		<path class="st0" d="M132.3,115.9c-1.8-0.8-5.7,0-7.4,1.9c-2.2,2.4-2.9,6.3-1,9.9c1.5,2.8,5.8,5.1,9.1,7c2.7,1.6,2.5,4.3,1,5.8
			c-0.6,0.6-2.4,1-3.6,0.5c-1-0.4-1.8-1.6-1.4-3.1c0.2,1,1.2,1.3,1.8,1.3c1.2-0.1,1.7-1.4,1.6-2.3c-0.1-1.3-0.8-2.2-2-2.4
			c-1.2-0.1-2.6,0.9-3.1,2.1c-0.6,1.5-0.4,3.7,1.1,5c1.5,1.3,3.9,1.6,5.7,0.8c2.2-1,3.3-3.3,3.2-5.3c-0.1-3.3-2-4.7-4.6-6.1
			c-2.4-1.3-5.3-3.3-5.6-6.2c-0.3-3.2,0.6-5,1.8-6.4C129.8,117.2,131.4,116.1,132.3,115.9z"/>
		<path class="st0" d="M168.8,115.9c1.8-0.8,5.7,0,7.4,1.9c2.2,2.4,2.9,6.3,1,9.9c-1.5,2.8-5.8,5.1-9.1,7c-2.7,1.6-2.5,4.3-1,5.8
			c0.6,0.6,2.4,1,3.6,0.5c1-0.4,1.8-1.6,1.4-3.1c-0.2,1-1.2,1.3-1.8,1.3c-1.2-0.1-1.7-1.4-1.6-2.3c0.1-1.3,0.8-2.2,2-2.4
			c1.2-0.1,2.6,0.9,3.1,2.1c0.6,1.5,0.4,3.7-1.1,5c-1.5,1.3-3.9,1.6-5.7,0.8c-2.2-1-3.3-3.3-3.2-5.3c0.1-3.3,2-4.7,4.6-6.1
			c2.4-1.3,5.3-3.3,5.6-6.2c0.3-3.2-0.6-5-1.8-6.4C171.2,117.2,169.6,116.1,168.8,115.9z"/>
		<path class="st0" d="M151.8,152c-0.4-0.8-1.3-0.7-1.7-0.5c-2.1,1-6.7,4.2-8.9,5.3c-0.2-0.3-0.7-0.9-0.7-0.9l0.6-1.3l-0.8-0.5
			l0.3-1.1l-0.5-0.2l0-0.5l-0.5-0.2c0.2-0.6,1.1-2.8,1.6-3.7c0.3-0.7,0.8-0.8,1.3-0.7c0.3,0,0.7,0.3,0.8,0.7c0,0.2-0.1,0.5-0.3,0.7
			c-0.2,0.2-0.3,0.1-0.4,0.1c-0.2,0-0.3-0.1-0.3-0.2c-0.1-0.1-0.3-0.2-0.4-0.1c-0.1,0.1-0.2,0.3-0.1,0.4c0.2,0.3,0.4,0.5,0.7,0.5
			c0.2,0,0.5,0.1,0.9-0.3c0.4-0.3,0.5-0.8,0.5-1.2c-0.1-0.6-0.7-1.1-1.3-1.2c-0.3,0-1.3-0.2-1.9,1c-0.5,1-1.3,3.1-1.6,3.8l-2-0.9
			c0.2-0.5,1.2-2.8,1.6-3.8c0.5-1.2-0.3-1.9-0.6-2.1c-0.4-0.3-1.1-0.5-1.7-0.1c-0.4,0.2-0.6,0.7-0.6,1.2c0,0.5,0.3,0.7,0.5,0.8
			c0.2,0.2,0.5,0.2,0.9,0.2c0.2,0,0.3-0.2,0.2-0.4c0-0.2-0.2-0.3-0.4-0.2c-0.1,0-0.3,0-0.4-0.1c-0.1-0.1-0.2-0.2-0.2-0.4
			c0-0.3,0.1-0.6,0.3-0.7c0.3-0.2,0.8-0.1,1,0.1c0.4,0.4,0.7,0.7,0.4,1.4c-0.4,1-1.4,3.3-1.6,3.8l-0.8-0.3l-0.2,0.4l-0.7-0.2l-0.5,1
			l-0.9-0.3l-0.7,1.5c0,0,0.9,0.4,1.5,0.6c-0.4,0.3-1.5,0.2-2.5,0.9c-0.4,0.3-0.7,1.3-0.4,1.6c0.4,0.7,1.4,0.5,1.9,0.3
			c0.7-0.4,1.4-0.2,1.9-0.4c0.5-1.3,0.7-1.6,1.3-1.4c0.2,0.1,1.1,0.4,1.2,0.6c0.4,0.4,0.2,0.7-0.2,1.5c0.6,0.4,1.3,0.9,1.8,1.7
			c0.5,0.9,0.6,2.3,0.5,3.2c0.4,0.2,1,0.2,0.7,1.1c-0.1,0.2-0.4,0.8-0.5,1c-0.3,0.7-0.9,0.3-1.2,0.1c-0.6,0.9-2.3,2-4.3,1.9
			c-1.7-0.2-2.8-1.2-3.3-2.1c-0.6-1-0.5-2.4,0.4-3.1c0.3-0.3,1.4-0.6,1.8-0.3c-0.3,0.1-0.5,0.6-0.5,1.1c0,0.5,0.7,1.2,1.6,1.1
			c1.2-0.2,1.9-1.2,1.8-2.3c-0.2-1.7-1.7-2.3-3.2-2.4c-1.9-0.1-3.2,1-4,2.1c-0.5-0.2-0.9-0.4-1.2,0.2c-0.1,0.3-0.3,0.6-0.4,1.1
			c-0.1,0.5,0.1,0.9,1,1.2c0,0.7,0.1,1.5,0.6,2.4c0.4,0.8,1.2,1.6,1.6,2c-0.1,0.3-0.7,1.3-0.2,1.7c0.3,0.2,0.9,0.5,1.3,0.6
			c0.7,0.1,0.9-0.8,1.2-1.3c0.5,0.4,1.5,0.4,2,0.5c1,0,1.7-0.1,2.2-0.3c0.7,2.7,1.6,7.3,2.2,9.6c0.1,0.4,0.7,0.8,1.5,0.6
			c0.8-0.3,0.8-0.9,0.7-1.2c-0.7-2.3-2.5-6.5-3.4-9.3c0.2-0.1,0.5-0.3,0.7-0.4c0.2,0,0.7,0.3,0.7,0.3l0.6-0.9l0.9,0.5l0.4-0.7
			l0.3,0.2l0.2-0.5c0.4,0.2,2.8,1.1,3.9,1.5c0.7,0.3,0.8,0.7,0.7,1.3c0,0.3-0.3,0.7-0.7,0.8c-0.2,0-0.5-0.1-0.7-0.3
			c-0.2-0.2-0.2-0.3-0.1-0.4c0-0.2,0.1-0.3,0.2-0.3c0.1-0.1,0.2-0.3,0.1-0.4c-0.1-0.1-0.3-0.2-0.4-0.1c-0.3,0.2-0.5,0.4-0.5,0.7
			c0,0.2-0.1,0.5,0.3,0.9c0.3,0.3,0.8,0.5,1.2,0.4c0.6-0.2,1.1-0.8,1.1-1.3c0-0.3,0.1-1.3-1.1-1.9c-1-0.5-3.4-1.3-3.9-1.5l0.9-2
			c0.5,0.2,2.8,1.2,3.9,1.6c1.2,0.4,1.9-0.4,2.1-0.6c0.3-0.4,0.4-1.2,0.1-1.7c-0.2-0.3-0.7-0.6-1.2-0.5c-0.5,0-0.7,0.3-0.8,0.5
			c-0.2,0.2-0.2,0.6-0.1,0.9c0,0.2,0.2,0.3,0.4,0.2c0.2,0,0.3-0.2,0.2-0.4c0-0.1,0-0.3,0-0.4c0.1-0.1,0.2-0.2,0.4-0.2
			c0.3,0,0.6,0.1,0.7,0.3c0.2,0.3,0.1,0.8,0,1c-0.3,0.4-0.7,0.7-1.4,0.4c-1-0.4-3.3-1.3-3.8-1.5l0.3-0.8l-0.3-0.2l0.2-0.5l-0.9-0.5
			l0.2-0.9c0,0-0.3-0.2-0.7-0.2c0-0.6-0.1-1.1-0.4-1.7c2.1-1.1,7.3-2.8,9.3-3.9C151.8,153.3,152.2,152.8,151.8,152z"/>
		<path class="st0" d="M168.1,170.8c0,2.5-2,4.5-4.5,4.5c-2.5,0-4.5-2-4.5-4.5c0-2.5,2-4.5,4.5-4.5
			C166.1,166.4,168.1,168.4,168.1,170.8z"/>
		<polygon class="st0" points="134.7,129.6 134.7,112.8 153.5,112.8 152,114.1 153.5,115 152.1,116.2 153.5,117.2 152.2,118.4 
			153.5,119.3 152.1,120.5 153.4,121.6 152.1,122.6 153.4,123.7 152,124.7 153.4,125.8 152.1,126.9 153.4,127.4 164.3,127.4 
			164.3,118.3 157.4,118.3 157.4,123.4 160.1,123.4 160.1,120.8 162,120.8 162,125.2 155.4,125.2 155.4,113 156.6,114.9 
			157.7,112.8 158.8,114.9 159.9,112.8 161.1,114.8 162,112.8 163.4,114.9 164.2,113 165.6,115 166.4,112.9 166.4,129.7 
			147.8,129.7 149.1,128.5 147.8,127.5 149.1,126.3 147.8,125.4 149.1,124.2 147.8,123.1 149.1,122 147.8,121.1 149.1,120 
			147.7,118.8 149.1,117.8 147.8,116.7 149.1,115.6 147.6,115.1 137,115.1 137,124.2 143.7,124.2 143.7,119.1 141,119.1 141,121.8 
			139.3,121.8 139.3,117.3 145.6,117.3 145.6,129.5 144.6,127.7 143.5,129.7 142.4,127.7 141.3,129.7 140.2,127.8 139.2,129.7 
			137.9,127.6 137,129.7 135.7,127.5 		"/>
		<path class="st0" d="M202.1,142.9c-0.2-0.9-1-5.2,2.1-7.7c4.3-3.4,9.2-3,11.2-4.9c-2.4,2.4-5.7,5.7-5.7,5.7
			S204.1,138.7,202.1,142.9z"/>
		<path class="st0" d="M203.3,144.4c0.9,0.2,5.2,1.1,7.7-2c3.5-4.2,3.1-9.2,5.1-11.1c-2.4,2.3-5.8,5.6-5.8,5.6
			S207.4,142.5,203.3,144.4z"/>
		<polygon class="st0" points="189.9,136.3 189.9,136.3 189.9,136.3 189.9,136.3 		"/>
		<g>
			<rect x="192.2" y="138.4" class="st0" width="1" height="0.3"/>
			<rect x="191.7" y="137" class="st0" width="0.7" height="0.3"/>
			<rect x="193.1" y="137" class="st0" width="0.7" height="0.3"/>
			<path class="st0" d="M192.8,131.4c1,0,1.9,0.5,2.3,1c0.6,0.8,0.8,1.8,0.8,2.2h0.5c-0.1-2.3-1.7-4.1-3.6-4.1c-2,0-3.6,1.8-3.6,4.1
				h0.6c0-0.3,0.2-1.6,1-2.4C191.2,131.8,191.9,131.4,192.8,131.4z"/>
			<path class="st0" d="M192.8,132.8c-1.9,0-2.5,1.9-2.5,1.9h0v0.7h2.3h0.6h2.1v-0.8C195.3,134.6,194.8,132.8,192.8,132.8z"/>
			<path class="st0" d="M192.8,130.2c2.2,0,4,2,4,4.4h1.2c0-0.1,0-0.3,0-0.4c0-2.9-2.3-5.2-5.2-5.2s-5.2,2.3-5.2,5.2
				c0,0.1,0,0.3,0,0.4h1.2C188.8,132.2,190.6,130.2,192.8,130.2z"/>
			<path class="st0" d="M220.7,149.1c-0.5-1.8-1.5-3.1-3.3-3.6c-1.7-0.5-3.4,0-4.2,1.2c-0.7,0.9-0.9,2.4-0.2,3.3
				c0.7,0.9,1.7,1,2.7,0.6c0.7-0.3,1.4-1.3,0.9-2.3c-0.2-0.5-1-1.1-1.8-0.9c1.2-0.6,2.4-0.6,3.1,0c0.9,0.8,1.3,2,1.1,2.8
				c-0.4,1.9-3.1,3.7-6.8,2.2c-3.2-1.3-6.2-2.6-9-2.6c0,0,0,0,0,0c-0.6-1-1.2-2-1.7-2.6c0.2-0.3,0.2-1.1,0.2-1.1l-3.2-4.6l0-3
				c1-1.3,1.6-2.5,1.6-4.3c0-1.2-0.3-2.4-0.8-3.4l-0.3,1l-1-0.3l0.3-1l1,0.3c-0.4-0.8-1-1.6-1.7-2.2l0.1,1l-1,0.1l-0.1-1l1-0.1
				c-1.3-1.1-2.9-1.9-4.8-1.9c-4,0-7.2,3.3-7.2,7.4c0,1.7,0.5,3.2,1.4,4.4v2.8l-3.2,4.5c0,0,0.2,1,0.6,1.2
				c-2.1,2.2-7.3,11.6-7.3,11.6h31.1c0,0-2-3.7-3.9-7.1c2.2,0.2,4.8,1.6,6.5,2.6c2.3,1.4,4.1,1.9,6.7,1
				C219.4,154.7,221.5,152,220.7,149.1z M199.2,132.9l0.7,0.8l-0.8,0.7l-0.7-0.8L199.2,132.9z M195.3,127.5l0.6,0.9l-0.9,0.6
				l-0.6-0.9L195.3,127.5z M192.5,127.1l0.7,0.7l-0.7,0.7l-0.7-0.7L192.5,127.1z M189.9,127.7l0.9,0.5l-0.5,0.9l-0.9-0.5
				L189.9,127.7z M187.7,129.2h1v1.1h-1V129.2z M187.2,131.1l0.4,1l-1,0.4l-0.4-1L187.2,131.1z M185.7,134.1l0.6-0.8l0.8,0.6
				l-0.6,0.8L185.7,134.1z M187,135.4v-0.8h0.3c0-0.1,0-0.3,0-0.4c0-3.1,2.5-5.5,5.6-5.5c3.1,0,5.6,2.5,5.6,5.5c0,0.1,0,0.3,0,0.4
				h0.3v0.8h-2.8c0,0.1,0,0.2,0,0.2c0,0.3,1.7,1.2,1.7,3c0,0.5,0,2,0,2s-0.2,0-0.3,0c0-2.9-0.1-3.2-1.3-4.3c-0.2,0-0.3,0-0.5,0
				c1.6,0.8,1.5,3.6,1.5,3.6s-0.7-1.2-2.1-1.4c0.6-1.5-0.3-2.3-0.3-2.3l-0.4,0.1l-0.5-0.1c0.3,0.3,0.6,0.8,0.6,1.3
				c0,0.9-0.6,1.6-1.4,1.7v8.5h-0.4v-8.5c-0.8-0.1-1.4-0.8-1.4-1.7c0-0.5,0.2-0.9,0.5-1.2l-0.1,0l-0.4-0.1c0,0-0.8,0.8-0.3,2.3
				c-1.4,0.2-2.1,1.4-2.1,1.4s-0.1-2.8,1.5-3.6c-0.2,0-0.3,0-0.5,0c-1.3,1.1-1.3,1.4-1.3,4.3c-0.1,0-0.3,0-0.3,0s0-1.5,0-2
				c0-1.8,1.7-2.8,1.7-3c0-0.1,0-0.2,0-0.2H187z M184.4,146.8c0,0-0.4-0.5-0.2-0.8c0.7-1,2.9-4.8,5.1-5.7c0.1-0.8,1.5-1.1,1.5-1.1
				L184.4,146.8z M195.3,147.3l-0.8,2.6v3.1h-3.7v-3.3l-0.7-2.6l0-6.6l0.9-1.2v8l1.4,1.2v2.7h0.6v-2.7l1.2-1.3v-7.9l1.1,1.2V147.3z
				 M200.9,146.8l-6.5-7.7c0,0,1.4,0.3,1.5,1.1c2.2,1,4.4,4.8,5.1,5.7C201.2,146.3,200.9,146.8,200.9,146.8z"/>
			<polygon class="st0" points="197.6,128.9 197.6,128.9 197.6,128.9 			"/>
			<polygon class="st0" points="199.2,131 199.2,131 199.2,131 			"/>
		</g>
		<path class="st0" d="M193.9,95.4c2.8-2.6,4.6-10.4,8.6-14.1c7.2-6.7,15.3-3.1,15.3-3.1s-2.8,1.8-4.5,6.7c-1,2.9-2.8,7.4-5.9,10
			c-2.6,2.3-7.6,4.2-13.9,2.4c6.9-1.3,9.1-4,11.1-6.5c1.9-2.5,3.6-7.5,6.4-9.5c-1.8,0.3-3.5,2.2-4.5,3.1c-2,1.8-3.9,5.7-7,8.3
			C198.2,93.9,196.2,95.2,193.9,95.4z"/>
		<path class="st0" d="M193.9,101.2c2.8,2.6,4.6,10.4,8.6,14.1c7.2,6.7,15.3,3.1,15.3,3.1s-2.8-1.8-4.5-6.7c-1-2.9-2.8-7.4-5.9-10
			c-2.6-2.3-7.6-4.2-13.9-2.4c6.9,1.3,9.1,4,11.1,6.5c1.9,2.5,3.6,7.5,6.4,9.5c-1.8-0.3-3.5-2.2-4.5-3.1c-2-1.8-3.9-5.7-7-8.3
			C198.2,102.7,196.2,101.4,193.9,101.2z"/>
		<path class="st0" d="M237,105.6c-0.6-1-2.6-2.1-3.4-2.9c0.2-1.2-1.9-2.2-1.9-2.2s1.3-0.3,1.3-0.7c0.1-0.5-1.6-1.4-1.6-1.4
			s0.4-0.9,0.5-1.3c1.1,0.6,2.4-0.2,2.4-0.2s-1-2-2.9-2.6c-1.8-0.5-5.7-0.1-5.7-0.1s2.5-2.1,3.4-2.9c0.7-0.6,0.7-1.8-0.6-1.8
			c-0.4-0.7,0.1-2.1,0.1-2.1s-1.8,0.3-3.1,1c0.3-1.8-1.1-1.6-1.5-1.3c-1.4,1-3.4,3.3-4.4,5.9c-0.7,0.2-1.4,1.4-1.4,1.4
			s-0.9-3.9-3.4-3.6c-2.6,0.3-2.7,3.3-2.7,3.3s-1.1,0.3-1.3,1.4c1.3,0.5,2.4-0.4,2.4-0.4s2,0.2,2.6,2.5c0.8,3.5,4,5.2,4,5.2s0,0,0,0
			c-0.1,0.5-0.2,1-0.2,1.3c-0.4,1.5-1.6,2.4-1.6,2.4s1,0.2,1.7-0.5c0.2,0.1,0.2,0.9,0.2,0.9s1.5-2.5,1.3-3.6c0,0,0,0,0,0
			c0.6,0.3,1.3,0.6,2,1c-0.1,0.3-0.1,0.7-0.2,0.9c-0.4,1.5-1.6,2.4-1.6,2.4s1,0.2,1.7-0.4c0.2,0.1,0.2,0.9,0.2,0.9s1.2-1.9,1.3-3.1
			c0,0,0,0,0,0c3.6,1.6,8.8,7.3,8.8,7.3s0.7-1,0.3-2.9c1.3-0.6,2.2-1.9,1.1-3.6c0.4,0.4,0.9,0.8,1.2,1
			C236.5,107.4,237.4,106.5,237,105.6z"/>
		<path class="st0" d="M215.6,41.1c0-0.1-0.1-0.1-0.2-0.1c-0.1,0-2.3,1-3.9,2.4c-0.7,0.6-1.1,1.1-1.4,1.5c-0.4,0-0.7,0.1-1.1,0.2
			c0.2-0.5,0.6-1.2,1.6-2.2c1.5-1.4,3.7-2.5,3.7-2.5c0.1,0,0.1-0.2,0.1-0.2c0-0.1-0.2-0.1-0.2-0.1c-0.1,0-2.3,1.1-3.8,2.6
			c-1.3,1.3-1.7,2.2-1.8,2.7c-0.4,0.3-0.8,0.7-0.9,0.9c-1,2-3.1,4-4.3,5.1c-0.4,0.4-1,0.8-1.6,1.2c1-0.8,1.9-1.6,2.6-2.8
			c0.8-1.3,0.8-4.6,1.7-6c0.9-1.3,2-6.6,2-6.6s-0.9,1-3.1,1.2c-1.8,0.1-3.7,0.4-5.8,1.9c-0.9,0.7-4.6,0.6-5.7,0.3
			c-1-0.3-3.2,0-3.6,2.7c-0.4,2.7-2.6,8.1-3.9,11.1c-0.2,0.5-1.1,1.9-1.4,2.8c2.4-1.7,10.4-0.7,14.8-3c-2.2,1.4-4.6,2.9-5.7,3.9
			c-1.2,1.1-2,3.2-3.2,4.2c1.7-0.4,3.5-0.7,4.7-1.1c1-0.3,2.8-0.7,4-1.6c2.6-1.8,7.6-5.6,9.7-8c0.8-1,1.9-3.4,2.7-4.4
			c0.4-0.6,0.4-2-0.8-2.3c0.3-0.4,0.7-0.8,1.2-1.3c1.5-1.3,3.8-2.3,3.8-2.3C215.6,41.3,215.6,41.2,215.6,41.1z M191.7,52.6
			c-1,1-2.1,1.5-2.5,1.1c-0.4-0.4,0.1-1.5,1.1-2.5c1-1,2.1-1.5,2.5-1.1C193.2,50.5,192.7,51.6,191.7,52.6z M194.3,45.7
			c-1,1-2.1,1.5-2.5,1.1c-0.4-0.4,0.1-1.5,1.1-2.5c1-1,2.1-1.5,2.5-1.1C195.8,43.6,195.3,44.7,194.3,45.7z M199,50.4
			c-1,1-2.1,1.5-2.5,1.1c-0.4-0.4,0.1-1.5,1.1-2.5c1-1,2.1-1.5,2.5-1.1C200.4,48.2,200,49.4,199,50.4z M200.3,44.7
			c-0.4-0.4,0.1-1.5,1.1-2.5c1-1,2.1-1.5,2.5-1.1c0.4,0.4-0.1,1.5-1.1,2.5C201.8,44.6,200.7,45.1,200.3,44.7z M209.4,47.3
			c-0.5,0.5-1.1,0.7-1.3,0.5c-0.2-0.2,0-0.8,0.5-1.3c0.5-0.5,1.1-0.7,1.3-0.5C210.1,46.3,209.9,46.8,209.4,47.3z"/>
		<path class="st0" d="M54.1,203.4c-0.3-1.7-0.3-4.1-0.3-5.3c0-0.5-0.7-0.2-1.1-0.1c-0.3,0.1-1.1-0.1-1.4-0.1
			c-2.3-0.4-6.9-1.4-9.3-1.1c-4.3,0.4-9.9,0.9-14.9,8.6c-2.3,3.6-3.8,9.9-0.5,17c2,4.2,6.5,7.2,9.5,8.3c3.7,1.3,9.4,1,13.4,0
			c1.3-0.3,3.6-1.2,4.6-2.8c0.6-1,1.1-2.2,1.4-2.9c0.3-0.8,0.2-1.2-0.5-0.4c-1.1,1.2-1.7,2.8-6.5,4.1c-2.8,0.8-6.9,1.8-11.6-0.9
			c-4.9-2.8-7.1-8.2-7.7-11.7c-0.7-4.5,0.4-8.4,1.8-10.7c1.7-3,5.1-5.1,7.4-5.9c3.9-1.3,9.3-0.4,11.6,0.7c1.8,0.9,2.6,2.3,3.3,3.2
			C53.6,203.8,54.2,203.9,54.1,203.4z"/>
		<path class="st0" d="M83.5,230.9c-0.9-0.2-2.5-1.7-2.9-2.6c-2.2-4.9-9.5-20.8-9.5-20.8l-4.8-0.3v0.3c0,0,1.5,1.1,1.9,1.5
			c0.9,1.1,0.8,1.6,0.6,2.1c-2,4.6-8.1,17.1-8.1,17.1s-0.8,1.8-3.5,2.9c3-0.3,5.7,0,5.7,0s-1.1-0.8-0.6-1.9c0.6-1.3,2.3-5.3,3.2-7.3
			c3.7-0.3,8.9,0,8.9,0s2,4.6,2.7,6.2c0.7,1.5-0.9,2.8-0.9,2.8s0.2,0.2,0.3,0.3c3.7-0.6,7.3,0,7.3,0S83.5,231,83.5,230.9z
			 M66.1,220.6c0.7-1.7,3.9-8.3,3.9-8.3l3.6,8.2C73.6,220.6,69.9,220.9,66.1,220.6z"/>
		<path class="st0" d="M273,230.9c-0.9-0.2-2.5-1.7-2.9-2.6c-2.2-4.9-9.5-20.8-9.5-20.8l-4.8-0.3v0.3c0,0,1.5,1.1,1.9,1.5
			c0.9,1.1,0.8,1.6,0.6,2.1c-2,4.6-8.1,17.1-8.1,17.1s-0.8,1.8-3.5,2.9c3-0.3,5.7,0,5.7,0s-1.1-0.8-0.6-1.9c0.6-1.3,2.3-5.3,3.2-7.3
			c3.7-0.3,8.9,0,8.9,0s2,4.6,2.7,6.2c0.7,1.5-0.9,2.8-0.9,2.8s0.2,0.2,0.3,0.3c3.7-0.6,7.3,0,7.3,0S273,231,273,230.9z
			 M255.6,220.6c0.7-1.7,3.9-8.3,3.9-8.3l3.6,8.2C263.1,220.6,259.4,220.9,255.6,220.6z"/>
		<path class="st0" d="M275.4,257.6c-0.5-0.1-1.5-1-1.7-1.5c-1.3-2.9-5.7-12.4-5.7-12.4l-2.9-0.2v0.2c0,0,0.9,0.6,1.1,0.9
			c0.5,0.7,0.5,0.9,0.3,1.2c-1.2,2.7-4.9,10.2-4.9,10.2s-0.5,1.1-2.1,1.7c1.8-0.1,3.4,0,3.4,0s-0.6-0.5-0.4-1.1
			c0.3-0.8,1.4-3.1,1.9-4.4c2.2-0.2,5.3,0,5.3,0s1.2,2.8,1.6,3.7c0.4,0.9-0.5,1.7-0.5,1.7s0.1,0.1,0.2,0.2c2.2-0.3,4.3,0,4.3,0
			S275.4,257.7,275.4,257.6z M265,251.5c0.4-1,2.3-4.9,2.3-4.9l2.2,4.9C269.5,251.5,267.3,251.7,265,251.5z"/>
		<path class="st0" d="M127.7,230.9c-0.9-0.2-2.5-1.7-2.9-2.6c-2.2-4.9-9.5-20.8-9.5-20.8l-4.8-0.3v0.3c0,0,1.5,1.1,1.9,1.5
			c0.9,1.1,0.8,1.6,0.6,2.1c-2,4.6-8.1,17.1-8.1,17.1s-0.8,1.8-3.5,2.9c3-0.3,5.7,0,5.7,0s-1.1-0.8-0.6-1.9c0.6-1.3,2.3-5.3,3.2-7.3
			c3.7-0.3,8.9,0,8.9,0s2,4.6,2.7,6.2c0.7,1.5-0.9,2.8-0.9,2.8s0.2,0.2,0.3,0.3c3.7-0.6,7.3,0,7.3,0S127.7,231,127.7,230.9z
			 M110.3,220.6c0.7-1.7,3.9-8.3,3.9-8.3l3.6,8.2C117.8,220.6,114.1,220.9,110.3,220.6z"/>
		<path class="st0" d="M99.1,211.8c-0.2-0.9-0.4-3-0.2-3.8c0.1-0.5-0.6-0.4-1.3-0.2c-0.6,0.3-1.7-0.1-2.3-0.2
			c-0.9-0.2-2.8-0.4-4.1-0.2c-1.5,0.2-3.7,1-4.9,3.4c-1.4,2.8-0.1,5,1.2,6.2c1.8,1.7,6.1,3.9,8,5.6c2.1,1.8,1.8,3.7,0.7,5.5
			c-0.7,1-2.5,2-4.5,1.9c-1.8-0.1-4-1.1-4.9-2.1c-0.4-0.4-1-1.4-1.2-2c-0.1-0.4-0.7-0.4-0.8,0.2c-0.1,0.7,0.3,2.2,0.3,3
			c0,0.5,0.2,1.2,0.9,1.4c1.1,0.3,2.8,0.9,4.7,1c3.6,0.2,5.9-1,7.3-2.4c1.2-1.1,2.1-3,1.8-5c-0.4-2.4-2.1-3.8-3.2-4.7
			c-1.6-1.3-4.8-3.1-6.3-4.3c-1.4-1.2-2.4-2.1-2-3.9c0.3-1.4,1.7-2,2.5-2.3c1.2-0.4,4-0.2,5.2,0.3c0.8,0.4,2,1.8,2.3,2.6
			C98.6,212.5,99.2,212.3,99.1,211.8z"/>
		<path class="st0" d="M248.8,246.1c-0.1-0.5-0.2-1.8-0.1-2.3c0-0.3-0.4-0.3-0.8-0.1c-0.4,0.2-1,0-1.4-0.1c-0.6-0.1-1.7-0.2-2.5-0.1
			c-0.9,0.1-2.2,0.6-2.9,2c-0.8,1.7-0.1,3,0.7,3.7c1.1,1,3.6,2.3,4.8,3.4c1.2,1.1,1.1,2.2,0.4,3.3c-0.4,0.6-1.5,1.2-2.7,1.2
			c-1.1,0-2.4-0.7-2.9-1.3c-0.2-0.3-0.6-0.8-0.7-1.2c-0.1-0.3-0.4-0.3-0.5,0.1c0,0.4,0.2,1.3,0.2,1.8c0,0.3,0.1,0.7,0.5,0.8
			c0.7,0.2,1.7,0.5,2.8,0.6c2.1,0.1,3.5-0.6,4.4-1.4c0.7-0.7,1.3-1.8,1.1-3c-0.2-1.4-1.3-2.3-1.9-2.8c-0.9-0.8-2.9-1.8-3.7-2.6
			c-0.8-0.7-1.4-1.2-1.2-2.3c0.2-0.8,1-1.2,1.5-1.4c0.7-0.3,2.4-0.1,3.1,0.2c0.5,0.2,1.2,1,1.4,1.5
			C248.4,246.5,248.8,246.4,248.8,246.1z"/>
		<path class="st0" d="M160.2,215c-1.2-0.9-5.3-2.3-5.3-2.3s4.4-1.8,4.6-7.9c0.1-4.1-3.9-7.1-7-7.1c-3.1,0-8.2,0.1-10,0.1
			c-1.8,0-2.6-0.3-2.6-0.3l-0.2,0.6c0,0,2.4,0.5,2.6,4c0.1,3.5,0.4,20.7,0.1,23.8c-0.4,3.6-2.7,4.8-2.7,4.8s0,0.3,0,0.5
			c3.9-0.4,12.7,0.2,16.9-0.4c4.6-0.6,6.7-5.5,6.9-8.2C163.8,220.1,163.1,217.2,160.2,215z M146.6,200c0.2-1,0.8-0.7,4.1-0.6
			c3.5,0,5.3,2.8,5.1,6.9c-0.2,3.7-2.9,6.2-4.6,6.1c-3.9-0.1-4.7,0.3-4.8-0.9C146.2,208.7,145.9,203.4,146.6,200z M158.8,226.7
			c-1.5,1.8-3.6,3.2-9,2.7c-2.8-0.3-3.7-1.3-3.7-3.8c0-2.7,0-11.3,0-11.3s3.6,0.1,4.8,0.2c3.3,0.2,5.6,1.5,7,3.2
			C159.5,219.3,160.5,224.8,158.8,226.7z"/>
		<path class="st0" d="M179,207.3c-7.7,0-13.9,5.4-13.9,12.1c0,6.7,6.2,12.1,13.9,12.1c7.7,0,13.9-5.4,13.9-12.1
			C192.9,212.7,186.7,207.3,179,207.3z M179.2,230.1c-5.8,0-10.5-4.8-10.5-10.6c0-7.3,4.7-10.6,10.5-10.6c5.8,0,10.5,4.8,10.5,10.6
			C189.7,226.4,185,230.1,179.2,230.1z"/>
		<path class="st0" d="M115.1,251.1c-0.6-0.4-2.6-0.9-2.6-0.9s2.1-0.8,2.2-3.3c0.1-1.7-1.9-3-3.4-3c-1.5,0-3.9,0-4.8,0
			c-0.9,0-1.2-0.1-1.2-0.1l-0.1,0.3c0,0,1.2,0.2,1.2,1.7c0.1,1.5,0.2,8.6,0.1,9.9c-0.2,1.5-1.3,2-1.3,2s0,0.1,0,0.2
			c1.9-0.1,6.1,0.1,8.1-0.2c2.2-0.3,3.2-2.3,3.3-3.4C116.8,253.2,116.5,252,115.1,251.1z M108.5,244.9c0.1-0.4,0.4-0.3,2-0.3
			c1.7,0,2.5,1.2,2.4,2.9c-0.1,1.6-1.4,2.6-2.2,2.6c-1.9,0-2.2,0.1-2.3-0.4C108.3,248.5,108.2,246.3,108.5,244.9z M114.4,256
			c-0.7,0.7-1.7,1.3-4.3,1.1c-1.3-0.1-1.8-0.5-1.8-1.6c0-1.1,0-4.7,0-4.7s1.7,0.1,2.3,0.1c1.6,0.1,2.7,0.6,3.4,1.3
			C114.7,252.9,115.2,255.2,114.4,256z"/>
		<path class="st0" d="M125.7,243.7c-4.5,0-8.2,3.2-8.2,7.2c0,4,3.7,7.2,8.2,7.2c4.5,0,8.2-3.2,8.2-7.2
			C133.9,246.9,130.2,243.7,125.7,243.7z M125.8,257.2c-3.4,0-6.2-2.8-6.2-6.3c0-4.3,2.8-6.3,6.2-6.3c3.4,0,6.2,2.8,6.2,6.3
			C132,255,129.2,257.2,125.8,257.2z"/>
		<path class="st0" d="M49.5,243.7c-4.5,0-8.2,3.2-8.2,7.2c0,4,3.7,7.2,8.2,7.2c4.5,0,8.2-3.2,8.2-7.2
			C57.6,246.9,54,243.7,49.5,243.7z M49.6,257.2c-3.4,0-6.2-2.8-6.2-6.3c0-4.3,2.8-6.3,6.2-6.3c3.4,0,6.2,2.8,6.2,6.3
			C55.8,255,53,257.2,49.6,257.2z"/>
		<path class="st0" d="M196.1,228.2c0.2-4.2,0-12.6,0.1-16.7c0-1.1,0.1-3.1-2.1-3.9c0-0.1,0-0.3,0-0.3l3.3,0.2l18.4,18.8
			c0,0-0.2-10.6-0.2-14.2c0-4.1-1.9-4.3-1.9-4.3v-0.5c0,0,2,0.3,2.7,0.3c0.7,0,3-0.2,3-0.2v0.3c0,0-1.8,0.6-1.8,4.6
			c0,4.9,0,19.1,0,19.1l-0.8,0.2L198,212.6c0,0,0.2,12.2,0.2,15.8c0,0.8,0.7,2.3,2,2.4c0,0.1,0,0.4,0,0.4L197,231l-2.9,0.2
			c0,0,0-0.3,0-0.3C196.2,230,196.1,229.1,196.1,228.2z"/>
		<path class="st0" d="M220.6,207.4c0,0,1.6,0.3,3.6,0.3c1.9,0,3.6-0.3,3.6-0.3s-1.9,1.2-1.9,3.6c0,4.1,0,13.5,0.2,17.4
			c0.1,1.7,2,2.8,2,2.8s-2.2-0.3-3.8-0.3c-1.5,0-3.4,0.2-3.4,0.2s2-1,2-2.9c0-3.9-0.2-13.4-0.2-17.5
			C222.7,208.6,220.6,207.4,220.6,207.4z"/>
		<path class="st0" d="M229.9,210.2c0.9-1,1.7-3.1,1.7-3.1l0.4,0c0,0,0.3,0.6,1.9,0.6c1.6,0,14-0.1,15.6-0.1c1.7,0,3.1-0.6,3.1-0.6
			h0.5c0,0-1.9,3.6-1.9,4c0,0.4-0.7,0-0.6-0.6c0.3-1.6-1.3-1.4-1.3-1.4h-6.3c0,0-0.3,6.2-0.3,8.2c0,3,0,9.2,0.5,12
			c0.2,1.2,1.9,1.7,1.9,1.7v0.2H238l0-0.4c0,0,1.9-0.5,1.9-2.4c0-4.7,0-19.5,0-19.5s-1.9-0.1-5.1,0.2c-3.2,0.3-4.3,1.7-4.8,2
			C229.4,211.3,228.9,211.1,229.9,210.2z"/>
		<path class="st0" d="M164,243.7c0,0,0.9,0.2,2.1,0.2c1.1,0,2.1-0.2,2.1-0.2s-1.1,0.7-1.1,2.1c0,2.4,0,8,0.1,10.3
			c0.1,1,1.2,1.7,1.2,1.7s-1.3-0.2-2.3-0.2c-0.9,0-2,0.1-2,0.1s1.2-0.6,1.2-1.7c0-2.3-0.1-8-0.1-10.4
			C165.2,244.4,164,243.7,164,243.7z"/>
		<path class="st0" d="M149.4,245.4c0.6-0.6,1-1.8,1-1.8l0.3,0c0,0,0.2,0.3,1.1,0.3c0.9,0,8.3,0,9.3,0c1,0,1.8-0.3,1.8-0.3h0.3
			c0,0-1.1,2.1-1.1,2.4c0,0.2-0.4,0-0.3-0.3c0.2-0.9-0.7-0.8-0.7-0.8h-3.7c0,0-0.2,3.7-0.2,4.9c0,1.8,0,5.4,0.3,7.1
			c0.1,0.7,1.1,1,1.1,1v0.1h-4.2l0-0.2c0,0,1.1-0.3,1.1-1.4c0-2.8,0-11.5,0-11.5s-1.1-0.1-3,0.1c-1.9,0.2-2.6,1-2.8,1.2
			C149.2,246.1,148.9,246,149.4,245.4z"/>
		<path class="st0" d="M58.7,245.4c0.6-0.6,1-1.8,1-1.8l0.3,0c0,0,0.2,0.3,1.1,0.3c0.9,0,8.4,0,9.4,0c1,0,1.8-0.3,1.8-0.3h0.3
			c0,0-1.1,2.1-1.1,2.4c0,0.2-0.4,0-0.3-0.3c0.2-0.9-0.7-0.8-0.7-0.8h-3.8c0,0-0.2,3.7-0.2,4.9c0,1.8,0,5.5,0.3,7.1
			c0.1,0.7,1.1,1,1.1,1v0.1h-4.3l0-0.2c0,0,1.1-0.3,1.1-1.4c0-2.8,0-11.5,0-11.5s-1.1-0.1-3.1,0.1c-1.9,0.2-2.6,1-2.9,1.2
			C58.5,246.1,58.2,246,58.7,245.4z"/>
		<path class="st0" d="M39.4,256.4c-0.2-2.4-0.2-8.1,0-10.9c0.1-1.4,1-1.6,1-1.6v-0.3c0,0-0.7,0.2-2.1,0.2c-1.2,0-2-0.2-2-0.2v0.3
			c0,0,1.1,0.2,1.1,1.7c0.1,1.1,0.1,2.7,0.1,4.4c-2.4,0.2-7,0.1-9.4,0c0-1.7,0.1-3.3,0.1-4.5c0.1-1.4,1-1.6,1-1.6v-0.3
			c0,0-0.7,0.2-2.1,0.2c-1.2,0-2-0.2-2-0.2v0.3c0,0,1.1,0.2,1.1,1.7c0.1,2.6,0.1,8.6,0.1,10.9c0,0.7-1.2,1.1-1.2,1.1v0.3
			c0,0,1-0.2,2.1-0.3c1.2,0,2.1,0.3,2.1,0.3v-0.3c0,0-1.1-0.4-1.1-1.2c-0.1-1.2-0.2-3.4-0.2-5.5c1.6-0.2,7.1-0.1,9.4,0
			c0,2.2,0,4.4,0,5.6c0,0.7-1.2,1.1-1.2,1.1v0.3c0,0,1-0.2,2.1-0.3c1.2,0,2.1,0.3,2.1,0.3v-0.3C40.5,257.6,39.5,257.2,39.4,256.4z"
			/>
		<path class="st0" d="M84.5,255c-0.7,0.8-1.6,2-3.5,2c-1.1,0-3.8,0.3-4.1-1.2c-0.2-1-0.3-2.9-0.4-4.8c0.9,0,2.7,0,3.5,0.1
			c1.6,0.1,2,0.9,2,0.9l0.3,0.1l0.1-2.8h-0.3c0,0-0.3,0.8-1.4,0.9c-0.9,0.1-3.1,0-4.2,0c0-2.2,0.1-4.5,0.5-5.5
			c0.7-0.1,2.8-0.1,3.8-0.1c0.6,0,1.5,0,2,1.2c0.1,0.1,0.3,0,0.3-0.1c-0.1-0.3-0.2-1.1-0.2-1.4c0-0.5-1.2-0.4-1.5-0.5
			c-1.1,0-3.3,0.1-4.5,0.2c-2.1,0-3.8-0.2-3.8-0.2v0.3c0,0,1.5,0.3,1.6,1.9c0.2,2.5,0.1,7.6,0.1,9.7c0,1.3-1.4,1.9-1.4,1.9
			s-0.1,0.1,0,0.5c1.5-0.4,7-0.3,9.3-0.3c0.8,0,1-0.4,1.2-0.8c0.1-0.4,0.7-1.1,0.9-1.5C85.1,255,84.7,254.8,84.5,255z"/>
		<path class="st0" d="M212.3,255c-0.7,0.8-1.6,2-3.5,2c-1.1,0-3.8,0.3-4.1-1.2c-0.2-1-0.3-2.9-0.4-4.8c0.9,0,2.7,0,3.5,0.1
			c1.6,0.1,2,0.9,2,0.9l0.3,0.1l0.1-2.8H210c0,0-0.3,0.8-1.4,0.9c-0.9,0.1-3.1,0-4.2,0c0-2.2,0.1-4.5,0.5-5.5
			c0.7-0.1,2.8-0.1,3.8-0.1c0.6,0,1.5,0,2,1.2c0.1,0.1,0.3,0,0.3-0.1c-0.1-0.3-0.2-1.1-0.2-1.4c0-0.5-1.2-0.4-1.5-0.5
			c-1.1,0-3.3,0.1-4.5,0.2c-2.1,0-3.8-0.2-3.8-0.2v0.3c0,0,1.5,0.3,1.6,1.9c0.2,2.5,0.1,7.6,0.1,9.7c0,1.3-1.4,1.9-1.4,1.9
			s-0.1,0.1,0,0.5c1.5-0.4,7-0.3,9.3-0.3c0.8,0,1-0.4,1.2-0.8c0.1-0.4,0.7-1.1,0.9-1.5C212.9,255,212.5,254.8,212.3,255z"/>
		<path class="st0" d="M96.1,254.9c-0.7,0.8-1,2.2-4.4,2.3c-1.3,0-2.5-0.4-2.6-1.3c-0.3-2.2-0.5-8.6,0.1-11.2
			c0.1-0.3,0.8-0.8,0.8-0.8l0-0.3c0,0-1.1,0.2-2.1,0.2c-1.1,0-2-0.2-2-0.2v0.3c0,0,1,0.4,1.2,2c0.2,2.5,0.1,7.6,0.1,9.7
			c0,1.3-1.4,2-1.4,2s-0.1,0,0,0.3c1.5-0.4,6.6,0.1,8.9-0.2c0.8-0.1,0.9-0.2,1-0.6c0.1-0.4,0.7-1.5,0.9-1.9
			C96.7,254.8,96.3,254.6,96.1,254.9z"/>
		<path class="st0" d="M134.7,243.7l0,0.3c0,0,1.2,0.6,1.2,2.1c-0.1,1.9-0.1,5.8-0.1,7.7c0,1.3,0.7,3.8,3.4,4.1
			c0.7,0.1,2,0.1,2.7,0.1c0.6,0,1.9,0,2.5-0.1c1.8-0.4,3-2.2,3-4.8c0-2,0-5.9,0.2-7.9c0-0.9,0.9-1.2,0.9-1.2l0-0.3
			c0,0-0.4,0.2-1.7,0.2c-1.7,0-1.9-0.2-1.9-0.2l0,0.4c0,0,1.3,0.3,1.3,1.3c0,1.9,0,6.3,0,8.1c0,1.1-0.3,3.1-2.6,3.6
			c-1,0.2-3,0.2-4-0.1c-1.7-0.6-1.9-3.1-2-4.3c-0.1-1.7,0-5.5,0.1-7.4c0-0.9,1-1.4,1-1.4l0-0.2c0,0-1.2,0.1-2.2,0.1
			C135.4,243.8,134.7,243.7,134.7,243.7z"/>
		<path class="st0" d="M186.9,243.7l0,0.3c0,0,1.2,0.6,1.2,2.1c-0.1,1.9-0.1,5.8-0.1,7.7c0,1.3,0.7,3.8,3.4,4.1
			c0.7,0.1,2,0.1,2.7,0.1c0.6,0,1.9,0,2.5-0.1c1.8-0.4,3-2.2,3-4.8c0-2,0-5.9,0.2-7.9c0-0.9,0.9-1.2,0.9-1.2l0-0.3
			c0,0-0.4,0.2-1.7,0.2c-1.7,0-1.9-0.2-1.9-0.2l0,0.4c0,0,1.3,0.3,1.3,1.3c0,1.9,0,6.3,0,8.1c0,1.1-0.3,3.1-2.6,3.6
			c-1,0.2-3,0.2-4-0.1c-1.7-0.6-1.9-3.1-2-4.3c-0.1-1.7,0-5.5,0.1-7.4c0-0.9,1-1.4,1-1.4l0-0.2c0,0-1.2,0.1-2.2,0.1
			C187.6,243.8,186.9,243.7,186.9,243.7z"/>
		<path class="st0" d="M196.9,259.7c0,0-1.3,1.3-4.9,1c-2.8-0.2-10.2-2.7-11.6-3.2c3.2-1,5.5-3.6,5.5-6.7c0-4-3.8-7.2-8.5-7.2
			c-4.7,0-8.5,3.2-8.5,7.2c0,4,3.8,7.2,8.5,7.2c0.3,0,0.7,0,1-0.1c0.6,0.2,1.6,0.5,2.1,0.6c2.7,1.1,6.9,3.4,10.9,3.4
			c3.2,0,5.8-2.1,5.8-2.1L196.9,259.7z M171.2,250.9c0-4.3,2.9-6.3,6.4-6.3c3.5,0,6.4,2.8,6.4,6.3c0,4.1-2.9,6.3-6.4,6.3
			C174,257.2,171.2,254.4,171.2,250.9z"/>
		<g>
			<path class="st0" d="M223.1,249.1c-0.8-1-1.2-1.7-1.4-2.1c-0.2-0.5-0.3-0.9-0.3-1.3c0-0.7,0.3-1.3,0.9-1.9
				c0.6-0.5,1.4-0.8,2.5-0.8c1,0,1.8,0.3,2.3,0.8c0.5,0.5,0.8,1.2,0.8,1.9c0,0.7-0.2,1.3-0.6,1.8c-0.4,0.5-1,0.9-1.8,1.3
				c0.3,0.4,0.7,0.9,1.3,1.6c0.2,0.2,0.4,0.4,0.5,0.6l2.1,2.6c0.7-0.8,1.2-1.5,1.5-2.1c0.3-0.6,0.5-1.1,0.5-1.4
				c0-0.2-0.1-0.4-0.2-0.6c-0.1-0.2-0.4-0.3-0.8-0.4c0-0.1-0.1-0.1-0.1-0.2l0-0.1l1.4-0.1c0.3,0,0.7-0.1,1.2-0.1
				c0.5,0,1.2-0.1,2.1-0.1l0,0.1c0,0,0,0.1,0,0.2c-0.6,0.2-1,0.5-1.4,0.8c-0.4,0.3-1,0.9-1.8,1.9c-0.8,0.9-1.5,1.8-2.1,2.6
				c1,1.2,1.7,2,2.1,2.2c0.4,0.3,0.9,0.4,1.3,0.4c0.5,0,1-0.2,1.4-0.5c0.3-0.2,0.4-0.3,0.6-0.3c0,0,0.1,0,0.2,0
				c-0.2,0.8-0.3,1.2-0.5,1.3c-0.6,0.5-1.3,0.8-2,0.8c-0.4,0-0.9-0.1-1.3-0.2c-0.4-0.1-0.8-0.4-1.2-0.7c-0.2-0.2-0.6-0.5-1.2-1.1
				c-0.4-0.4-0.6-0.6-0.7-0.7c-0.6,0.6-1.1,1.1-1.4,1.3c-0.6,0.4-1.2,0.7-1.8,1c-0.7,0.2-1.4,0.3-2.2,0.3c-1,0-1.9-0.2-2.6-0.6
				c-0.7-0.4-1.2-1-1.5-1.7c-0.3-0.7-0.5-1.3-0.5-2c0-0.5,0.1-0.9,0.3-1.4c0.2-0.4,0.4-0.8,0.7-1.1c0.3-0.3,0.7-0.6,1.2-1
				c0.2-0.1,0.6-0.3,1.2-0.7C222.2,249.3,222.6,249.2,223.1,249.1z M228.1,254.9l-0.1-0.1l0,0l-2.7-3.2c-0.3-0.4-0.9-1.1-1.8-2.1
				c-1,0.4-1.8,0.9-2.3,1.6c-0.5,0.7-0.8,1.4-0.8,2.2c0,0.2,0.1,0.5,0.2,0.9c0.1,0.4,0.4,0.8,0.7,1.1c0.3,0.4,0.8,0.7,1.3,0.9
				c0.5,0.2,1.1,0.3,1.8,0.3c0.8,0,1.5-0.2,2.1-0.5C227.2,255.8,227.7,255.4,228.1,254.9z M225,248.3c0.4-0.2,0.8-0.5,1.1-1
				c0.3-0.5,0.4-0.9,0.4-1.5c0-0.8-0.2-1.3-0.5-1.7c-0.4-0.4-0.8-0.6-1.3-0.6c-0.5,0-0.9,0.1-1.2,0.4c-0.3,0.3-0.5,0.6-0.5,1.1
				c0,0.4,0.2,0.9,0.5,1.4C223.9,247.2,224.4,247.8,225,248.3z"/>
		</g>
		<g>
			<path class="st0" d="M250.9,243.9c0.1,0,0.2,0,0.3,0c0.2,0,0.7,0,1.2,0c0.3,0,0.5,0,0.6,0c0.2,0,0.5,0,1,0l1.9-0.1
				c0.5,0,1.1-0.1,1.7-0.1c1.1,0,2.1,0.2,2.7,0.5c0.7,0.3,1.2,0.8,1.6,1.5c0.4,0.7,0.6,1.4,0.6,2.1c0,1.1-0.4,2.1-1.2,3
				c-0.8,0.8-1.9,1.2-3.2,1.2c-0.4,0-0.7,0-1-0.1c-0.3-0.1-0.5-0.2-0.9-0.4c-0.1-0.1-0.2-0.2-0.3-0.3c0-0.1,0.1-0.1,0.1-0.1
				c0.1,0,0.2,0,0.3,0.1c0.2,0.1,0.6,0.1,0.9,0.1c0.6,0,1.1-0.1,1.6-0.4c0.5-0.3,0.9-0.7,1.2-1.2c0.3-0.5,0.4-1.1,0.4-1.7
				c0-0.6-0.1-1.1-0.4-1.7c-0.3-0.5-0.6-1-1.1-1.3c-0.3-0.2-0.6-0.3-1.2-0.5c-0.5-0.1-0.9-0.2-1.2-0.2c-0.9,0-1.4,0.1-1.6,0.2l0,0.2
				l0,1.2l0,0.2c0,0.2,0,0.5,0,0.9c0,1.5,0,2.4,0.1,2.8v0.6l0.1,5c0,0.1,0,0.2,0,0.4c0,0.2,0,0.4,0,0.5c0,0.4,0,0.6,0.1,0.8
				c0.2,0.1,0.7,0.2,1.5,0.4c0.4,0.1,0.6,0.1,0.6,0.2c0.1,0,0.1,0.1,0.2,0.1c0,0.1-0.1,0.2-0.1,0.2c0,0-0.1,0.1-0.3,0.1
				c-0.1,0-0.3,0-0.6-0.1c-0.6-0.1-1.1-0.1-1.5-0.1l-1.9,0.1l-1.1,0c-0.1,0-0.3,0-0.6,0l0-0.3l1.4-0.3c0.2-0.1,0.4-0.1,0.4-0.2
				c0.1-0.1,0.1-0.3,0.1-0.6c0-0.1,0-0.2,0-0.4c0-0.2,0-0.4,0-0.6c0-0.9,0-2.7-0.1-5.5c0-1.3,0-2.6,0-4v-0.2c0-0.5-0.1-0.9-0.2-1
				c-0.3-0.2-0.9-0.4-2-0.6c0-0.1-0.1-0.1-0.1-0.2C250.8,244,250.8,244,250.9,243.9z"/>
		</g>
	</g>
	<g>
		<path class="st1" d="M78.2,289.3c0-0.1-0.2-0.5-0.4-1.2l-3.7-9.8c-0.3-0.8-0.8-1.3-1.4-1.5c-0.2-0.1-0.4-0.2-0.5-0.2
			c-0.1-0.1-0.2-0.1-0.2-0.2c0-0.1,0.2-0.2,0.6-0.2l1,0c0.6,0,1.1,0,1.5,0l1.4,0c0.2,0,0.4,0,0.7,0c0.4,0,0.6,0.1,0.6,0.2
			c0,0.1-0.1,0.2-0.2,0.3c-0.1,0.1-0.3,0.1-0.5,0.1c-0.9,0.1-1.3,0.4-1.3,0.8c0,0.3,0,0.5,0.1,0.7c0.1,0.2,0.1,0.3,0.1,0.3l2.9,7.6
			c0,0.1,0.1,0.1,0.1,0.1s0.1,0,0.1-0.1l2.7-7.2c0.1-0.3,0.2-0.7,0.2-0.9c0-0.4-0.1-0.6-0.3-0.8s-0.5-0.3-0.8-0.4
			c-0.2,0-0.4-0.1-0.5-0.1c-0.1-0.1-0.2-0.2-0.2-0.2c0-0.1,0.2-0.2,0.6-0.2l2,0c0.3,0,0.8,0,1.4,0l0.9,0c0.4,0,0.6,0.1,0.6,0.2
			c0,0.2-0.2,0.3-0.7,0.4c-0.5,0.1-0.9,0.3-1.2,0.7c-0.3,0.3-0.6,0.7-0.8,1.1l-3.8,9.1l-0.1,0.4c-0.2,0.5-0.3,1-0.5,1.3
			c0,0.1-0.1,0.1-0.2,0.1C78.3,289.4,78.2,289.4,78.2,289.3z"/>
		<path class="st1" d="M85.5,289c0-0.1,0-0.2,0.1-0.2s0.2-0.1,0.4-0.1c0.3-0.1,0.5-0.2,0.7-0.3c0.1-0.1,0.2-0.3,0.2-0.5v-4.3
			c0-0.9-0.3-1.4-0.9-1.5c-0.1,0-0.2-0.1-0.2-0.3c0-0.1,0.1-0.2,0.2-0.2c0.8-0.2,1.5-0.5,2.1-1c0.1-0.1,0.2-0.1,0.3-0.1
			c0.1,0,0.1,0,0.1,0.1c0,0.1,0,0.4-0.1,0.8c0,0.2,0,0.5-0.1,0.9s0,0.8,0,1v4.6c0,0.2,0.1,0.4,0.2,0.5c0.1,0.1,0.4,0.2,0.6,0.3
			c0.2,0,0.3,0.1,0.4,0.1c0.1,0,0.1,0.1,0.1,0.2c0,0.1-0.1,0.2-0.4,0.2c-0.3,0-0.6,0-0.8-0.1c-0.3,0-0.6,0-0.8,0c-0.2,0-0.5,0-0.8,0
			c-0.2,0-0.5,0.1-0.9,0.1C85.7,289.3,85.5,289.2,85.5,289z M86.8,278.6c-0.2-0.2-0.3-0.4-0.3-0.7c0-0.3,0.1-0.5,0.3-0.7
			c0.2-0.2,0.4-0.3,0.7-0.3c0.3,0,0.5,0.1,0.7,0.3s0.3,0.4,0.3,0.7c0,0.3-0.1,0.5-0.3,0.7c-0.2,0.2-0.4,0.3-0.7,0.3
			C87.3,278.9,87,278.8,86.8,278.6z"/>
		<path class="st1" d="M93.9,288.9c-0.1-0.1-0.2-0.4-0.3-0.9l-0.2-0.5c-0.2-0.4-0.5-1.4-1.1-2.9l-0.8-2c-0.1-0.2-0.2-0.5-0.4-0.7
			c-0.2-0.2-0.4-0.3-0.6-0.4c-0.1-0.1-0.2-0.1-0.3-0.1c-0.1,0-0.1-0.1-0.1-0.2c0-0.1,0.1-0.2,0.4-0.2c0.3,0,0.6,0,0.8,0.1
			c0.2,0,0.4,0,0.7,0c0.2,0,0.5,0,0.7,0c0.2,0,0.5-0.1,0.8-0.1c0.3,0,0.4,0.1,0.4,0.2c0,0.1,0,0.2-0.1,0.2c-0.1,0-0.2,0.1-0.3,0.2
			c-0.1,0.1-0.2,0.2-0.3,0.3c-0.1,0.1-0.1,0.3-0.1,0.5c0,0.2,0,0.4,0.1,0.5l1.6,4.2c0,0,0,0,0.1,0l1.5-3.9c0.1-0.3,0.2-0.6,0.2-0.8
			c0-0.3,0-0.4-0.1-0.5c-0.1-0.1-0.2-0.2-0.4-0.3c-0.2-0.1-0.3-0.1-0.4-0.2c-0.1,0-0.1-0.1-0.1-0.2c0-0.1,0.1-0.2,0.4-0.2
			c0.1,0,0.2,0,0.4,0c0.5,0,0.9,0.1,1,0.1c0.2,0,0.4,0,0.8-0.1c0.2,0,0.3,0,0.4,0c0.3,0,0.4,0.1,0.4,0.2c0,0.1,0,0.1-0.1,0.2
			c-0.1,0.1-0.2,0.1-0.4,0.2c-0.2,0.1-0.4,0.2-0.7,0.5c-0.2,0.3-0.4,0.5-0.6,0.9l-1.6,3.8c-0.1,0.3-0.2,0.6-0.4,1
			c-0.2,0.4-0.3,0.7-0.4,0.9c0,0.1-0.1,0.2-0.2,0.5c-0.1,0.2-0.2,0.4-0.2,0.5h-0.1C94.2,289.6,94,289.4,93.9,288.9z"/>
		<path class="st1" d="M100.6,289c-0.6-0.4-1-0.9-1.3-1.5c-0.3-0.7-0.5-1.4-0.5-2.3c0-0.7,0.2-1.4,0.5-2.1c0.4-0.7,0.8-1.2,1.4-1.5
			c0.6-0.4,1.2-0.6,1.9-0.6c0.8,0,1.5,0.2,2,0.7c0.5,0.5,0.8,1.1,0.8,1.8c0,0.4-0.2,0.6-0.6,0.6h-4.2c-0.2,0-0.3,0-0.4,0.1
			c-0.1,0.1-0.1,0.3-0.1,0.6c0,0.6,0.1,1.2,0.4,1.7c0.3,0.5,0.6,1,1.1,1.3c0.5,0.3,1,0.5,1.5,0.5c0.8,0,1.4-0.3,2-0.9
			c0.1-0.1,0.2-0.2,0.2-0.2c0.1,0,0.2,0.1,0.2,0.2c0,0.3-0.1,0.5-0.4,0.8c-0.3,0.4-0.7,0.7-1.2,0.9c-0.5,0.2-1,0.3-1.5,0.3
			C101.8,289.5,101.1,289.3,100.6,289z M102.5,283.4c0.6,0,1.1,0,1.5-0.1c0.1,0,0.2-0.2,0.2-0.4c0-0.4-0.2-0.7-0.5-1
			c-0.3-0.3-0.7-0.4-1.2-0.4c-0.3,0-0.6,0.1-0.9,0.3c-0.3,0.2-0.6,0.4-0.8,0.7s-0.3,0.5-0.3,0.8c0,0.1,0.1,0.2,0.2,0.2H102.5z"/>
		<path class="st1" d="M114.3,288.6c-1-0.6-1.8-1.3-2.4-2.3c-0.6-1-0.9-2.1-0.9-3.4c0-1.2,0.3-2.4,0.8-3.4c0.5-1.1,1.3-1.9,2.3-2.6
			c1-0.6,2.3-1,3.7-1c1.2,0,2.3,0.3,3.3,0.8c1,0.6,1.8,1.3,2.4,2.3c0.6,1,0.9,2.1,0.9,3.4c0,1.2-0.3,2.4-0.8,3.4
			c-0.5,1.1-1.3,1.9-2.3,2.6c-1,0.6-2.3,1-3.7,1C116.4,289.5,115.3,289.2,114.3,288.6z M121.3,287.3c0.8-0.9,1.2-2.2,1.2-3.8
			c0-1.3-0.2-2.4-0.6-3.4c-0.4-1-1-1.8-1.7-2.4c-0.8-0.6-1.7-0.9-2.8-0.9c-1.5,0-2.6,0.5-3.4,1.4c-0.8,0.9-1.2,2.2-1.2,3.8
			c0,1.3,0.2,2.4,0.6,3.4c0.4,1,0.9,1.8,1.7,2.4s1.7,0.9,2.8,0.9C119.3,288.7,120.5,288.2,121.3,287.3z"/>
		<path class="st1" d="M126.9,289.2c-0.3-0.2-0.5-0.4-0.6-0.7c-0.2-0.3-0.2-0.5-0.2-0.8c0-0.4,0.1-0.7,0.3-1
			c0.2-0.2,0.6-0.5,1.1-0.7l2-0.8c0.3-0.1,0.4-0.2,0.5-0.3c0.1-0.1,0.1-0.3,0.1-0.5l0-1.3c0-0.4-0.1-0.7-0.3-0.9
			c-0.2-0.2-0.5-0.4-0.9-0.4c-0.2,0-0.4,0-0.6,0.1c-0.2,0.1-0.4,0.2-0.5,0.3c-0.1,0.1-0.2,0.3-0.2,0.6l0,0.4c0,0.1-0.2,0.2-0.5,0.4
			c-0.3,0.2-0.6,0.3-0.8,0.3c-0.1,0-0.1,0-0.2,0s-0.1-0.1-0.1-0.1c0-0.2,0.1-0.4,0.2-0.7c0.1-0.2,0.3-0.5,0.6-0.7
			c0.5-0.4,1-0.8,1.5-1c0.6-0.3,1.1-0.4,1.5-0.4c0.5,0,0.9,0.2,1.2,0.5c0.3,0.3,0.5,0.8,0.5,1.3l-0.1,4.8c0,0.3,0,0.5,0.2,0.7
			c0.1,0.2,0.3,0.3,0.5,0.3c0.3,0,0.6-0.1,0.7-0.2c0.1-0.1,0.1-0.1,0.2-0.1c0.1,0,0.1,0,0.2,0.1c0,0,0.1,0.1,0.1,0.2
			c0,0.1,0,0.1-0.1,0.2c0,0.1-0.1,0.2-0.2,0.2c-0.2,0.2-0.4,0.4-0.7,0.5c-0.2,0.1-0.5,0.2-0.7,0.2c-0.6,0-1.1-0.3-1.5-1h-0.1
			c-0.4,0.4-0.9,0.6-1.3,0.8c-0.4,0.2-0.8,0.2-1.2,0.2C127.4,289.5,127.1,289.4,126.9,289.2z M129.7,288c0.1-0.1,0.1-0.2,0.2-0.3
			s0.1-0.3,0.1-0.5l0-1v-0.1c0-0.1,0-0.2,0-0.2c0,0-0.1-0.1-0.1-0.1c-0.1,0-0.2,0-0.4,0.1c-0.7,0.2-1.1,0.5-1.4,0.8
			c-0.3,0.3-0.4,0.5-0.4,0.8c0,0.3,0.1,0.6,0.3,0.8c0.2,0.2,0.4,0.3,0.7,0.3C129,288.5,129.4,288.4,129.7,288z"/>
		<path class="st1" d="M133.5,289.1c0-0.1,0-0.2,0.1-0.2c0.1-0.1,0.2-0.1,0.3-0.1c0.2-0.1,0.4-0.2,0.6-0.3c0.2-0.2,0.4-0.4,0.7-0.8
			l1.5-2.1c0.1-0.1,0.1-0.2,0.1-0.3c0-0.1,0-0.1-0.1-0.2l-1.6-2.5c-0.2-0.3-0.3-0.5-0.4-0.6c-0.1-0.1-0.3-0.2-0.5-0.3
			c-0.1,0-0.3-0.1-0.3-0.1c-0.1-0.1-0.1-0.1-0.1-0.2c0-0.1,0.1-0.2,0.4-0.2c0.3,0,0.5,0,0.7,0c0.3,0,0.6,0,0.9,0l0.5,0
			c0.1,0,0.3,0,0.5,0h0.1c0.3,0,0.4,0.1,0.4,0.2c0,0.1,0,0.1-0.1,0.2c-0.1,0-0.2,0.1-0.3,0.1c-0.1,0-0.2,0.1-0.3,0.1
			c-0.1,0-0.1,0.1-0.1,0.2c0,0.1,0.1,0.4,0.3,0.6l0.9,1.4c0.1,0.1,0.1,0.1,0.2,0l1-1.5c0.1-0.1,0.2-0.3,0.2-0.4
			c0-0.2-0.1-0.3-0.3-0.3c-0.2-0.1-0.3-0.1-0.4-0.2s-0.1-0.1-0.1-0.2c0-0.1,0.1-0.2,0.4-0.2c0.1,0,0.2,0,0.5,0c0.2,0,0.4,0,0.6,0
			c0.3,0,0.6,0,0.8,0s0.4,0,0.5,0c0.3,0,0.4,0.1,0.4,0.2c0,0.1,0,0.2-0.1,0.2s-0.2,0.1-0.4,0.2c-0.6,0.2-1.1,0.5-1.4,0.9l-1.3,1.9
			c-0.1,0.1,0,0.2,0,0.3l1.9,3.2c0.2,0.3,0.3,0.4,0.5,0.6c0.1,0.1,0.3,0.2,0.5,0.3c0.1,0,0.3,0.1,0.3,0.1c0.1,0.1,0.1,0.1,0.1,0.2
			c0,0.1-0.1,0.2-0.4,0.2c-0.3,0-0.5,0-0.7,0c-0.3,0-0.6,0-0.9,0l-0.7,0c-0.2,0-0.4,0-0.7,0s-0.5-0.1-0.5-0.2c0-0.1,0-0.2,0.1-0.2
			c0.1-0.1,0.2-0.1,0.4-0.1c0.4-0.1,0.6-0.3,0.6-0.5c0-0.1,0-0.2-0.1-0.4l-1.2-1.9c0,0,0,0-0.1,0c0,0,0,0-0.1,0l-1.3,2
			c-0.1,0.1-0.1,0.2-0.1,0.4c0,0.1,0,0.2,0.1,0.3c0,0.1,0.1,0.1,0.2,0.2c0.2,0.1,0.3,0.1,0.4,0.1c0.1,0,0.1,0.1,0.1,0.2
			c0,0.1-0.1,0.2-0.4,0.2c-0.1,0-0.2,0-0.4,0s-0.4,0-0.7,0c-0.2,0-0.5,0-0.9,0.1c-0.2,0-0.3,0-0.4,0
			C133.6,289.3,133.5,289.2,133.5,289.1z"/>
		<path class="st1" d="M143.2,289.2c-0.3-0.2-0.5-0.4-0.6-0.7c-0.2-0.3-0.2-0.5-0.2-0.8c0-0.4,0.1-0.7,0.3-1
			c0.2-0.2,0.6-0.5,1.1-0.7l2-0.8c0.3-0.1,0.4-0.2,0.5-0.3c0.1-0.1,0.1-0.3,0.1-0.5l0-1.3c0-0.4-0.1-0.7-0.3-0.9
			c-0.2-0.2-0.5-0.4-0.9-0.4c-0.2,0-0.4,0-0.6,0.1c-0.2,0.1-0.4,0.2-0.5,0.3c-0.1,0.1-0.2,0.3-0.2,0.6l0,0.4c0,0.1-0.2,0.2-0.5,0.4
			c-0.3,0.2-0.6,0.3-0.8,0.3c-0.1,0-0.1,0-0.2,0s-0.1-0.1-0.1-0.1c0-0.2,0.1-0.4,0.2-0.7c0.1-0.2,0.3-0.5,0.6-0.7
			c0.5-0.4,1-0.8,1.5-1s1.1-0.4,1.5-0.4c0.5,0,0.9,0.2,1.2,0.5c0.3,0.3,0.5,0.8,0.5,1.3l-0.1,4.8c0,0.3,0,0.5,0.2,0.7
			c0.1,0.2,0.3,0.3,0.5,0.3c0.3,0,0.6-0.1,0.7-0.2c0.1-0.1,0.1-0.1,0.2-0.1c0.1,0,0.1,0,0.2,0.1c0,0,0.1,0.1,0.1,0.2
			c0,0.1,0,0.1-0.1,0.2c0,0.1-0.1,0.2-0.2,0.2c-0.2,0.2-0.4,0.4-0.7,0.5c-0.2,0.1-0.5,0.2-0.7,0.2c-0.6,0-1.1-0.3-1.5-1h-0.1
			c-0.4,0.4-0.9,0.6-1.3,0.8c-0.4,0.2-0.8,0.2-1.2,0.2C143.7,289.5,143.4,289.4,143.2,289.2z M146,288c0.1-0.1,0.1-0.2,0.2-0.3
			s0.1-0.3,0.1-0.5l0-1v-0.1c0-0.1,0-0.2,0-0.2c0,0-0.1-0.1-0.1-0.1c-0.1,0-0.2,0-0.4,0.1c-0.7,0.2-1.1,0.5-1.4,0.8
			c-0.3,0.3-0.4,0.5-0.4,0.8c0,0.3,0.1,0.6,0.3,0.8s0.4,0.3,0.7,0.3C145.3,288.5,145.7,288.4,146,288z"/>
		<path class="st1" d="M152,289c-0.5-0.3-1-0.8-1.3-1.4c-0.3-0.6-0.5-1.3-0.5-2c0-0.9,0.2-1.6,0.6-2.4c0.4-0.7,0.9-1.3,1.5-1.7
			c0.6-0.4,1.3-0.6,2.1-0.6c0.9,0,1.6,0.2,2.3,0.7c0.2,0.1,0.2,0.2,0.2,0.4c0,0.2-0.1,0.4-0.3,0.5c-0.2,0.2-0.4,0.3-0.6,0.3
			c-0.1,0-0.1,0-0.2-0.1c-0.1,0-0.1-0.1-0.2-0.1c-0.3-0.3-0.7-0.5-1-0.7c-0.3-0.2-0.6-0.3-0.9-0.3c-0.7,0-1.2,0.3-1.6,0.9
			c-0.4,0.6-0.6,1.4-0.6,2.4c0,0.6,0.1,1.2,0.4,1.7c0.3,0.5,0.6,0.9,1.1,1.2s1,0.4,1.5,0.4c0.4,0,0.7-0.1,1-0.2s0.6-0.4,0.9-0.7
			c0.1-0.1,0.1-0.1,0.2-0.1c0.1,0,0.1,0,0.2,0.1c0,0.1,0.1,0.1,0.1,0.2c0,0.1-0.1,0.4-0.3,0.6c-0.3,0.4-0.7,0.7-1.2,0.9
			c-0.5,0.2-1,0.3-1.7,0.3C153.1,289.5,152.5,289.3,152,289z"/>
		<path class="st1" d="M159,289.2c-0.3-0.2-0.5-0.4-0.6-0.7s-0.2-0.5-0.2-0.8c0-0.4,0.1-0.7,0.3-1s0.6-0.5,1.1-0.7l2-0.8
			c0.3-0.1,0.4-0.2,0.5-0.3c0.1-0.1,0.1-0.3,0.1-0.5l0-1.3c0-0.4-0.1-0.7-0.3-0.9c-0.2-0.2-0.5-0.4-0.9-0.4c-0.2,0-0.4,0-0.6,0.1
			c-0.2,0.1-0.4,0.2-0.5,0.3c-0.1,0.1-0.2,0.3-0.2,0.6l0,0.4c0,0.1-0.2,0.2-0.5,0.4c-0.3,0.2-0.6,0.3-0.8,0.3c-0.1,0-0.1,0-0.2,0
			s-0.1-0.1-0.1-0.1c0-0.2,0.1-0.4,0.2-0.7c0.1-0.2,0.3-0.5,0.6-0.7c0.5-0.4,1-0.8,1.5-1c0.6-0.3,1.1-0.4,1.5-0.4
			c0.5,0,0.9,0.2,1.2,0.5c0.3,0.3,0.5,0.8,0.5,1.3l-0.1,4.8c0,0.3,0,0.5,0.2,0.7c0.1,0.2,0.3,0.3,0.5,0.3c0.3,0,0.6-0.1,0.7-0.2
			c0.1-0.1,0.1-0.1,0.2-0.1c0.1,0,0.1,0,0.2,0.1c0,0,0.1,0.1,0.1,0.2c0,0.1,0,0.1-0.1,0.2c0,0.1-0.1,0.2-0.2,0.2
			c-0.2,0.2-0.4,0.4-0.7,0.5c-0.2,0.1-0.5,0.2-0.7,0.2c-0.6,0-1.1-0.3-1.5-1h-0.1c-0.4,0.4-0.9,0.6-1.3,0.8
			c-0.4,0.2-0.8,0.2-1.2,0.2C159.5,289.5,159.2,289.4,159,289.2z M161.8,288c0.1-0.1,0.1-0.2,0.2-0.3s0.1-0.3,0.1-0.5l0-1v-0.1
			c0-0.1,0-0.2,0-0.2c0,0-0.1-0.1-0.1-0.1c-0.1,0-0.2,0-0.4,0.1c-0.7,0.2-1.1,0.5-1.4,0.8s-0.4,0.5-0.4,0.8c0,0.3,0.1,0.6,0.3,0.8
			s0.4,0.3,0.7,0.3C161.1,288.5,161.5,288.4,161.8,288z"/>
		<path class="st1" d="M176.4,289.5c-0.1-0.1-0.1-0.1-0.1-0.1l0-0.5c0-0.2,0.1-0.5,0.1-0.7v-0.1c-0.2,0.4-0.6,0.7-1,1
			c-0.5,0.3-1,0.4-1.6,0.4c-0.7,0-1.4-0.2-1.9-0.6c-0.6-0.4-1-0.9-1.3-1.5c-0.3-0.6-0.5-1.3-0.5-2c0-0.8,0.2-1.5,0.5-2.2
			c0.4-0.7,0.9-1.2,1.6-1.7c0.7-0.4,1.5-0.6,2.4-0.6c0.3,0,0.5,0,0.8,0.1c0.3,0,0.5,0.1,0.7,0.2c0.1,0,0.2,0.1,0.3,0.1
			c0,0,0.1,0,0.1-0.1s0-0.2,0-0.4v-2.8c0-0.5-0.1-0.9-0.2-1.1c-0.2-0.2-0.4-0.3-0.8-0.4c-0.1,0-0.2-0.1-0.2-0.3
			c0-0.1,0.1-0.2,0.2-0.2c0.7-0.2,1.2-0.3,1.6-0.5c0.3-0.2,0.5-0.2,0.6-0.2c0.1,0,0.2-0.1,0.3-0.1c0.1,0,0.1,0,0.1,0.1
			c0,0.1,0,0.3-0.1,0.8s-0.1,1.1-0.1,2v9c0,0.5,0,0.8,0.1,1s0.2,0.3,0.3,0.3c0.2,0,0.5,0,0.9-0.1h0.1c0.2,0,0.3,0.1,0.3,0.2
			c0,0.1,0,0.2-0.1,0.2s-0.1,0.1-0.2,0.1c-0.7,0.1-1.5,0.3-2.3,0.7c-0.1,0.1-0.3,0.1-0.3,0.1C176.5,289.6,176.4,289.5,176.4,289.5z
			 M175.5,288.2c0.3-0.2,0.6-0.4,0.9-0.7l0-3.6c0-0.4-0.1-0.7-0.3-1.1c-0.2-0.3-0.5-0.6-0.9-0.8s-0.8-0.3-1.3-0.3
			c-0.4,0-0.7,0.1-1.1,0.3c-0.4,0.2-0.7,0.5-1,1c-0.3,0.5-0.4,1.2-0.4,2c0,0.9,0.2,1.6,0.5,2.2c0.3,0.5,0.7,0.9,1.2,1.1
			s0.9,0.3,1.3,0.3C174.8,288.4,175.2,288.3,175.5,288.2z"/>
		<path class="st1" d="M181.8,289c-0.6-0.4-1-0.9-1.3-1.5c-0.3-0.7-0.5-1.4-0.5-2.3c0-0.7,0.2-1.4,0.5-2.1s0.8-1.2,1.4-1.5
			c0.6-0.4,1.2-0.6,1.9-0.6c0.8,0,1.5,0.2,2,0.7c0.5,0.5,0.8,1.1,0.8,1.8c0,0.4-0.2,0.6-0.6,0.6h-4.2c-0.2,0-0.3,0-0.4,0.1
			c-0.1,0.1-0.1,0.3-0.1,0.6c0,0.6,0.1,1.2,0.4,1.7s0.6,1,1.1,1.3c0.5,0.3,1,0.5,1.5,0.5c0.8,0,1.4-0.3,2-0.9
			c0.1-0.1,0.2-0.2,0.2-0.2c0.1,0,0.2,0.1,0.2,0.2c0,0.3-0.1,0.5-0.4,0.8c-0.3,0.4-0.7,0.7-1.2,0.9c-0.5,0.2-1,0.3-1.5,0.3
			C183,289.5,182.4,289.3,181.8,289z M183.7,283.4c0.6,0,1.1,0,1.5-0.1c0.1,0,0.2-0.2,0.2-0.4c0-0.4-0.2-0.7-0.5-1s-0.7-0.4-1.2-0.4
			c-0.3,0-0.6,0.1-0.9,0.3c-0.3,0.2-0.6,0.4-0.8,0.7c-0.2,0.3-0.3,0.5-0.3,0.8c0,0.1,0.1,0.2,0.2,0.2H183.7z"/>
		<path class="st1" d="M192,289.2c-0.1,0-0.2-0.1-0.2-0.2c0-0.2,0.1-0.3,0.4-0.3c0.5-0.1,1-0.3,1.2-0.5c0.3-0.2,0.4-0.5,0.4-1V278
			c0-0.3,0-0.6-0.1-0.7s-0.2-0.3-0.3-0.3c-0.2-0.1-0.4-0.1-0.8-0.2c-0.4-0.1-0.7-0.2-0.7-0.4c0-0.1,0.2-0.2,0.6-0.2
			c0.4,0,0.8,0,1.2,0l1,0l1.2,0c0.5,0,0.9,0,1.3,0c0.4,0,0.6,0.1,0.6,0.2c0,0.2-0.2,0.3-0.7,0.4c-0.6,0.1-1.1,0.2-1.4,0.4
			c-0.3,0.1-0.4,0.4-0.4,0.7v9.4c0,0.4,0.1,0.8,0.3,0.9c0.2,0.2,0.6,0.3,1.2,0.3h2.5c0.3,0,0.6-0.1,0.9-0.2c0.3-0.1,0.5-0.2,0.6-0.4
			c0.3-0.2,0.5-0.4,0.6-0.6c0.1-0.2,0.3-0.5,0.5-0.8c0.1-0.1,0.1-0.3,0.2-0.4c0.1-0.1,0.2-0.2,0.2-0.2s0.1,0,0.2,0.1
			s0.1,0.2,0.1,0.2l0,0.1c-0.2,0.6-0.3,1.1-0.4,1.5c-0.1,0.3-0.1,0.7-0.2,1.1c0,0.2-0.1,0.3-0.3,0.3c-1.4,0-2.7,0-3.9-0.1
			c-1.4,0-2.3,0-2.9,0c-0.4,0-0.9,0-1.5,0c-0.6,0-1,0-1.2,0.1C192.2,289.3,192.1,289.3,192,289.2z"/>
		<path class="st1" d="M210.1,289.4l0-0.5c0-0.3,0.1-0.5,0.1-0.7v-0.1c-0.5,0.5-1,0.9-1.6,1.1s-1.1,0.3-1.7,0.3
			c-0.7,0-1.2-0.2-1.7-0.6s-0.6-1-0.6-1.8V283c0-0.3-0.1-0.5-0.2-0.7c-0.1-0.2-0.4-0.3-0.7-0.4c-0.2-0.1-0.3-0.2-0.3-0.3
			c0-0.2,0.1-0.3,0.3-0.3c0.4,0,0.7-0.1,1-0.1c0.2,0,0.6-0.1,1-0.2l0.2,0c0.1,0,0.2,0.1,0.2,0.3c-0.1,0.6-0.1,1.1-0.1,1.5v3.9
			c0,0.5,0.2,0.9,0.5,1.3c0.3,0.4,0.7,0.5,1.2,0.5c0.4,0,0.7,0,1-0.1c0.2,0,0.5-0.2,0.7-0.3c0.2-0.2,0.5-0.4,0.6-0.6
			s0.3-0.5,0.3-0.9v-3.7c0-0.4-0.2-0.6-0.5-0.8c-0.3-0.2-0.6-0.2-0.9-0.2c-0.3,0-0.4-0.1-0.4-0.3c0-0.2,0.1-0.3,0.4-0.3
			c0.6,0,1,0,1.4-0.1c0.3,0,0.7-0.1,1.1-0.2c0.1,0,0.1,0,0.2,0c0.1,0,0.1,0,0.2,0.1c0.1,0,0.1,0.1,0.1,0.2l0,0.2
			c0,0.1-0.1,0.4-0.1,0.6s0,0.5,0,0.8v4.6c0,0.7,0.1,1,0.4,1l0.5,0l0.5,0c0.2,0,0.3,0.1,0.3,0.3c0,0.1,0,0.2-0.1,0.2
			s-0.1,0.1-0.2,0.1c-0.5,0.1-0.9,0.2-1.2,0.3c-0.3,0.1-0.7,0.2-1.1,0.4c-0.2,0.1-0.3,0.1-0.4,0.1
			C210.2,289.6,210.1,289.5,210.1,289.4z"/>
		<path class="st1" d="M213.2,294.9c-0.1,0-0.1-0.1-0.1-0.2c0-0.1,0-0.1,0.1-0.2c0.1-0.1,0.1-0.1,0.1-0.1c0.5-0.1,1-0.6,1.3-1.3
			c0.4-0.9,0.6-2.7,0.6-5.3v-4.2c0-0.9-0.3-1.3-0.9-1.5c-0.1,0-0.1,0-0.1-0.1c0,0,0-0.1,0-0.2c0-0.1,0-0.1,0-0.2
			c0,0,0.1-0.1,0.1-0.1c0.4-0.1,0.7-0.2,1-0.4c0.3-0.2,0.5-0.3,0.7-0.4c0.2-0.1,0.3-0.2,0.3-0.2c0.2-0.1,0.2-0.1,0.3-0.1
			c0.1,0,0.1,0,0.1,0.1c-0.1,1-0.1,2-0.1,3.1v3.7c0,0.9,0,1.8-0.1,2.6c-0.1,0.8-0.2,1.6-0.5,2.3c-0.2,0.4-0.4,0.9-0.7,1.3
			s-0.6,0.8-1,1c-0.3,0.3-0.6,0.4-0.9,0.4C213.4,294.9,213.3,294.9,213.2,294.9z M215.1,278.6c-0.2-0.2-0.3-0.4-0.3-0.7
			c0-0.3,0.1-0.5,0.3-0.7c0.2-0.2,0.4-0.3,0.7-0.3c0.3,0,0.5,0.1,0.7,0.3s0.3,0.4,0.3,0.7c0,0.3-0.1,0.5-0.3,0.7
			c-0.2,0.2-0.4,0.3-0.7,0.3C215.5,278.9,215.3,278.8,215.1,278.6z"/>
		<path class="st1" d="M220.7,289c-0.6-0.3-1.1-0.8-1.4-1.4c-0.4-0.6-0.5-1.3-0.5-2.1c0-0.7,0.2-1.5,0.6-2.2
			c0.4-0.7,0.9-1.3,1.6-1.7c0.7-0.4,1.4-0.7,2.2-0.7c0.8,0,1.5,0.2,2.1,0.5c0.6,0.4,1.1,0.9,1.5,1.5c0.4,0.6,0.5,1.3,0.5,2
			c0,0.8-0.2,1.5-0.5,2.2s-0.9,1.2-1.5,1.7c-0.7,0.4-1.5,0.6-2.5,0.6C222,289.5,221.3,289.3,220.7,289z M225.2,287.8
			c0.3-0.5,0.4-1.3,0.4-2.4c0-0.6-0.1-1.3-0.4-1.9c-0.2-0.6-0.6-1.1-1-1.5s-0.9-0.6-1.5-0.6c-0.4,0-0.7,0.1-1,0.2
			c-0.3,0.1-0.5,0.3-0.8,0.6c-0.2,0.3-0.4,0.7-0.5,1.1c-0.1,0.4-0.1,1-0.1,1.5c0,0.7,0.1,1.3,0.4,1.9c0.2,0.6,0.6,1.1,1,1.4
			c0.4,0.4,0.9,0.5,1.4,0.5C224.1,288.9,224.8,288.5,225.2,287.8z"/>
	</g>
</g>
</svg>
